SplineFontDB: 3.0
FontName: KeterYG-Bold
FullName: Keter YG Bold
FamilyName: Keter YG
Weight: Bold
Copyright: Copyright 2009 by Yoram Gnat (yoram.gnat@gmail.com)\nDistributed under the terms of GNU General Public License version 2(http://www.gnu.org/licenses/gpl.html). \n\nHebrew OpenType Layout logic copyright (c) 2003 & 2007, Ralph Hancock & John Hudson. This layout logic for Biblical Hebrew is open source software under the MIT License; for details  contact copyright holders at <license@tiro.com>.\n\nAs a special exception, if you create a document which uses this font, and embed this font or unaltered portions of this font into the document, this font does not by itself cause the resulting document to be covered by the GNU General Public License. This exception does not however invalidate any other reasons why the document might be covered by the GNU General Public License. If you modify this font, you may extend this exception to your version of the font, but you are not obligated to do so. If you do not wish to do so, delete this exception statement from your version.
Version: 0.103.1yg
ItalicAngle: 0
UnderlinePosition: -192
UnderlineWidth: 22
Ascent: 1638
Descent: 410
LayerCount: 2
Layer: 0 0 "Back"  1
Layer: 1 0 "Fore"  0
XUID: [1021 983 1423252604 2364301]
FSType: 0
OS2Version: 0
OS2_WeightWidthSlopeOnly: 0
OS2_UseTypoMetrics: 1
CreationTime: 1198493378
ModificationTime: 1345830701
PfmFamily: 33
TTFWeight: 700
TTFWidth: 5
LineGap: 184
VLineGap: 0
Panose: 0 0 0 0 0 0 0 0 0 0
OS2TypoAscent: 0
OS2TypoAOffset: 1
OS2TypoDescent: 0
OS2TypoDOffset: 1
OS2TypoLinegap: 184
OS2WinAscent: 323
OS2WinAOffset: 1
OS2WinDescent: 325
OS2WinDOffset: 1
HheadAscent: 323
HheadAOffset: 1
HheadDescent: -325
HheadDOffset: 1
OS2SubXSize: 1463
OS2SubYSize: 1358
OS2SubXOff: 0
OS2SubYOff: 299
OS2SupXSize: 1463
OS2SupYSize: 1358
OS2SupXOff: 0
OS2SupYOff: 947
OS2StrikeYSize: 104
OS2StrikeYPos: 542
OS2Vendor: 'YG  '
OS2CodePages: 00000021.00000000

StartChar: zero
Encoding: 17 48 2
Width: 1344
VWidth: 2368
Flags: W
HStem: 0 21G<422.5 666.5> 1051 21G<412.4 451.818> 1126 228<551.5 910>
VStem: 94 306<463.81 700.254> 949 289<433.5 901>
LayerCount: 2
Fore
SplineSet
746 227 m 1
 879 231 949 395 949 472 c 0
 949 716 760 1126 569 1126 c 0
 534 1126 495 1112 454 1073 c 2
 430 1051 l 1
 364 1126 l 1
 380 1144 l 2
 484 1261 601 1352 779 1354 c 1
 1041 1343 1226 1037 1238 765 c 1
 1234 550 807 13 526 0 c 1
 319 0 136 239 94 487 c 1
 94 511 l 2
 94 778 316 931 430 1003 c 1
 523 1061 l 1
 475 966 l 2
 418 854 400 808 400 698 c 2
 400 684 l 2
 400 448 544 227 732 227 c 2
 746 227 l 1
EndSplineSet
Validated: 1
EndChar

StartChar: one
Encoding: 18 49 3
Width: 732
VWidth: 2366
Flags: W
HStem: 5 21G<279 311.449>
VStem: 279 318<201 1009.8>
LayerCount: 2
Fore
SplineSet
279 727 m 1
 275 907 239 1048 201 1048 c 0
 199 1048 196 1049 194 1048 c 0
 188 1046 179 1038 167 1027 c 2
 152 1012 l 1
 70 1061 l 1
 93 1086 l 2
 145 1144 404 1351 502 1353 c 1
 593 1346 585 1280 589 1167 c 1
 597 201 l 1
 279 5 l 1
 279 727 l 1
EndSplineSet
Validated: 1
EndChar

StartChar: two
Encoding: 19 50 4
Width: 1042
VWidth: 2365
Flags: W
HStem: 10 21G<93 137> 34 295<452 765.09> 1123 247<296.5 661.5>
VStem: 586 302<814.539 998.687>
LayerCount: 2
Fore
SplineSet
342 1123 m 0
 251 1123 197 1085 169 1065 c 1
 87 1123 l 1
 101 1143 l 2
 146 1215 352 1365 525 1370 c 1
 798 1363 888 1158 888 1003 c 2
 888 996 l 1
 886 842 811 750 721 664 c 1
 641 569 522 419 452 329 c 1
 1012 338 l 1
 764 21 l 1
 718 29 454 34 358 34 c 0
 235 34 161 20 113 10 c 1
 31 92 l 1
 46 111 l 2
 179 277 559 472 586 781 c 1
 586 805 l 2
 586 1031 455 1123 342 1123 c 0
EndSplineSet
Validated: 1
EndChar

StartChar: three
Encoding: 20 51 5
Width: 997
VWidth: 2373
Flags: W
HStem: 1128 233<263.5 604.5>
VStem: 583 325<330.858 505.131>
LayerCount: 2
Fore
SplineSet
145 1071 m 1
 100 1141 l 1
 124 1156 l 2
 175 1187 339 1361 521 1361 c 3
 688 1361 828 1260 828 1110 c 0
 828 970 711 907 605 832 c 1
 791 775 908 663 908 489 c 0
 907 175 490 47 283 -67 c 1
 258 -83 l 1
 223 -17 l 1
 245 -3 l 1
 373 71 579 195 583 332 c 1
 583 355 l 2
 583 576 402 622 200 631 c 2
 126 635 l 1
 184 678 l 2
 258 733 453 754 487 943 c 1
 487 953 l 2
 487 1045 387 1128 282 1128 c 0
 245 1128 209 1116 168 1088 c 2
 145 1071 l 1
EndSplineSet
Validated: 1
EndChar

StartChar: four
Encoding: 21 52 6
Width: 1256
VWidth: 2365
Flags: W
HStem: 374 236<411.174 633>
VStem: 69 323<445 827> 633 298<168 374> 652 297<649 932>
LayerCount: 2
Fore
SplineSet
714 1403 m 1xe0
 771 1345 l 1
 758 1327 l 2
 621 1139 392 891 392 710 c 0
 392 618 484 611 652 610 c 1
 652 932 l 1
 949 1125 l 1
 949 649 l 1xd0
 1244 686 l 1
 1045 423 l 1
 931 406 l 1
 931 168 l 1
 633 -15 l 1
 633 374 l 1
 292 374 l 2
 191 374 69 387 69 503 c 0
 69 763 637 1329 692 1381 c 1
 714 1403 l 1xe0
EndSplineSet
Validated: 1
EndChar

StartChar: five
Encoding: 22 53 7
Width: 983
VWidth: 2374
Flags: W
HStem: 1018 304<416.042 810.427>
VStem: 483 315<275 516.679>
LayerCount: 2
Fore
SplineSet
995 1265 m 1
 903 1119 818 1018 629 1018 c 0
 557 1018 473 1031 372 1060 c 1
 351 978 l 1
 536 931 798 729 798 502 c 0
 798 217 438 38 219 -76 c 1
 197 -89 l 1
 142 -11 l 1
 162 6 l 1
 231 62 483 213 483 337 c 0
 483 610 277 661 86 763 c 2
 61 776 l 1
 441 1360 l 1
 463 1355 l 2
 564 1333 660 1322 757 1322 c 0
 825 1322 894 1329 962 1342 c 2
 995 1348 l 1
 995 1265 l 1
EndSplineSet
Validated: 1
EndChar

StartChar: six
Encoding: 23 54 8
Width: 1149
VWidth: 2367
Flags: W
HStem: 7 217<403 740>
VStem: 91 288<343 830> 814 272<300.5 611>
LayerCount: 2
Fore
SplineSet
750 1371 m 1
 800 1312 l 1
 783 1295 l 1
 624 1143 379 981 379 679 c 0
 379 519 518 224 708 224 c 3
 772 224 814 273 814 328 c 0
 814 510 666 690 549 722 c 2
 500 736 l 1
 536 768 l 2
 608 833 690 916 827 916 c 3
 989 916 1086 656 1086 566 c 0
 1086 294 680 7 508 7 c 0
 298 7 91 215 91 471 c 0
 91 913 665 1306 725 1351 c 1
 750 1371 l 1
EndSplineSet
Validated: 1
EndChar

StartChar: seven
Encoding: 24 55 9
Width: 971
VWidth: 2365
Flags: W
HStem: 977 307<403.016 673>
LayerCount: 2
Fore
SplineSet
650 1284 m 0
 771 1284 892 1304 952 1311 c 1
 1005 1258 l 1
 995 1240 l 1
 834 976 545 561 545 197 c 2
 545 181 l 1
 179 -6 l 1
 673 977 l 1
 558 977 l 2
 230 977 120 1028 71 1086 c 2
 54 1106 l 1
 342 1371 l 1
 363 1354 l 2
 402 1322 478 1284 650 1284 c 0
EndSplineSet
Validated: 1
EndChar

StartChar: eight
Encoding: 25 56 10
Width: 1157
VWidth: 2368
Flags: W
HStem: 4 208<284 591> 1131 226<600 901.5>
VStem: 76 303<163.5 474.5> 117 288<851 1085.5> 703 304<970.5 1241.6> 748 298<330 618.5>
LayerCount: 2
Fore
SplineSet
748 368 m 3xe4
 748 507 605 617 495 646 c 1
 429 582 379 517 379 432 c 3
 379 322 438 212 550 212 c 3
 632 212 748 292 748 368 c 3xe4
512 1156 m 2
 574 1276 750 1357 848 1357 c 0
 955 1357 1007 1268 1007 1176 c 0xd8
 1007 1048 827 879 742 812 c 1
 873 764 1046 700 1046 537 c 0
 1046 352 528 4 363 4 c 0
 205 4 76 95 76 232 c 0xe4
 76 457 273 543 397 661 c 1
 295 700 117 776 117 926 c 0
 117 1077 397 1268 472 1293 c 2
 502 1303 l 1
 530 1232 l 1
 512 1220 l 2
 433 1166 405 1111 405 1060 c 0
 405 958 522 859 649 838 c 1
 687 889 703 947 703 994 c 0xd8
 703 1070 666 1131 605 1131 c 0
 595 1131 577 1129 553 1119 c 2
 478 1089 l 1
 512 1156 l 2
EndSplineSet
Validated: 1
EndChar

StartChar: nine
Encoding: 26 57 11
Width: 1203
VWidth: 2366
Flags: W
HStem: 0 21G<407.829 449> 490 200<263 599> 1155 213<427.5 784>
VStem: 91 270<777.5 1055.5> 796 291<536.5 885.074>
LayerCount: 2
Fore
SplineSet
683 669 m 0
 620 611 506 490 353 490 c 0
 173 490 91 715 91 840 c 0
 91 1073 475 1368 663 1368 c 3
 905 1368 1087 1105 1087 874 c 0
 1087 463 552 74 449 16 c 1
 421 0 l 1
 367 82 l 1
 385 96 l 2
 516 199 796 426 796 647 c 3
 796 871 665 1155 469 1155 c 3
 386 1155 361 1079 361 1032 c 3
 361 916 455 690 578 690 c 0
 620 690 643 716 663 716 c 0
 670 716 677 713 684 706 c 0
 695 695 695 680 683 669 c 0
EndSplineSet
Validated: 1
EndChar

StartChar: backslash
Encoding: 61 92 12
Width: 1276
Flags: W
LayerCount: 2
Fore
SplineSet
115 1480 m 1
 1195 -52 l 1
 963 -52 l 1
 -120 1480 l 1
 115 1480 l 1
EndSplineSet
Validated: 1
EndChar

StartChar: bracketright
Encoding: 62 93 13
Width: 502
Flags: W
HStem: -238 126<-58 154> 1346 126<-58 154>
VStem: 154 242<-112 1346>
LayerCount: 2
Fore
SplineSet
396 1472 m 1
 396 -238 l 1
 -58 -238 l 1
 -58 -112 l 1
 154 -112 l 1
 154 1346 l 1
 -58 1346 l 1
 -58 1472 l 1
 396 1472 l 1
EndSplineSet
Validated: 1
EndChar

StartChar: asciicircum
Encoding: 63 94 14
Width: 787
Flags: W
HStem: 828 620
LayerCount: 2
Fore
SplineSet
737 828 m 1
 534 828 l 1
 342 1241 l 1
 146 824 l 1
 -56 824 l 1
 250 1448 l 1
 434 1448 l 1
 737 828 l 1
EndSplineSet
Validated: 1
EndChar

StartChar: underscore
Encoding: 64 95 15
Width: 1303
Flags: W
HStem: -434 128<58 1262>
LayerCount: 2
Fore
SplineSet
1262 -434 m 1
 58 -434 l 1
 58 -306 l 1
 1262 -306 l 1
 1262 -434 l 1
EndSplineSet
Validated: 1
EndChar

StartChar: grave
Encoding: 65 96 16
Width: 458
Flags: W
HStem: 1105 318
VStem: -73 447
LayerCount: 2
Fore
SplineSet
374 1155 m 1
 269 1105 l 1
 -73 1307 l 1
 105 1423 l 1
 374 1155 l 1
EndSplineSet
Validated: 1
EndChar

StartChar: braceleft
Encoding: 92 123 17
Width: 716
Flags: W
HStem: -244 152<415.952 610> 1320 152<417.824 610>
VStem: 168 226<-73.8066 464.383 763.786 1295.74>
CounterMasks: 1 e0
LayerCount: 2
Fore
SplineSet
498 -92 m 2
 610 -92 l 1
 610 -244 l 1
 412 -244 l 2
 325 -244 168 -167 168 33 c 2
 168 340 l 2
 168 461 77 520 7 531 c 2
 -16 534 l 1
 -16 695 l 1
 7 698 l 2
 77 709 168 766 168 889 c 2
 168 1196 l 2
 168 1396 322 1472 412 1472 c 2
 610 1472 l 1
 610 1320 l 1
 498 1320 l 2
 436 1320 394 1279 394 1161 c 2
 394 866 l 2
 394 800 381 735 332 691 c 0
 300 661 258 633 203 616 c 1
 307 579 394 512 394 362 c 2
 394 68 l 2
 394 -55 435 -92 498 -92 c 2
EndSplineSet
Validated: 1
EndChar

StartChar: bar
Encoding: 93 124 18
Width: 357
Flags: W
VStem: 68 182<-28 1488>
LayerCount: 2
Fore
SplineSet
250 -28 m 1
 68 -28 l 1
 68 1488 l 1
 250 1488 l 1
 250 -28 l 1
EndSplineSet
Validated: 1
EndChar

StartChar: braceright
Encoding: 94 125 19
Width: 631
Flags: W
HStem: -234 132<-56 131.021> 1330 132<-56 132.328>
VStem: 158 208<-77.4448 470.756 761.218 1306.32>
CounterMasks: 1 e0
LayerCount: 2
Fore
SplineSet
527 690 m 2
 550 686 l 1
 550 544 l 1
 527 540 l 2
 454 526 366 464 366 340 c 2
 366 33 l 2
 366 -161 215 -234 131 -234 c 2
 -56 -234 l 1
 -56 -102 l 1
 45 -102 l 2
 92 -102 158 -82 158 68 c 2
 158 362 l 2
 158 426 171 489 218 531 c 0
 250 561 293 589 350 605 c 2
 374 611 l 1
 351 619 l 2
 245 657 158 720 158 866 c 2
 158 1161 l 2
 158 1290 113 1330 45 1330 c 2
 -56 1330 l 1
 -56 1462 l 1
 131 1462 l 2
 212 1462 366 1390 366 1196 c 2
 366 889 l 2
 366 766 454 704 527 690 c 2
EndSplineSet
Validated: 1
EndChar

StartChar: sheva
Encoding: 131 1456 21
Width: 0
VWidth: 2273
GlyphClass: 4
Flags: W
HStem: -588 219<-79.0824 79.0824> -334 219<-79.0824 79.0824>
VStem: -98 196<-571.275 -385.771 -317.275 -131.771>
AnchorPoint: "N2r-1" -200 0 mark 0
AnchorPoint: "TM-1" -171 0 basemark 0
AnchorPoint: "MT-1" 89 0 mark 0
AnchorPoint: "N-1" -50 0 mark 0
LayerCount: 2
Fore
SplineSet
0 -588 m 0
 -60 -588 -98 -537 -98 -479 c 0
 -98 -416 -56 -369 0 -369 c 0
 60 -369 98 -420 98 -479 c 0
 98 -541 56 -588 0 -588 c 0
0 -334 m 0
 -60 -334 -98 -283 -98 -225 c 0
 -98 -162 -56 -115 0 -115 c 0
 60 -115 98 -166 98 -225 c 0
 98 -287 56 -334 0 -334 c 0
EndSplineSet
Validated: 1
EndChar

StartChar: hatafsegol
Encoding: 132 1457 22
Width: 0
VWidth: 2273
GlyphClass: 4
Flags: W
HStem: -587 219<-193.804 -36.6236 156.704 313.443> -333 219<-311.804 -154.918 -75.2956 81.4434 156.704 313.443>
VStem: -330 194<-315.53 -130.771> -212 194<-570.275 -384.771> -94 194<-316.275 -130.771> 138 194<-570.275 -384.771 -316.275 -130.771>
AnchorPoint: "N2r-3" -165 0 mark 0
AnchorPoint: "TM-1" -416 0 basemark 0
AnchorPoint: "MT-1" 339 0 mark 0
AnchorPoint: "N-3" -70 0 mark 0
LayerCount: 2
Fore
SplineSet
235 -587 m 0xc4
 175 -587 138 -536 138 -478 c 0
 138 -415 179 -368 235 -368 c 0
 293 -368 332 -418 332 -478 c 0
 332 -540 291 -587 235 -587 c 0xc4
235 -333 m 0
 175 -333 138 -282 138 -224 c 0
 138 -161 179 -114 235 -114 c 0
 293 -114 332 -164 332 -224 c 0
 332 -286 291 -333 235 -333 c 0
3 -114 m 0
 61 -114 100 -164 100 -224 c 0
 100 -286 59 -333 3 -333 c 0
 -57 -333 -94 -282 -94 -224 c 0xcc
 -94 -161 -53 -114 3 -114 c 0
-116 -368 m 0
 -56 -368 -18 -419 -18 -478 c 0
 -18 -540 -59 -587 -116 -587 c 0
 -174 -587 -212 -537 -212 -478 c 0xd4
 -212 -415 -172 -368 -116 -368 c 0
-234 -114 m 0
 -174 -114 -136 -165 -136 -224 c 0
 -136 -286 -178 -333 -234 -333 c 0
 -292 -333 -330 -283 -330 -224 c 0xe4
 -330 -161 -290 -114 -234 -114 c 0
EndSplineSet
Validated: 1
EndChar

StartChar: hatafpatah
Encoding: 133 1458 23
Width: 0
VWidth: 2273
GlyphClass: 4
Flags: W
HStem: -587 219<122.557 279.443> -333 219<122.557 279.443> -288 149<-290 62>
VStem: 104 194<-570.275 -384.771 -316.275 -130.771>
AnchorPoint: "N2r-3" -170 0 mark 0
AnchorPoint: "TM-1" -397 0 basemark 0
AnchorPoint: "MT-1" 314 0 mark 0
AnchorPoint: "N-3" -70 0 mark 0
LayerCount: 2
Fore
SplineSet
62 -288 m 1xb0
 -290 -288 l 1
 -290 -139 l 1
 62 -139 l 1
 62 -288 l 1xb0
201 -587 m 0
 143 -587 104 -537 104 -478 c 0
 104 -415 145 -368 201 -368 c 0
 261 -368 298 -419 298 -478 c 0
 298 -540 257 -587 201 -587 c 0
201 -333 m 0xd0
 143 -333 104 -283 104 -224 c 0
 104 -161 145 -114 201 -114 c 0
 261 -114 298 -165 298 -224 c 0
 298 -286 257 -333 201 -333 c 0xd0
EndSplineSet
Validated: 1
EndChar

StartChar: hatafqamats
Encoding: 134 1459 24
Width: 0
VWidth: 2273
GlyphClass: 4
Flags: W
HStem: -587 219<116.196 273.082> -333 219<116.196 273.082> -288 149<-296 -170 -74 54>
VStem: -170 96<-450.891 -288> 98 194<-569.53 -384.771 -315.53 -130.771>
AnchorPoint: "N2r-3" -170 0 mark 0
AnchorPoint: "TM-1" -453 0 basemark 0
AnchorPoint: "MT-1" 368 0 mark 0
AnchorPoint: "N-3" -70 0 mark 0
LayerCount: 2
Fore
SplineSet
-170 -298 m 2xb8
 -170 -288 l 1
 -296 -288 l 1
 -296 -139 l 1
 54 -139 l 1
 54 -288 l 1
 -74 -288 l 1
 -74 -294 l 2
 -74 -296 l 0
 -74 -326 -69 -352 -61 -373 c 2
 -21 -472 l 1
 -25 -483 l 2
 -38 -513 -51 -546 -82 -576 c 2
 -87 -581 l 1
 -94 -583 l 2
 -103 -586 -113 -587 -123 -587 c 0
 -132 -587 -142 -586 -151 -583 c 2
 -156 -581 l 1
 -161 -577 l 2
 -193 -550 -207 -514 -217 -481 c 2
 -220 -471 l 1
 -180 -372 l 2
 -174 -358 -170 -306 -170 -298 c 2xb8
194 -587 m 0
 136 -587 98 -537 98 -478 c 0
 98 -415 138 -368 194 -368 c 0
 254 -368 292 -419 292 -478 c 0
 292 -540 250 -587 194 -587 c 0
194 -333 m 0xd8
 136 -333 98 -283 98 -224 c 0
 98 -161 138 -114 194 -114 c 0
 254 -114 292 -165 292 -224 c 0
 292 -286 250 -333 194 -333 c 0xd8
EndSplineSet
Validated: 1
EndChar

StartChar: hiriq
Encoding: 135 1460 25
Width: 0
VWidth: 2273
GlyphClass: 4
Flags: W
HStem: -334 219<-79.0824 79.0824>
VStem: -98 196<-317.275 -131.771>
AnchorPoint: "Y-1" 286 0 mark 0
AnchorPoint: "N2r-1" -200 0.333336 mark 0
AnchorPoint: "TM-1" -171 0.333336 basemark 0
AnchorPoint: "MT-1" 89 0.333336 mark 0
AnchorPoint: "N-1" -50 0.333336 mark 0
LayerCount: 2
Fore
SplineSet
0 -334 m 0
 -60 -334 -98 -283 -98 -225 c 0
 -98 -162 -56 -115 0 -115 c 0
 60 -115 98 -166 98 -225 c 0
 98 -287 56 -334 0 -334 c 0
EndSplineSet
Validated: 1
EndChar

StartChar: tsere
Encoding: 136 1461 26
Width: 0
VWidth: 2273
GlyphClass: 4
Flags: W
HStem: -333 219<-187.082 -28.9176 28.9176 187.082>
VStem: -206 196<-316.275 -130.771> 10 196<-316.275 -130.771>
AnchorPoint: "N2r-2" -180 0 mark 0
AnchorPoint: "TM-1" -315 0 basemark 0
AnchorPoint: "MT-1" 233 0 mark 0
AnchorPoint: "N-2" -80 0 mark 0
LayerCount: 2
Fore
SplineSet
206 -224 m 0
 206 -286 164 -333 108 -333 c 0
 48 -333 10 -282 10 -224 c 0
 10 -161 52 -114 108 -114 c 0
 168 -114 206 -165 206 -224 c 0
-10 -224 m 0
 -10 -286 -52 -333 -108 -333 c 0
 -168 -333 -206 -282 -206 -224 c 0
 -206 -161 -164 -114 -108 -114 c 0
 -48 -114 -10 -165 -10 -224 c 0
EndSplineSet
Validated: 1
EndChar

StartChar: segol
Encoding: 137 1462 27
Width: 0
VWidth: 2273
GlyphClass: 4
Flags: W
HStem: -577 219<-79.0824 79.0824> -333 219<-197.082 -38.9176 38.9176 197.082>
VStem: -216 196<-316.275 -130.771> -98 196<-560.275 -374.771> 20 196<-316.275 -130.771>
AnchorPoint: "N2r-2" -180 0 mark 0
AnchorPoint: "TM-1" -319 0 basemark 0
AnchorPoint: "MT-1" 233 0 mark 0
AnchorPoint: "N-2" -80 0 mark 0
LayerCount: 2
Fore
SplineSet
118 -114 m 0xc8
 178 -114 216 -165 216 -224 c 0
 216 -286 174 -333 118 -333 c 0
 58 -333 20 -282 20 -224 c 0
 20 -161 62 -114 118 -114 c 0xc8
0 -358 m 0
 60 -358 98 -409 98 -468 c 0
 98 -530 56 -577 0 -577 c 0
 -60 -577 -98 -526 -98 -468 c 0xd0
 -98 -405 -56 -358 0 -358 c 0
-118 -114 m 0
 -58 -114 -20 -165 -20 -224 c 0
 -20 -286 -62 -333 -118 -333 c 0
 -178 -333 -216 -282 -216 -224 c 0xe0
 -216 -161 -174 -114 -118 -114 c 0
EndSplineSet
Validated: 1
EndChar

StartChar: patah
Encoding: 138 1463 28
Width: 0
VWidth: 2273
GlyphClass: 4
Flags: W
HStem: -264 149<-176 178>
VStem: -176 354<-264 -115>
AnchorPoint: "N2r-2" -150 0 mark 0
AnchorPoint: "TM-1" -282 0 basemark 0
AnchorPoint: "MT-1" 200 0 mark 0
AnchorPoint: "N-2" -80 0 mark 0
LayerCount: 2
Fore
SplineSet
178 -264 m 1
 -176 -264 l 1
 -176 -115 l 1
 178 -115 l 1
 178 -264 l 1
EndSplineSet
Validated: 1
EndChar

StartChar: qamats
Encoding: 139 1464 29
Width: 0
VWidth: 2273
GlyphClass: 4
Flags: W
HStem: -288 149<-176 -48 48 176>
VStem: -48 96<-456.219 -288>
AnchorPoint: "N2r-2" -175 0 mark 0
AnchorPoint: "TM-1" -300 0 basemark 0
AnchorPoint: "MT-1" 221 0 mark 0
AnchorPoint: "N-2" -80 0 mark 0
LayerCount: 2
Fore
SplineSet
-59 -371 m 1
 -53 -358 -48 -306 -48 -298 c 2
 -48 -288 l 1
 -176 -288 l 1
 -176 -139 l 1
 176 -139 l 1
 176 -288 l 1
 48 -288 l 1
 48 -294 l 2
 48 -295 48 -297 48 -298 c 0
 48 -327 53 -352 60 -373 c 1
 99 -472 l 1
 96 -482 l 2
 85 -513 70 -547 39 -577 c 2
 34 -583 l 1
 26 -584 l 2
 18 -586 8 -587 0 -587 c 0
 -10 -587 -19 -586 -29 -583 c 2
 -34 -581 l 1
 -38 -578 l 2
 -72 -550 -85 -513 -95 -481 c 2
 -98 -472 l 1
 -59 -371 l 1
EndSplineSet
Validated: 1
EndChar

StartChar: holam
Encoding: 140 1465 30
Width: 0
VWidth: 2273
GlyphClass: 4
Flags: W
HStem: 1164 219<-79.0824 79.0824>
VStem: -98 196<1180.72 1366.23>
AnchorPoint: "H-1" 0 0 mark 0
LayerCount: 2
Fore
SplineSet
0 1164 m 0
 -60 1164 -98 1215 -98 1273 c 0
 -98 1336 -56 1383 0 1383 c 0
 60 1383 98 1332 98 1273 c 0
 98 1211 56 1164 0 1164 c 0
EndSplineSet
Validated: 1
EndChar

StartChar: qubuts
Encoding: 142 1467 31
Width: 0
VWidth: 2273
GlyphClass: 4
Flags: W
HStem: -591 214<79.5406 234.459> -457 214<-76.8205 78.0984> -323 214<-234.82 -79.9016>
VStem: -252 190<-306.864 -124.978> -94 190<-440.864 -258.978> 62 190<-574.616 -392.978>
AnchorPoint: "N2r-2" -200 0 mark 0
AnchorPoint: "TM-1" -310 0 basemark 0
AnchorPoint: "MT-1" 225 0 mark 0
AnchorPoint: "N-2" -143 0 mark 0
LayerCount: 2
Fore
SplineSet
-158 -323 m 0x30
 -215 -323 -252 -273 -252 -216 c 0
 -252 -159 -215 -109 -158 -109 c 0
 -101 -109 -62 -159 -62 -216 c 0
 -62 -278 -104 -323 -158 -323 c 0x30
157 -591 m 0x84
 100 -591 62 -541 62 -484 c 0
 62 -427 100 -377 157 -377 c 0
 214 -377 252 -427 252 -484 c 0
 252 -545 212 -591 157 -591 c 0x84
0 -457 m 0x48
 -57 -457 -94 -407 -94 -350 c 0
 -94 -293 -57 -243 0 -243 c 0
 57 -243 96 -293 96 -350 c 0
 96 -412 54 -457 0 -457 c 0x48
EndSplineSet
Validated: 1
EndChar

StartChar: dagesh
Encoding: 143 1468 32
Width: 0
VWidth: 2273
GlyphClass: 4
Flags: W
HStem: 421 196<-74.3945 74.3945>
VStem: -88 176<433.36 604.64>
AnchorPoint: "D-1" -1 0 mark 0
LayerCount: 2
Fore
SplineSet
0 421 m 0
 -54 421 -88 466 -88 519 c 0
 -88 576 -50 617 0 617 c 0
 54 617 88 572 88 519 c 0
 88 462 50 421 0 421 c 0
EndSplineSet
Validated: 1
EndChar

StartChar: maqaf
Encoding: 145 1470 33
Width: 686
GlyphClass: 2
Flags: W
HStem: 800 278<141 516>
VStem: 39 598<895.177 997.201>
LayerCount: 2
Fore
SplineSet
554 1078 m 2
 549 1078 566 1077 570 1076 c 0
 609 1071 637 1044 637 1005 c 0
 637 984 630 967 622 953 c 1
 609 920 574 854 524 808 c 2
 516 800 l 1
 128 800 l 1
 114 802 110 801 99 804 c 0
 75 811 57 827 47 850 c 0
 41 863 39 875 39 887 c 1
 40 900 40 908 46 920 c 0
 47 923 49 925 50 928 c 0
 74 995 109 1034 132 1066 c 2
 141 1078 l 1
 554 1078 l 2
EndSplineSet
Validated: 1
EndChar

StartChar: rafe
Encoding: 146 1471 34
Width: 0
VWidth: 2273
GlyphClass: 4
Flags: W
HStem: 1169 149<-222 222>
VStem: -222 444<1169 1318>
AnchorPoint: "R-1" 0 0 mark 0
LayerCount: 2
Fore
SplineSet
222 1169 m 1
 -222 1169 l 1
 -222 1318 l 1
 222 1318 l 1
 222 1169 l 1
EndSplineSet
Validated: 1
EndChar

StartChar: shindot
Encoding: 148 1473 35
Width: 0
VWidth: 2273
GlyphClass: 4
Flags: W
HStem: 1161 219<-79.0824 79.0824>
VStem: -98 196<1177.72 1363.23>
AnchorPoint: "S-1" -610 0 mark 0
LayerCount: 2
Fore
SplineSet
0 1161 m 0
 -60 1161 -98 1212 -98 1270 c 0
 -98 1333 -56 1380 0 1380 c 0
 60 1380 98 1329 98 1270 c 0
 98 1208 56 1161 0 1161 c 0
EndSplineSet
Validated: 1
EndChar

StartChar: sindot
Encoding: 149 1474 36
Width: 0
VWidth: 2273
GlyphClass: 4
Flags: W
HStem: 1160 219<-78.2956 79.7214>
VStem: -97 196<1177.72 1361.24>
AnchorPoint: "S-1" 100 0 mark 0
LayerCount: 2
Fore
SplineSet
0 1160 m 0
 -60 1160 -97 1211 -97 1269 c 0
 -97 1332 -56 1379 0 1379 c 0
 60 1379 99 1328 99 1269 c 0
 99 1207 56 1160 0 1160 c 0
EndSplineSet
Validated: 1
EndChar

StartChar: sofpasuq
Encoding: 150 1475 37
Width: 545
GlyphClass: 2
Flags: W
VStem: 89 351
LayerCount: 2
Fore
SplineSet
286 324 m 17
 310 236 370 170 440 111 c 9
 251 -16 l 17
 243 -19 234 -21 225 -21 c 0
 169 -21 89 65 89 138 c 0
 89 144 88 151 89 157 c 1
 90 162 93 167 101 179 c 9
 286 324 l 17
286 997 m 17
 310 909 370 843 440 784 c 9
 251 657 l 17
 243 654 234 652 225 652 c 0
 169 652 89 738 89 811 c 0
 89 817 88 824 89 830 c 1
 90 835 93 840 101 852 c 9
 286 997 l 17
EndSplineSet
Validated: 1
EndChar

StartChar: alef
Encoding: 155 1488 38
Width: 1154
VWidth: 2273
GlyphClass: 2
Flags: W
HStem: 0 21G<899 966.5> 60 264<289.066 451>
VStem: 68 163<381.488 622.915> 767 146<666.787 779>
AnchorPoint: "D-1" 620 -475 basechar 0
AnchorPoint: "N2r-3" 535 0 basechar 0
AnchorPoint: "N2r-2" 500 0 basechar 0
AnchorPoint: "N2r-1" 535 0 basechar 0
AnchorPoint: "M2r-3" 550 0 basechar 0
AnchorPoint: "M2r-2" 500 0 basechar 0
AnchorPoint: "M2r-1" 522 0 basechar 0
AnchorPoint: "M-1" 600 0 basechar 0
AnchorPoint: "H-1" 68 0 basechar 0
AnchorPoint: "N-1" 522 14 basechar 0
AnchorPoint: "N-2" 500 0 basechar 0
AnchorPoint: "N-3" 500 0 basechar 0
AnchorPoint: "N-4" 500 0 basechar 0
LayerCount: 2
Fore
SplineSet
104 29 m 1
 113 68 122 101 178 175 c 1
 118 238 68 335 68 419 c 0
 68 599 137 743 212 861 c 1
 125 960 l 1
 310 1182 l 1
 329 1138 l 1
 408 955 552 780 686 627 c 1
 754 682 767 746 767 797 c 0
 767 825 758 875 688 917 c 2
 668 929 l 1
 677 950 l 2
 709 1021 740 1094 796 1174 c 2
 820 1208 l 1
 844 1176 l 1
 901 1101 973 1048 1052 1003 c 2
 1072 992 l 1
 1064 970 l 2
 1020 843 976 802 942 774 c 1
 913 779 l 1
 908 676 879 564 815 493 c 1
 899 398 966 345 1064 267 c 1
 1044 149 1003 42 989 17 c 0
 981 2 970 0 963 0 c 2
 952 0 l 1
 846 97 611 284 371 615 c 0
 360 630 355 651 324 659 c 1
 287 655 231 588 231 483 c 0
 231 377 342 324 403 324 c 0
 423 324 450 330 480 347 c 2
 537 379 l 1
 527 319 l 2
 500 159 481 82 481 82 c 2
 451 60 l 1
 344 60 256 14 166 -37 c 2
 140 -51 l 1
 104 29 l 1
EndSplineSet
Validated: 1
Substitution2: "'jalt' Justification Alternatives in Hebrew subtable" alefwide
EndChar

StartChar: bet
Encoding: 156 1489 39
Width: 1005
VWidth: 2273
GlyphClass: 2
Flags: W
HStem: -70 308<105.344 595.892> 800 252<296.893 647.533>
VStem: 653 194<323.652 792.377>
AnchorPoint: "R-1" 490 0 basechar 0
AnchorPoint: "D-1" 364.25 0 basechar 0
AnchorPoint: "N2r-2" 450 0 basechar 0
AnchorPoint: "N2r-3" 450 0 basechar 0
AnchorPoint: "N2r-1" 450 0 basechar 0
AnchorPoint: "M2r-3" 500 0 basechar 0
AnchorPoint: "M2r-2" 500 0 basechar 0
AnchorPoint: "M2r-1" 450 0 basechar 0
AnchorPoint: "M-1" 526.25 0 basechar 0
AnchorPoint: "H-1" 48 0 basechar 0
AnchorPoint: "N-4" 430 0 basechar 0
AnchorPoint: "N-3" 470.25 0 basechar 0
AnchorPoint: "N-2" 400 0 basechar 0
AnchorPoint: "N-1" 450 0 basechar 0
LayerCount: 2
Fore
SplineSet
498 1052 m 2
 567 1052 613 1054 675 1062 c 1
 677 1062 l 2
 843 1062 847 846 847 678 c 0
 847 670 847 660 847 650 c 2
 847 596 l 2
 847 470 850 398 875 320 c 1
 1004 342 l 1
 998 306 l 2
 974 174 968 110 920 20 c 1
 584 -26 371 -70 76 -70 c 2
 48 -70 l 1
 48 -42 l 2
 48 46 72 150 97 222 c 2
 105 244 l 1
 127 242 l 2
 143 240 162 238 186 238 c 0
 272 238 416 254 653 290 c 1
 653 726 l 2
 653 738 648 782 607 800 c 1
 175 800 l 1
 139 906 l 1
 105 938 l 1
 122 1000 149 1080 212 1138 c 2
 232 1158 l 1
 252 1138 l 2
 285 1102 343 1052 418 1052 c 2
 498 1052 l 2
EndSplineSet
Validated: 1
EndChar

StartChar: gimel
Encoding: 157 1490 40
Width: 696
VWidth: 2273
GlyphClass: 2
Flags: W
HStem: 10 21G<629 640.5>
VStem: 320 164<486.741 781.028>
AnchorPoint: "D-1" 172.5 65 basechar 0
AnchorPoint: "N2r-2" 270 0 basechar 0
AnchorPoint: "N2r-3" 303.5 0 basechar 0
AnchorPoint: "N2r-1" 280 0 basechar 0
AnchorPoint: "M2r-3" 330 0 basechar 0
AnchorPoint: "M2r-2" 300 0 basechar 0
AnchorPoint: "M2r-1" 280 -7 basechar 0
AnchorPoint: "M-1" 348.5 0 basechar 0
AnchorPoint: "H-1" 140 0 basechar 0
AnchorPoint: "R-1" 400 0 basechar 0
AnchorPoint: "N-4" 290 0 basechar 0
AnchorPoint: "N-3" 270 -30 basechar 0
AnchorPoint: "N-2" 250 0 basechar 0
AnchorPoint: "N-1" 280 0 basechar 0
LayerCount: 2
Fore
SplineSet
612 361 m 1
 654 319 660 233 660 168 c 0
 660 98 650 68 631 10 c 1
 629 14 l 1
 596 -27 574 -43 568 -49 c 2
 539 -78 l 1
 523 -49 l 1
 456 122 384 185 331 185 c 0
 243 185 208 98 115 -46 c 1
 95 -74 l 1
 33 0 l 1
 35 242 129 342 359 412 c 1
 339 477 320 574 320 634 c 0
 320 683 324 735 330 778 c 1
 262 789 246 790 153 827 c 1
 147 859 141 890 141 923 c 0
 141 947 144 973 153 999 c 1
 175 1061 214 1098 267 1131 c 1
 305 1157 l 1
 309 1124 l 1
 309 1104 332 1064 361 1051 c 1
 433 1034 572 1019 572 917 c 0
 572 871 519 791 494 748 c 1
 486 725 484 705 484 687 c 0
 484 654 495 613 499 583 c 1
 535 471 551 381 612 361 c 1
EndSplineSet
Validated: 1
EndChar

StartChar: dalet
Encoding: 158 1491 41
Width: 1019
VWidth: 2273
GlyphClass: 2
Flags: W
HStem: 789 263<246.357 615.046>
VStem: 598 198<433.766 774.783> 672 189<102.837 432.936>
AnchorPoint: "D-1" 351 0 basechar 0
AnchorPoint: "N2r-2" 630 0 basechar 0
AnchorPoint: "N2r-3" 600 0 basechar 0
AnchorPoint: "N2r-1" 650 0 basechar 0
AnchorPoint: "M2r-3" 650 0 basechar 0
AnchorPoint: "M2r-2" 634 0 basechar 0
AnchorPoint: "M2r-1" 650 3 basechar 0
AnchorPoint: "M-1" 700 0 basechar 0
AnchorPoint: "H-1" 62 0 basechar 0
AnchorPoint: "R-1" 523 0 basechar 0
AnchorPoint: "N-4" 590 0 basechar 0
AnchorPoint: "N-3" 553 0 basechar 0
AnchorPoint: "N-2" 630 0 basechar 0
AnchorPoint: "N-1" 650 0 basechar 0
LayerCount: 2
Fore
SplineSet
612 489 m 1xa0
 600 534 598 582 598 604 c 2
 598 672 l 2
 598 712 601 752 616 798 c 1
 597 796 491 789 381 789 c 0
 279 789 174 795 129 817 c 1
 96 917 l 1
 62 950 l 1
 81 1021 102 1076 169 1141 c 2
 189 1161 l 1
 209 1141 l 2
 243 1105 244 1072 313 1060 c 1
 407 1052 380 1052 476 1052 c 0
 482 1052 493 1052 506 1052 c 0
 579 1052 748 1053 885 1072 c 1
 914 1021 945 957 945 848 c 2
 945 828 l 1
 924 823 l 2
 847 805 796 733 796 689 c 0xc0
 796 581 861 405 861 268 c 0
 861 163 815 86 750 0 c 1
 732 -27 l 1
 672 17 l 1
 672 189 666 316 612 489 c 1xa0
EndSplineSet
Validated: 1
Substitution2: "'jalt' Justification Alternatives in Hebrew subtable" daletwide
EndChar

StartChar: he
Encoding: 159 1492 42
Width: 1091
VWidth: 2273
GlyphClass: 2
Flags: W
HStem: 802 250<281.234 751.281>
VStem: 124 177<308.516 548.202> 736 189<446.996 812.811> 806 184<108.559 415.087>
AnchorPoint: "D-1" 520 0 basechar 0
AnchorPoint: "N2r-2" 550 0 basechar 0
AnchorPoint: "N2r-3" 550 0 basechar 0
AnchorPoint: "N2r-1" 500 0 basechar 0
AnchorPoint: "M2r-3" 550 0 basechar 0
AnchorPoint: "M2r-2" 550 0 basechar 0
AnchorPoint: "M2r-1" 500 0 basechar 0
AnchorPoint: "M-1" 580 0 basechar 0
AnchorPoint: "H-1" 70 0 basechar 0
AnchorPoint: "N-4" 480 0 basechar 0
AnchorPoint: "N-3" 490 0 basechar 0
AnchorPoint: "N-2" 500 0 basechar 0
AnchorPoint: "N-1" 500 0 basechar 0
LayerCount: 2
Fore
SplineSet
344 762 m 2xc0
 344 762 301 591 301 512 c 0
 301 504 301 496 301 488 c 0
 301 383 308 344 371 280 c 1
 329 166 286 51 255 0 c 2
 242 -22 l 1
 159 19 l 1
 131 174 124 247 124 304 c 0
 124 472 172 609 286 733 c 1
 344 762 l 2xc0
157 820 m 2
 136 820 l 1
 104 943 l 1
 70 976 l 1
 89 1046 111 1099 177 1163 c 2
 197 1182 l 1
 217 1162 l 2
 252 1125 269 1087 341 1074 c 0
 427 1059 517 1052 610 1052 c 0
 744 1052 878 1070 945 1079 c 1
 984 1009 1010 952 1010 865 c 2
 1010 851 l 1
 969 825 925 795 925 710 c 0xe0
 925 601 990 413 990 275 c 0
 990 170 944 91 879 5 c 1
 861 -19 l 1
 806 29 l 1
 806 31 806 34 806 36 c 0xd0
 806 249 736 476 736 667 c 0xe0
 736 724 738 765 755 814 c 1
 674 805 592 802 510 802 c 0
 459 802 216 820 157 820 c 2
EndSplineSet
Validated: 1
Substitution2: "'jalt' Justification Alternatives in Hebrew subtable" hewide
EndChar

StartChar: vav
Encoding: 160 1493 43
Width: 546
VWidth: 2273
GlyphClass: 2
Flags: W
VStem: 285 183<292.93 797.876> 303 165<74 579.657>
AnchorPoint: "D-1" 129 0 basechar 0
AnchorPoint: "H-2" 0 0 basechar 0
AnchorPoint: "N2r-2" 250 0 basechar 0
AnchorPoint: "N2r-3" 300 0 basechar 0
AnchorPoint: "N2r-1" 300 0 basechar 0
AnchorPoint: "M2r-3" 300 0 basechar 0
AnchorPoint: "M2r-2" 300 0 basechar 0
AnchorPoint: "M2r-1" 300 0 basechar 0
AnchorPoint: "M-1" 370 0 basechar 0
AnchorPoint: "H-1" 365 0 basechar 0
AnchorPoint: "N-1" 300 -4 basechar 0
AnchorPoint: "N-2" 270 0 basechar 0
AnchorPoint: "N-3" 200 0 basechar 0
AnchorPoint: "N-4" 280 0 basechar 0
LayerCount: 2
Fore
SplineSet
303 74 m 1x40
 303 151 285 806 285 806 c 1
 282 803 279 802 258 802 c 2
 133 802 l 1
 126 841 111 867 96 916 c 1
 62 950 l 1
 66 978 l 1
 86 1050 119 1100 169 1146 c 1
 189 1166 l 1
 209 1146 l 1
 254 1091 231 1073 320 1052 c 1
 460 1048 468 813 468 650 c 0
 468 627 468 606 468 587 c 2
 468 487 l 2x80
 468 389 466 284 466 214 c 1
 455 166 436 59 382 -12 c 1
 351 -54 l 1
 303 74 l 1x40
EndSplineSet
Validated: 1
EndChar

StartChar: zayin
Encoding: 161 1494 44
Width: 594
VWidth: 2273
GlyphClass: 2
Flags: W
VStem: 109 198<556.752 747.851> 506 13<981 984.875>
AnchorPoint: "D-1" 0 210 basechar 0
AnchorPoint: "N2r-1" 200 0 basechar 0
AnchorPoint: "N2r-2" 264 0 basechar 0
AnchorPoint: "N2r-3" 260 0 basechar 0
AnchorPoint: "M2r-3" 280 0 basechar 0
AnchorPoint: "M2r-2" 281 0 basechar 0
AnchorPoint: "M2r-1" 200 0 basechar 0
AnchorPoint: "M-1" 313 0 basechar 0
AnchorPoint: "H-1" 73 90 basechar 0
AnchorPoint: "N-1" 200 0 basechar 0
AnchorPoint: "N-2" 200 0 basechar 0
AnchorPoint: "N-3" 200 4 basechar 0
AnchorPoint: "N-4" 140 0 basechar 0
LayerCount: 2
Fore
SplineSet
109 551 m 1
 110 663 152 739 187 831 c 1
 113 879 118 870 73 933 c 1
 73 958 l 2
 73 1042 79 1100 127 1201 c 1
 141 1234 l 1
 172 1201 l 1
 296 1076 358 1052 506 981 c 1
 506 986 l 1
 515 962 519 938 519 915 c 0
 519 857 498 800 489 742 c 1
 489 709 l 1
 307 794 l 1
 309 741 319 704 327 660 c 0
 358 487 410 446 410 276 c 0
 410 199 406 188 383 143 c 2
 284 -51 l 1
 267 11 l 1
 231 178 177 338 117 494 c 1
 109 551 l 1
EndSplineSet
Validated: 1
EndChar

StartChar: het
Encoding: 162 1495 45
Width: 1135
VWidth: 2273
GlyphClass: 2
Flags: W
HStem: 804 248<335.521 804.203>
VStem: 136 184<281.382 789.818> 152 197<106.261 692.569> 797 171<484.899 808.698> 844 195<126.328 546.515>
AnchorPoint: "N2r-1" 500 0 basechar 0
AnchorPoint: "N2r-2" 520 10 basechar 0
AnchorPoint: "N2r-3" 520 0 basechar 0
AnchorPoint: "M2r-3" 560 0 basechar 0
AnchorPoint: "M2r-2" 520 0 basechar 0
AnchorPoint: "M2r-1" 500 0 basechar 0
AnchorPoint: "M-1" 610 0 basechar 0
AnchorPoint: "H-1" 64 0 basechar 0
AnchorPoint: "N-1" 500 0 basechar 0
AnchorPoint: "N-2" 450 0 basechar 0
AnchorPoint: "N-3" 500 0 basechar 0
AnchorPoint: "N-4" 480 0 basechar 0
AnchorPoint: "D-1" 550 0 basechar 0
LayerCount: 2
Fore
SplineSet
157 279 m 0xa0
 157 329 157 431 136 528 c 1
 136 594 l 2
 136 676 143 731 179 817 c 1
 171 817 164 818 157 818 c 2
 136 818 l 1
 98 935 l 1
 64 968 l 1
 83 1038 105 1091 171 1155 c 2
 191 1174 l 1
 211 1154 l 2
 239 1125 264 1091 339 1078 c 1
 423 1062 569 1052 659 1052 c 0
 793 1052 893 1064 993 1077 c 1
 1022 1026 1053 962 1053 853 c 2
 1053 839 l 1
 1012 813 968 783 968 698 c 0xd0
 968 589 1039 451 1039 310 c 0
 1039 181 948 27 917 -14 c 1
 899 -39 l 1
 844 11 l 1
 844 164 l 2x88
 844 277 838 389 808 535 c 1
 808 538 l 2
 808 559 797 625 797 646 c 0
 797 674 797 702 797 730 c 0
 797 743 797 753 797 762 c 0
 797 781 800 787 808 816 c 1
 727 808 646 804 565 804 c 0
 511 804 453 812 395 813 c 1
 340 776 320 753 320 698 c 0xd0
 320 583 349 412 349 268 c 0
 349 159 304 94 226 -14 c 2
 208 -38 l 1
 152 11 l 1
 152 24 l 2
 152 134 157 210 157 279 c 0xa0
EndSplineSet
Validated: 1
EndChar

StartChar: tet
Encoding: 163 1496 46
Width: 1132
VWidth: 2273
GlyphClass: 2
Flags: W
HStem: 842 246<624.144 821.518>
VStem: 196 157<470.038 757.484> 870 190<413.739 791.598>
AnchorPoint: "D-1" 594 0 basechar 0
AnchorPoint: "N2r-1" 400 0 basechar 0
AnchorPoint: "N2r-2" 500 0 basechar 0
AnchorPoint: "N2r-3" 500 0 basechar 0
AnchorPoint: "M2r-3" 500 0 basechar 0
AnchorPoint: "M2r-2" 500 0 basechar 0
AnchorPoint: "M2r-1" 400 0 basechar 0
AnchorPoint: "M-1" 609 0 basechar 0
AnchorPoint: "H-1" 70 0 basechar 0
AnchorPoint: "N-1" 400 0 basechar 0
AnchorPoint: "N-2" 440 0 basechar 0
AnchorPoint: "N-3" 545 0 basechar 0
AnchorPoint: "N-4" 545 0 basechar 0
LayerCount: 2
Fore
SplineSet
835 413 m 1
 847 428 870 492 870 591 c 0
 870 720 859 810 749 839 c 0
 746 839 739 842 734 842 c 0
 726 842 l 0
 686 842 621 839 610 755 c 2
 606 725 l 1
 468 756 l 1
 468 776 l 2
 468 951 545 1003 627 1052 c 1
 678 1081 746 1088 786 1088 c 0
 872 1088 948 1043 953 1040 c 0
 1052 970 1060 849 1060 748 c 0
 1060 715 1059 685 1059 658 c 0
 1059 371 974 236 934 180 c 1
 756 23 486 -15 329 -30 c 1
 230 118 179 404 179 644 c 2
 179 646 l 1
 188 687 196 658 196 768 c 1
 71 845 l 1
 89 973 l 1
 70 1012 l 1
 124 1077 146 1116 191 1156 c 1
 229 1192 l 1
 237 1143 l 2
 242 1118 267 1087 313 1050 c 1
 402 1024 435 985 435 917 c 0
 435 855 381 789 355 758 c 1
 354 747 353 735 353 722 c 0
 353 558 457 272 466 250 c 1
 485 249 502 247 518 247 c 0
 582 247 670 264 835 413 c 1
EndSplineSet
Validated: 1
EndChar

StartChar: yod
Encoding: 164 1497 47
Width: 564
VWidth: 2273
GlyphClass: 2
Flags: W
VStem: 285 205<570.982 790.626>
AnchorPoint: "D-1" 140 120 basechar 0
AnchorPoint: "N2r-1" 300 0 basechar 0
AnchorPoint: "N2r-2" 270 0 basechar 0
AnchorPoint: "N2r-3" 270 0 basechar 0
AnchorPoint: "M2r-3" 290 0 basechar 0
AnchorPoint: "M2r-2" 270 0 basechar 0
AnchorPoint: "M2r-1" 280 0 basechar 0
AnchorPoint: "M-1" 400 0 basechar 0
AnchorPoint: "H-1" 61 0 basechar 0
AnchorPoint: "N-1" 300 0 basechar 0
AnchorPoint: "N-2" 250 0 basechar 0
AnchorPoint: "N-3" 240 0 basechar 0
AnchorPoint: "N-4" 200 0 basechar 0
LayerCount: 2
Fore
SplineSet
61 942 m 1
 71 983 97 1091 164 1160 c 1
 184 1153 l 1
 204 1160 l 1
 279 1074 261 1077 338 1052 c 0
 387 1037 383 1045 441 993 c 1
 486 951 490 879 490 816 c 0
 490 724 477 670 402 430 c 1
 393 401 l 1
 285 450 l 1
 285 469 l 2
 285 536 294 595 294 639 c 0
 294 667 298 693 298 716 c 0
 298 756 291 800 153 800 c 2
 135 800 l 1
 94 903 l 1
 61 942 l 1
EndSplineSet
Validated: 1
EndChar

StartChar: finalkaf
Encoding: 165 1498 48
Width: 992
VWidth: 2273
GlyphClass: 2
Flags: W
HStem: 773 279<252.713 640.347>
VStem: 564 233<187.659 707.543> 647 182<-325.795 222.421>
AnchorPoint: "D-1" 360 0 basechar 0
AnchorPoint: "N2r-1" 233 0 basechar 0
AnchorPoint: "N2r-2" 144 0 basechar 0
AnchorPoint: "N2r-3" 100 0 basechar 0
AnchorPoint: "M2r-2" 210 0 basechar 0
AnchorPoint: "M-1" 327 0 basechar 0
AnchorPoint: "H-1" 59 0 basechar 0
AnchorPoint: "R-1" 530 0 basechar 0
AnchorPoint: "N-1" 327 -5 basechar 0
AnchorPoint: "N-2" 220 0 basechar 0
AnchorPoint: "N-3" 170 -5 basechar 0
AnchorPoint: "N-4" 130 -5 basechar 0
LayerCount: 2
Fore
SplineSet
647 -252 m 0xa0
 647 -34 624 75 564 482 c 1
 564 550 l 2
 564 624 609 708 644 785 c 1
 569 777 506 773 423 773 c 2
 421 773 l 1
 264 790 227 807 107 842 c 1
 92 915 l 1
 59 948 l 1
 78 1021 99 1077 166 1144 c 2
 187 1164 l 1
 206 1143 l 2
 221 1126 225 1080 249 1075 c 0
 328 1059 420 1052 516 1052 c 0
 652 1052 755 1064 857 1078 c 1
 885 1025 917 958 917 844 c 2
 917 830 l 1
 852 786 813 749 813 690 c 2
 813 688 l 1
 803 631 797 573 797 496 c 0xc0
 797 324 834 175 834 20 c 0
 834 -12 833 -44 829 -78 c 1
 829 -107 828 -134 825 -160 c 1
 825 -224 817 -299 714 -441 c 2
 696 -465 l 1
 633 -415 l 1
 637 -382 647 -317 647 -252 c 0xa0
EndSplineSet
Validated: 1
EndChar

StartChar: kaf
Encoding: 166 1499 49
Width: 970
VWidth: 2273
GlyphClass: 2
Flags: W
HStem: -33 274<117.375 524.386> 783 276<358.377 661.264>
VStem: 757 176<337.901 599.249>
AnchorPoint: "R-1" 500 0 basechar 0
AnchorPoint: "D-1" 390 0 basechar 0
AnchorPoint: "N2r-1" 425 0 basechar 0
AnchorPoint: "N2r-2" 425 0 basechar 0
AnchorPoint: "N2r-3" 475 0 basechar 0
AnchorPoint: "M2r-3" 475 0 basechar 0
AnchorPoint: "M2r-2" 475 0 basechar 0
AnchorPoint: "M2r-1" 425 0 basechar 0
AnchorPoint: "M-1" 425 0 basechar 0
AnchorPoint: "H-1" 80 0 basechar 0
AnchorPoint: "N-1" 424 0 basechar 0
AnchorPoint: "N-2" 369 0 basechar 0
AnchorPoint: "N-3" 403 0 basechar 0
AnchorPoint: "N-4" 400 0 basechar 0
LayerCount: 2
Fore
SplineSet
847 930 m 1
 883 758 933 577 933 417 c 0
 933 247 873 166 848 134 c 1
 591 -9 334 -33 99 -33 c 2
 66 -33 l 1
 71 0 l 2
 92 123 95 150 135 241 c 1
 153 241 l 2
 359 241 639 252 743 363 c 0
 755 376 757 396 757 411 c 0
 757 458 733 529 719 583 c 1
 682 687 687 771 571 783 c 1
 155 783 l 1
 116 921 l 1
 82 957 l 1
 101 1030 122 1086 189 1153 c 2
 210 1173 l 1
 229 1152 l 2
 257 1122 272 1088 356 1062 c 1
 407 1055 439 1052 488 1052 c 0
 548 1052 607 1059 663 1059 c 0
 729 1059 817 1048 847 930 c 1
EndSplineSet
Validated: 1
Substitution2: "'jalt' Justification Alternatives in Hebrew subtable" kafwide
EndChar

StartChar: lamed
Encoding: 167 1500 50
Width: 976
VWidth: 2273
GlyphClass: 2
Flags: W
HStem: 764 286<234.281 666.906>
VStem: 14 256<1417.63 1538.8> 63 152<917.5 1314.81> 124 146<1244.23 1413> 429 257<66.5373 253>
AnchorPoint: "Y-1" 78 0 basechar 0
AnchorPoint: "D-1" 380 30 basechar 0
AnchorPoint: "N2r-1" 500 0 basechar 0
AnchorPoint: "N2r-2" 513 0 basechar 0
AnchorPoint: "N2r-3" 513 0 basechar 0
AnchorPoint: "M2r-3" 530 0 basechar 0
AnchorPoint: "M2r-2" 530 0 basechar 0
AnchorPoint: "M2r-1" 500 0 basechar 0
AnchorPoint: "M-1" 583 0 basechar 0
AnchorPoint: "H-1" -50 -14 basechar 0
AnchorPoint: "N-1" 500 0 basechar 0
AnchorPoint: "N-2" 490 0 basechar 0
AnchorPoint: "N-3" 470 0 basechar 0
AnchorPoint: "N-4" 450 0 basechar 0
LayerCount: 2
Fore
SplineSet
634 282 m 0xa8
 632 278 634 274 637 271 c 0
 645 264 662 260 665 259 c 2
 686 253 l 1
 686 233 l 2
 686 141 638 51 600 -7 c 1
 586 -32 l 1
 559 -20 l 1
 483 14 444 77 435 108 c 0
 432 117 429 140 429 163 c 0
 429 169 429 175 429 181 c 0
 444 381 568 313 673 683 c 1
 673 742 635 764 625 764 c 2
 214 764 l 2
 120 764 63 848 63 987 c 0xa8
 63 1286 124 1304 124 1399 c 1
 124 1399 126 1408 124 1413 c 1x98
 113 1413 98 1410 82 1406 c 1
 78 1406 l 1
 26 1412 14 1439 14 1463 c 0xc8
 14 1479 20 1492 26 1502 c 1
 167 1659 l 1
 170 1661 184 1669 200 1669 c 0
 256 1669 270 1623 270 1549 c 0x98
 270 1417 215 1249 215 1141 c 0
 215 1107 220 1079 234 1060 c 0
 240 1051 245 1050 250 1050 c 1
 746 1052 l 1
 761 1049 l 1
 793 1039 806 1030 834 1004 c 1
 876 956 906 888 906 806 c 2
 906 802 l 1
 856 636 707 434 634 282 c 0xa8
EndSplineSet
Validated: 1
Substitution2: "'jalt' Justification Alternatives in Hebrew subtable" lamedwide
EndChar

StartChar: finalmem
Encoding: 168 1501 51
Width: 1120
VWidth: 2273
GlyphClass: 2
Flags: W
HStem: 827 225<336.942 834.59>
VStem: 173 146<368.255 807.555> 875 166<379.694 781.534>
AnchorPoint: "N2r-1" 500 10 basechar 0
AnchorPoint: "N2r-2" 590 10 basechar 0
AnchorPoint: "N2r-3" 590 0 basechar 0
AnchorPoint: "M2r-3" 590 0 basechar 0
AnchorPoint: "M2r-2" 590 0 basechar 0
AnchorPoint: "M2r-1" 500 0 basechar 0
AnchorPoint: "M-1" 657 0 basechar 0
AnchorPoint: "H-1" 60 0 basechar 0
AnchorPoint: "N-1" 500 0 basechar 0
AnchorPoint: "N-2" 500 0 basechar 0
AnchorPoint: "N-3" 581 0 basechar 0
AnchorPoint: "N-4" 550 0 basechar 0
AnchorPoint: "D-1" 590 4 basechar 0
LayerCount: 2
Fore
SplineSet
441 222 m 0
 473 222 438 231 875 339 c 1
 875 470 l 2
 875 642 842 774 836 782 c 0
 807 814 708 827 588 827 c 0
 507 827 417 821 333 810 c 1
 320 764 319 730 319 674 c 0
 319 472 393 272 393 272 c 0
 397 246 412 222 441 222 c 0
124 821 m 1
 93 953 l 1
 60 985 l 1
 79 1055 101 1108 167 1172 c 1
 187 1192 l 1
 207 1171 l 1
 240 1136 258 1086 329 1074 c 1
 401 1057 474 1052 548 1052 c 0
 652 1052 759 1063 864 1063 c 0
 990 1063 988 980 999 924 c 1
 1032 723 1041 588 1041 413 c 1
 1046 397 1048 394 1069 379 c 1
 1076 358 1082 336 1082 307 c 0
 1082 256 1068 233 1051 161 c 1
 341 -48 l 1
 336 -48 l 2
 242 -48 213 9 213 141 c 1
 185 296 173 434 173 548 c 0
 173 662 185 752 208 810 c 1
 206 810 l 2
 171 810 152 821 146 821 c 2
 124 821 l 1
EndSplineSet
Validated: 1
Substitution2: "'jalt' Justification Alternatives in Hebrew subtable" finalmemwide
EndChar

StartChar: mem
Encoding: 169 1502 52
Width: 1076
VWidth: 2273
GlyphClass: 2
Flags: W
VStem: 833 178<291.586 733.758>
AnchorPoint: "D-1" 610 0 basechar 0
AnchorPoint: "N2r-1" 500 0 basechar 0
AnchorPoint: "N2r-2" 550 0 basechar 0
AnchorPoint: "N2r-3" 550 0 basechar 0
AnchorPoint: "M2r-3" 550 0 basechar 0
AnchorPoint: "M2r-2" 550 0 basechar 0
AnchorPoint: "M2r-1" 500 0 basechar 0
AnchorPoint: "M-1" 578 0 basechar 0
AnchorPoint: "H-1" 100 0 basechar 0
AnchorPoint: "N-1" 500 0 basechar 0
AnchorPoint: "N-2" 500 0 basechar 0
AnchorPoint: "N-3" 528 0 basechar 0
AnchorPoint: "N-4" 460 0 basechar 0
LayerCount: 2
Fore
SplineSet
118 938 m 1
 115 939 108 952 108 963 c 2
 108 971 l 1
 147 1050 166 1076 217 1125 c 2
 248 1156 l 1
 263 1115 l 2
 284 1053 275 1043 411 961 c 0
 430 951 440 935 446 914 c 1
 600 1032 737 1078 772 1093 c 1
 778 1093 l 2
 999 1093 1011 705 1011 477 c 0
 1011 449 1011 424 1011 402 c 2
 1011 267 l 2
 1011 -22 551 -10 247 -42 c 1
 228 -6 218 17 218 56 c 0
 218 125 259 196 276 228 c 1
 292 228 l 2
 431 228 578 232 729 261 c 1
 795 280 833 321 833 418 c 2
 833 466 l 2
 833 530 831 623 811 686 c 1
 797 727 780 761 747 789 c 1
 403 701 373 512 251 243 c 1
 229 222 207 195 126 154 c 2
 86 134 l 1
 86 178 l 2
 86 371 268 701 268 734 c 0
 268 757 248 818 120 846 c 2
 92 852 l 1
 118 938 l 1
EndSplineSet
Validated: 1
EndChar

StartChar: finalnun
Encoding: 170 1503 53
Width: 548
VWidth: 2273
GlyphClass: 2
Flags: W
VStem: 158 198<244.376 701.109> 248 199<-192.823 197.559>
AnchorPoint: "N2r-1" -117 0 basechar 0
AnchorPoint: "N2r-2" -205 0 basechar 0
AnchorPoint: "N2r-3" -320 0 basechar 0
AnchorPoint: "M-1" 17 0 basechar 0
AnchorPoint: "H-1" 69 0 basechar 0
AnchorPoint: "N-1" -31 0 basechar 0
AnchorPoint: "N-2" -100 -100 basechar 0
AnchorPoint: "N-3" -250 0 basechar 0
AnchorPoint: "N-4" -280 0 basechar 0
AnchorPoint: "D-1" -17 0 basechar 0
LayerCount: 2
Fore
SplineSet
356 505 m 0x80
 356 268 447 202 447 -15 c 0
 447 -71 413 -221 315 -342 c 1
 296 -366 l 1
 311 -341 l 1
 299 -351 267 -385 260 -399 c 2
 209 -486 l 1
 209 -395 l 2
 210 -382 209 -388 210 -383 c 0
 215 -349 211 -379 211 -379 c 1
 218 -346 248 -273 248 -183 c 0x40
 248 -83 222 80 214 147 c 1
 191 276 158 356 158 498 c 0x80
 158 603 172 680 224 761 c 1
 183 792 105 848 77 868 c 1
 69 910 l 1
 104 994 l 1
 89 1026 l 1
 95 1047 118 1116 211 1174 c 1
 248 1199 l 1x40
 254 1174 l 1
 260 1130 270 1088 304 1055 c 1
 373 1011 329 1037 413 994 c 1
 453 977 464 945 464 926 c 2
 464 919 l 1
 448 833 425 768 362 702 c 1
 359 683 358 664 358 642 c 0
 358 601 356 551 356 505 c 0x80
EndSplineSet
Validated: 1
EndChar

StartChar: nun
Encoding: 171 1504 54
Width: 620
VWidth: 2273
GlyphClass: 2
Flags: W
VStem: 47 531
AnchorPoint: "D-1" 173 0 basechar 0
AnchorPoint: "N2r-1" 270 0 basechar 0
AnchorPoint: "N2r-2" 308 0 basechar 0
AnchorPoint: "N2r-3" 250 0 basechar 0
AnchorPoint: "M2r-3" 300 0 basechar 0
AnchorPoint: "M2r-2" 308 0 basechar 0
AnchorPoint: "M2r-1" 300 0 basechar 0
AnchorPoint: "M-1" 350 0 basechar 0
AnchorPoint: "H-1" 139 0 basechar 0
AnchorPoint: "N-1" 300 0 basechar 0
AnchorPoint: "N-2" 200 0 basechar 0
AnchorPoint: "N-3" 220 0 basechar 0
AnchorPoint: "N-4" 250 0 basechar 0
LayerCount: 2
Fore
SplineSet
578 235 m 1
 554 124 539 103 531 92 c 1
 384 3 237 -10 106 -36 c 1
 85 -41 l 1
 76 -22 l 2
 59 13 47 49 47 89 c 0
 47 150 76 195 112 238 c 1
 124 238 l 2
 196 238 266 254 338 293 c 1
 323 396 l 1
 306 533 326 639 289 802 c 1
 233 848 208 858 147 886 c 2
 126 896 l 1
 154 978 l 1
 139 1010 l 1
 146 1027 170 1101 266 1163 c 2
 302 1187 l 1
 309 1146 l 2
 314 1116 319 1107 357 1077 c 1
 450 1023 495 967 507 932 c 1
 509 919 l 1
 496 852 474 845 474 809 c 2
 474 807 l 1
 470 777 468 754 468 731 c 0
 468 572 547 381 578 235 c 1
EndSplineSet
Validated: 1
EndChar

StartChar: samekh
Encoding: 172 1505 55
Width: 1041
VWidth: 2273
GlyphClass: 2
Flags: W
HStem: 791 261<317.52 726.218>
VStem: 140 157<402.969 767.344> 855 142<408.467 663.719>
AnchorPoint: "D-1" 546 0 basechar 0
AnchorPoint: "N2r-1" 430 0 basechar 0
AnchorPoint: "N2r-2" 520 0 basechar 0
AnchorPoint: "N2r-3" 520 0 basechar 0
AnchorPoint: "M2r-3" 520 0 basechar 0
AnchorPoint: "M2r-2" 520 0 basechar 0
AnchorPoint: "M2r-1" 430 0 basechar 0
AnchorPoint: "M-1" 559 0 basechar 0
AnchorPoint: "H-1" 61 0 basechar 0
AnchorPoint: "N-1" 430 0 basechar 0
AnchorPoint: "N-2" 441 0 basechar 0
AnchorPoint: "N-3" 516 0 basechar 0
AnchorPoint: "N-4" 516 0 basechar 0
LayerCount: 2
Fore
SplineSet
855 483 m 1
 853 612 766 781 732 807 c 1
 609 792 463 791 342 791 c 1
 315 770 297 698 297 681 c 0
 297 670 l 0
 297 524 299 414 458 223 c 1
 629 229 793 343 855 483 c 1
140 584 m 0
 140 721 161 730 220 821 c 1
 186 827 162 833 112 848 c 1
 94 934 l 1
 61 967 l 1
 80 1040 103 1063 170 1130 c 2
 200 1160 l 1
 215 1120 l 2
 239 1058 300 1052 456 1052 c 0
 602 1052 768 1066 822 1066 c 2
 837 1066 l 1
 928 932 997 832 997 574 c 0
 997 397 969 363 924 234 c 1
 811 85 654 41 470 -39 c 1
 402 -29 l 1
 271 100 140 337 140 584 c 0
EndSplineSet
Validated: 1
EndChar

StartChar: ayin
Encoding: 173 1506 56
Width: 1086
VWidth: 2273
GlyphClass: 2
Flags: W
VStem: 201 167<614.101 759.923>
AnchorPoint: "N2r-1" 435 0 basechar 0
AnchorPoint: "N2r-2" 520 0 basechar 0
AnchorPoint: "N2r-3" 520 0 basechar 0
AnchorPoint: "M2r-3" 520 0 basechar 0
AnchorPoint: "M2r-2" 520 -3 basechar 0
AnchorPoint: "M2r-1" 435 0 basechar 0
AnchorPoint: "M-1" 572 0 basechar 0
AnchorPoint: "H-1" 84 0 basechar 0
AnchorPoint: "N-1" 437 0 basechar 0
AnchorPoint: "N-2" 437 0 basechar 0
AnchorPoint: "N-3" 490 0 basechar 0
AnchorPoint: "N-4" 579 0 basechar 0
AnchorPoint: "D-1" 540 120 basechar 0
LayerCount: 2
Fore
SplineSet
210 761 m 1
 184 768 135 770 84 840 c 1
 84 865 l 2
 84 945 95 1039 158 1117 c 1
 175 1135 l 1
 197 1117 l 1
 263 1062 343 1019 443 985 c 1
 476 974 l 1
 460 959 l 1
 410 876 380 816 368 778 c 1
 370 601 521 480 521 348 c 1
 636 422 720 604 755 793 c 1
 705 809 627 823 586 889 c 1
 584 905 575 921 575 969 c 0
 575 1036 615 1105 693 1149 c 1
 719 1166 l 1
 737 1149 l 1
 814 1040 902 1028 992 981 c 1
 1014 970 l 1
 936 796 l 1
 902 782 l 1
 895 201 539 30 146 -123 c 1
 115 -137 l 1
 101 -107 88 -12 88 32 c 0
 88 80 94 127 115 171 c 1
 122 198 l 1
 189 207 297 217 385 273 c 1
 325 392 201 556 201 694 c 0
 201 716 204 738 210 761 c 1
EndSplineSet
Validated: 1
Substitution2: "'salt' Stylistic Alternatives in Hebrew subtable" ayinalt
Substitution2: "Ayin to Alt.Ayin change-1" ayinalt
EndChar

StartChar: finalpe
Encoding: 174 1507 57
Width: 963
VWidth: 2273
GlyphClass: 2
Flags: W
HStem: 365 274<217 382.444>
VStem: 73 355<400.441 621.732> 83 141<647.048 844.096> 712 192<-297.618 695.596> 756 150<-344.756 226.119>
AnchorPoint: "D-1" 550 0 basechar 0
AnchorPoint: "N2r-1" 350 0 basechar 0
AnchorPoint: "N2r-2" 280 0 basechar 0
AnchorPoint: "N2r-3" 200 0 basechar 0
AnchorPoint: "M2r-2" 300 0 basechar 0
AnchorPoint: "M-1" 478 0 basechar 0
AnchorPoint: "H-1" 150 0 basechar 0
AnchorPoint: "R-1" 600 0 basechar 0
AnchorPoint: "N-4" 220 1 basechar 0
AnchorPoint: "N-3" 300 1 basechar 0
AnchorPoint: "N-2" 320 1 basechar 0
AnchorPoint: "N-1" 500 1 basechar 0
LayerCount: 2
Fore
SplineSet
365 1159 m 2xa0
 387 1103 427 1082 476 1050 c 1
 571 1013 720 1019 798 938 c 1
 888 849 904 605 904 171 c 0xb0
 904 41 906 -107 906 -227 c 2
 906 -229 l 1
 892 -327 858 -368 785 -390 c 2
 744 -400 l 1
 750 -357 l 2
 755 -326 756 -310 756 -289 c 2
 756 -249 l 2x88
 756 -110 712 45 712 235 c 0
 712 276 718 315 718 354 c 0
 718 696 662 737 621 768 c 0
 528 837 448 866 334 866 c 1
 246 854 235 813 224 768 c 1xb0
 225 709 240 639 298 639 c 0
 310 639 332 642 365 654 c 2
 399 667 l 1
 409 637 l 2
 421 605 428 574 428 542 c 0
 428 482 407 437 378 392 c 1
 335 379 289 365 238 365 c 0
 196 365 162 374 133 386 c 1
 101 401 l 1
 121 395 l 1
 120 397 73 463 73 536 c 0xc0
 73 566 80 596 100 623 c 1
 92 657 83 692 83 731 c 0
 83 805 117 865 179 918 c 1
 157 973 l 1
 191 1061 236 1152 325 1176 c 1
 356 1183 l 1
 365 1159 l 2xa0
EndSplineSet
Validated: 1
EndChar

StartChar: pe
Encoding: 175 1508 58
Width: 1013
VWidth: 2273
GlyphClass: 2
Flags: W
HStem: -35 268<106.785 605.559> 363 252<275.906 391.945>
VStem: 75 383<425.255 609.587> 96 163<629.875 832.453> 788 173<313.296 693.297>
AnchorPoint: "R-1" 620 0 basechar 0
AnchorPoint: "D-1" 600 -22 basechar 0
AnchorPoint: "N2r-1" 450 0 basechar 0
AnchorPoint: "N2r-2" 500 0 basechar 0
AnchorPoint: "N2r-3" 500 0 basechar 0
AnchorPoint: "M2r-3" 500 0 basechar 0
AnchorPoint: "M2r-2" 500 0 basechar 0
AnchorPoint: "M2r-1" 450 0 basechar 0
AnchorPoint: "M-1" 424 0 basechar 0
AnchorPoint: "H-1" 165 0 basechar 0
AnchorPoint: "N-4" 400 0 basechar 0
AnchorPoint: "N-3" 468 0 basechar 0
AnchorPoint: "N-2" 400 0 basechar 0
AnchorPoint: "N-1" 450 0 basechar 0
LayerCount: 2
Fore
SplineSet
339 1189 m 0xd8
 357 1189 363 1185 384 1176 c 1
 384 1159 l 2
 384 1032 715 1083 832 999 c 1
 946 902 961 616 961 541 c 0
 961 402 952 280 928 156 c 0
 917 98 892 80 866 43 c 1
 728 -9 474 -35 89 -35 c 2
 61 -35 l 1
 61 -7 l 2
 61 137 117 209 135 233 c 1
 149 233 l 2
 376 233 621 265 788 325 c 1
 787 587 752 725 697 768 c 1
 614 830 549 847 367 847 c 0
 295 847 259 809 259 744 c 1xd8
 260 697 274 642 284 635 c 0
 304 621 327 615 343 615 c 0
 363 615 379 620 398 634 c 2
 437 663 l 1
 449 619 l 2
 456 596 458 572 458 549 c 0
 458 488 414 428 382 371 c 1
 348 366 314 363 279 363 c 0
 246 363 213 366 178 371 c 1
 113 398 75 414 75 497 c 0xe8
 75 542 94 581 113 611 c 1
 99 660 96 694 96 715 c 0
 96 815 145 868 196 917 c 1
 176 961 l 1
 176 974 l 1
 180 1042 257 1189 339 1189 c 0xd8
EndSplineSet
Validated: 1
EndChar

StartChar: finaltsadi
Encoding: 176 1509 59
Width: 1015
VWidth: 2273
GlyphClass: 2
Flags: W
VStem: 223 153<624.849 752.812> 333 195<-268.364 254.284>
AnchorPoint: "N2r-1" 660 0 basechar 0
AnchorPoint: "N2r-2" 864 0 basechar 0
AnchorPoint: "N2r-3" 980 0 basechar 0
AnchorPoint: "M2r-3" 900 0 basechar 0
AnchorPoint: "M2r-2" 855 0 basechar 0
AnchorPoint: "M2r-1" 660 0 basechar 0
AnchorPoint: "M-1" 737 0 basechar 0
AnchorPoint: "H-1" 64 0 basechar 0
AnchorPoint: "N-4" 870 0 basechar 0
AnchorPoint: "N-3" 800 0 basechar 0
AnchorPoint: "N-2" 700 0 basechar 0
AnchorPoint: "N-1" 600 0 basechar 0
AnchorPoint: "D-1" 100 0 basechar 0
LayerCount: 2
Fore
SplineSet
471 430 m 0x80
 471 305 501 251 528 104 c 1
 528 98 l 2
 528 52 538 9 538 -35 c 0
 538 -142 498 -316 378 -394 c 1
 318 -435 l 1
 326 -390 l 1
 331 -354 333 -315 333 -278 c 0x40
 333 -9 314 178 290 287 c 1
 250 437 224 615 223 785 c 1
 133 841 113 855 64 920 c 1
 68 942 l 1
 89 1011 101 1065 182 1159 c 1
 209 1191 l 1
 228 1159 l 1
 260 1095 405 1098 486 971 c 1
 484 970 l 1
 455 844 422 814 394 761 c 1
 377 753 l 1
 376 749 376 744 376 731 c 2
 376 699 l 2
 376 667 378 642 383 624 c 1
 419 694 485 775 579 828 c 1
 518 899 l 1
 521 923 l 1
 579 1130 673 1136 723 1144 c 1
 733 1141 l 1
 784 1063 839 979 917 947 c 1
 944 938 l 1
 932 925 l 1
 892 840 907 847 832 730 c 1
 817 730 l 2
 802 730 774 748 772 748 c 0
 757 748 745 750 733 750 c 0
 724 750 627 729 559 639 c 0
 503 565 471 517 471 430 c 0x80
EndSplineSet
Validated: 1
EndChar

StartChar: tsadi
Encoding: 177 1510 60
Width: 1052
VWidth: 2273
GlyphClass: 2
Flags: W
AnchorPoint: "D-1" 250 -144 basechar 0
AnchorPoint: "N2r-1" 408 0 basechar 0
AnchorPoint: "N2r-2" 400 0 basechar 0
AnchorPoint: "N2r-3" 450 0 basechar 0
AnchorPoint: "M2r-3" 460 0 basechar 0
AnchorPoint: "M2r-2" 460 0 basechar 0
AnchorPoint: "M2r-1" 408 0 basechar 0
AnchorPoint: "M-1" 463 0 basechar 0
AnchorPoint: "H-1" 91 0 basechar 0
AnchorPoint: "N-4" 380 0 basechar 0
AnchorPoint: "N-3" 360 0 basechar 0
AnchorPoint: "N-2" 350 0 basechar 0
AnchorPoint: "N-1" 408 0 basechar 0
LayerCount: 2
Fore
SplineSet
625 504 m 1
 661 479 839 344 839 216 c 2
 839 214 l 1
 816 43 590 23 450 0 c 1
 280 -24 242 -23 106 -40 c 2
 68 -44 l 1
 75 -7 l 2
 96 98 98 93 146 213 c 1
 164 213 l 2
 194 213 247 221 282 221 c 0
 395 221 484 238 573 268 c 1
 492 347 l 2
 437 400 400 421 358 481 c 1
 260 629 243 717 243 776 c 2
 243 787 l 1
 184 811 145 841 95 911 c 1
 93 924 l 1
 91 934 l 1
 94 948 140 1151 208 1178 c 2
 234 1188 l 1
 244 1163 l 2
 275 1085 363 1036 450 1012 c 2
 475 1005 l 1
 472 983 l 2
 465 921 422 813 422 790 c 2
 422 755 l 1
 382 763 l 1
 387 706 426 652 481 614 c 1
 511 693 567 792 627 854 c 1
 612 863 593 874 561 916 c 2
 549 930 l 1
 563 945 l 2
 596 982 616 1063 727 1149 c 1
 750 1168 l 1
 768 1146 l 2
 829 1068 880 1040 983 942 c 1
 957 885 896 775 884 758 c 0
 875 746 865 745 860 745 c 0
 827 745 810 759 791 768 c 1
 643 688 663 665 625 585 c 1
 617 563 614 546 614 534 c 0
 614 522 617 513 625 504 c 1
EndSplineSet
Validated: 1
EndChar

StartChar: qof
Encoding: 178 1511 61
Width: 1028
VWidth: 2273
GlyphClass: 2
Flags: W
HStem: 793 260<344.428 761.386>
VStem: 199 140<592.824 774.594> 227 228<-235.944 219.847>
AnchorPoint: "D-1" 530 75 basechar 0
AnchorPoint: "N2r-1" 600 0 basechar 0
AnchorPoint: "N2r-2" 750 0 basechar 0
AnchorPoint: "N2r-3" 790 0 basechar 0
AnchorPoint: "M2r-3" 750 0 basechar 0
AnchorPoint: "M2r-2" 750 0 basechar 0
AnchorPoint: "M2r-1" 600 0 basechar 0
AnchorPoint: "M-1" 594 0 basechar 0
AnchorPoint: "H-1" 69 0 basechar 0
AnchorPoint: "N-4" 800 0 basechar 0
AnchorPoint: "N-3" 700 0 basechar 0
AnchorPoint: "N-2" 600 0 basechar 0
AnchorPoint: "N-1" 554 0 basechar 0
LayerCount: 2
Fore
SplineSet
251 793 m 1xc0
 156 819 130 826 69 874 c 1
 69 887 l 2
 69 1027 84 1075 150 1152 c 2
 178 1187 l 1
 196 1145 l 2
 225 1075 359 1053 494 1053 c 2
 545 1053 l 2
 655 1053 753 1062 875 1079 c 1
 953 947 963 768 963 685 c 0
 963 566 955 504 922 422 c 1
 817 384 711 329 570 116 c 2
 558 97 l 1
 534 103 l 1
 502 117 475 146 475 208 c 0
 475 274 528 330 559 372 c 1
 818 621 l 1
 805 697 770 745 733 793 c 1
 621 792 454 787 339 771 c 1xc0
 360 510 l 2
 379 275 455 135 455 -90 c 0
 455 -252 307 -354 251 -407 c 2
 190 -466 l 1
 205 -382 l 2
 223 -289 227 -197 227 -82 c 0xa0
 227 155 199 420 199 644 c 0
 199 709 225 749 251 793 c 1xc0
EndSplineSet
Validated: 1
EndChar

StartChar: resh
Encoding: 179 1512 62
Width: 1021
VWidth: 2273
GlyphClass: 2
Flags: W
HStem: 783 267<242.66 721.836>
VStem: 790 159<93.8262 648.21>
AnchorPoint: "D-1" 450 0 basechar 0
AnchorPoint: "N2r-1" 730 0 basechar 0
AnchorPoint: "N2r-2" 710 0 basechar 0
AnchorPoint: "N2r-3" 690 0 basechar 0
AnchorPoint: "M2r-3" 705 0 basechar 0
AnchorPoint: "M2r-2" 705 0 basechar 0
AnchorPoint: "M2r-1" 730 0 basechar 0
AnchorPoint: "M-1" 800 0 basechar 0
AnchorPoint: "H-1" 64 0 basechar 0
AnchorPoint: "N-4" 600 -1 basechar 0
AnchorPoint: "N-3" 681 -1 basechar 0
AnchorPoint: "N-2" 700 -1 basechar 0
AnchorPoint: "N-1" 730 -1 basechar 0
LayerCount: 2
Fore
SplineSet
745 655 m 0
 735 702 721 766 689 783 c 1
 128 783 l 1
 98 881 l 1
 64 917 l 1
 75 958 102 1063 170 1131 c 2
 190 1151 l 1
 210 1130 l 2
 238 1099 262 1064 336 1050 c 1
 758 1050 l 2
 930 1050 949 796 949 589 c 2
 949 393 l 2
 949 113 870 2 816 -39 c 1
 731 -5 l 1
 753 52 l 2
 775 110 790 176 790 253 c 0
 790 388 780 483 745 655 c 0
EndSplineSet
Validated: 1
Substitution2: "'jalt' Justification Alternatives in Hebrew subtable" reshwide
EndChar

StartChar: shin
Encoding: 180 1513 63
Width: 1406
VWidth: 2273
GlyphClass: 2
Flags: W
VStem: 176 137<542.461 791.921>
AnchorPoint: "S-1" 518 0 basechar 0
AnchorPoint: "D-1" 760 0 basechar 0
AnchorPoint: "N2r-1" 400 0 basechar 0
AnchorPoint: "N2r-2" 530 0 basechar 0
AnchorPoint: "N2r-3" 530 0 basechar 0
AnchorPoint: "M2r-3" 530 0 basechar 0
AnchorPoint: "M2r-2" 528 0 basechar 0
AnchorPoint: "M2r-1" 400 0 basechar 0
AnchorPoint: "M-1" 450 0 basechar 0
AnchorPoint: "H-1" 50 100 basechar 0
AnchorPoint: "N-4" 490 0 basechar 0
AnchorPoint: "N-3" 545 0 basechar 0
AnchorPoint: "N-2" 400 0 basechar 0
AnchorPoint: "N-1" 400 0 basechar 0
LayerCount: 2
Fore
SplineSet
439 293 m 1
 495 586 466 603 607 826 c 1
 508 886 l 1
 515 921 l 1
 546 1008 551 1041 685 1138 c 1
 733 1175 l 1
 733 1138 l 2
 733 1077 799 1032 927 922 c 1
 923 919 l 1
 912 881 876 799 844 763 c 1
 829 747 l 1
 807 756 l 2
 795 761 793 763 769 745 c 0
 730 717 686 672 669 602 c 1
 582 272 l 1
 595 272 608 271 620 271 c 0
 718 271 814 356 857 423 c 1
 1065 810 l 1
 964 905 l 1
 971 930 l 1
 1004 999 1008 1069 1116 1135 c 1
 1132 1135 l 2
 1137 1134 1156 1134 1157 1133 c 1
 1159 1126 1169 1041 1188 1025 c 1
 1333 904 l 1
 1328 901 l 1
 1300 800 1283 789 1222 711 c 1
 1209 711 l 2
 1180 711 1142 679 1130 642 c 1
 1000 280 l 1
 943 252 l 1
 804 158 645 43 498 -6 c 1
 476 -17 457 -18 446 -18 c 0
 347 -18 325 26 319 44 c 1
 176 598 l 1
 176 637 l 2
 177 780 201 737 201 805 c 0
 201 808 200 811 195 814 c 2
 67 905 l 1
 72 938 l 1
 79 961 98 1097 225 1182 c 1
 268 1213 l 1
 268 1182 l 2
 268 1139 286 1103 292 1094 c 1
 450 974 l 1
 456 968 l 1
 450 902 360 809 337 793 c 1
 323 770 313 746 313 713 c 0
 313 638 327 615 344 556 c 0
 352 531 411 319 439 293 c 1
EndSplineSet
Validated: 1
EndChar

StartChar: tav
Encoding: 181 1514 64
Width: 1105
VWidth: 2273
GlyphClass: 2
Flags: W
HStem: 788 264<429.534 789.247>
VStem: 203 172<346.464 708.609> 906 166<53.3133 356.51>
AnchorPoint: "D-1" 601 0 basechar 0
AnchorPoint: "N2r-1" 550 0 basechar 0
AnchorPoint: "N2r-2" 620 0 basechar 0
AnchorPoint: "N2r-3" 616 0 basechar 0
AnchorPoint: "M2r-3" 620 0 basechar 0
AnchorPoint: "M2r-2" 620 0 basechar 0
AnchorPoint: "M2r-1" 550 0 basechar 0
AnchorPoint: "M-1" 600 0 basechar 0
AnchorPoint: "H-1" 128 0 basechar 0
AnchorPoint: "R-1" 566 0 basechar 0
AnchorPoint: "N-4" 540 -2 basechar 0
AnchorPoint: "N-3" 530 -2 basechar 0
AnchorPoint: "N-2" 550 -2 basechar 0
AnchorPoint: "N-1" 550 -2 basechar 0
LayerCount: 2
Fore
SplineSet
491 788 m 1
 440 784 375 684 375 554 c 0
 375 489 391 412 430 320 c 1
 493 320 l 1
 493 84 l 1
 372 25 251 -35 116 -68 c 2
 87 -75 l 1
 82 -46 l 2
 73 11 53 52 53 114 c 0
 53 146 58 168 64 191 c 1
 161 230 197 235 256 273 c 1
 220 370 203 453 203 528 c 0
 203 655 246 718 311 797 c 1
 139 828 l 1
 134 854 128 831 128 866 c 0
 128 928 151 1059 210 1118 c 2
 236 1143 l 1
 254 1112 l 2
 287 1055 321 1052 381 1052 c 2
 818 1052 l 2
 956 1052 964 930 984 837 c 1
 1072 263 l 1
 1072 260 l 2
 1072 156 1041 73 1010 0 c 2
 994 -36 l 1
 900 52 l 1
 903 80 906 109 906 146 c 0
 906 330 844 518 790 750 c 1
 774 778 754 788 730 788 c 2
 491 788 l 1
EndSplineSet
Validated: 1
Substitution2: "'jalt' Justification Alternatives in Hebrew subtable" tavwide
EndChar

StartChar: geresh
Encoding: 185 1523 68
Width: 451
GlyphClass: 2
Flags: W
HStem: 658 506
VStem: 98 316
LayerCount: 2
Fore
SplineSet
414 1104 m 2
 416 1088 416 1076 416 1060 c 2
 416 1052 l 1
 301 860 l 1
 187 658 l 1
 171 658 l 2
 149 658 130 666 116 674 c 2
 98 683 l 1
 102 703 l 2
 129 846 159 982 193 1118 c 1
 198 1132 197 1131 198 1134 c 0
 207 1152 224 1164 248 1164 c 0
 258 1164 271 1161 274 1161 c 2
 411 1122 l 1
 414 1104 l 2
EndSplineSet
Validated: 1
EndChar

StartChar: ayinalt
Encoding: 200 64288 72
Width: 1278
VWidth: 2273
GlyphClass: 2
Flags: W
HStem: -28 253<252.297 581.638>
VStem: 396 175<573.707 729.969> 953 144<471.094 753>
AnchorPoint: "N2r-1" 600 0 basechar 0
AnchorPoint: "N2r-2" 650 0 basechar 0
AnchorPoint: "N2r-3" 650 0 basechar 0
AnchorPoint: "M2r-3" 700 0 basechar 0
AnchorPoint: "R-1" 690 0 basechar 0
AnchorPoint: "M2r-2" 700 0 basechar 0
AnchorPoint: "M2r-1" 600 0 basechar 0
AnchorPoint: "M-1" 720 0 basechar 0
AnchorPoint: "H-1" 279 0 basechar 0
AnchorPoint: "N-1" 600 0 basechar 0
AnchorPoint: "N-2" 550 0 basechar 0
AnchorPoint: "N-3" 600 0 basechar 0
AnchorPoint: "N-4" 540 0 basechar 0
AnchorPoint: "D-1" 765 55 basechar 0
LayerCount: 2
Fore
SplineSet
218 82 m 0
 218 86 218 90 218 93 c 0
 218 171 228 223 242 250 c 2
 252 268 l 1
 271 265 l 2
 362 249 414 225 485 225 c 0
 522 225 554 231 583 241 c 1
 525 365 396 524 396 664 c 0
 396 687 399 709 405 731 c 1
 364 745 342 740 284 819 c 2
 279 827 l 1
 279 836 l 2
 279 920 290 1021 353 1104 c 2
 370 1127 l 1
 392 1109 l 2
 459 1055 546 1015 645 981 c 2
 677 970 l 1
 662 943 l 2
 612 855 583 789 571 748 c 1
 572 559 715 462 715 324 c 0
 715 314 717 296 718 278 c 1
 908 310 950 576 953 762 c 1
 893 786 833 794 786 870 c 2
 785 873 l 1
 784 876 l 2
 776 898 774 917 774 938 c 0
 774 1012 814 1092 889 1142 c 2
 915 1158 l 1
 933 1135 l 2
 1009 1032 1097 1021 1187 976 c 2
 1209 965 l 1
 1131 766 l 1
 1097 753 l 1
 1094 416 1022 190 785 61 c 1
 680 2 534 -28 388 -28 c 2
 241 -28 l 1
 241 -28 218 46 218 82 c 0
EndSplineSet
Validated: 1
EndChar

StartChar: hebrewplus
Encoding: 209 64297 73
Width: 1253
VWidth: 2008
Flags: W
HStem: 308 178<61 507 699 1153>
VStem: 507 192<486 932>
LayerCount: 2
Fore
SplineSet
61 308 m 1
 61 486 l 1
 507 486 l 1
 507 932 l 1
 699 932 l 1
 699 486 l 1
 1153 486 l 1
 1153 308 l 1
 61 308 l 1
EndSplineSet
Validated: 1
EndChar

StartChar: aleflamed
Encoding: 213 64335 74
Width: 1192
VWidth: 2273
GlyphClass: 2
Flags: W
VStem: 167 178<833.592 1284.8> 195 175<981.956 1358>
AnchorPoint: "N2r-1" 500 0 basechar 0
AnchorPoint: "N2r-2" 600 0 basechar 0
AnchorPoint: "N2r-3" 600 0 basechar 0
AnchorPoint: "M2r-3" 600 0 basechar 0
AnchorPoint: "M2r-2" 600 -4 basechar 0
AnchorPoint: "M2r-1" 500 0 basechar 0
AnchorPoint: "M-1" 595 0 basechar 0
AnchorPoint: "D-1" 500 -450 basechar 0
AnchorPoint: "H-1" 0 -130 basechar 0
AnchorPoint: "N-4" 595 0 basechar 0
AnchorPoint: "N-3" 400 0 basechar 0
AnchorPoint: "N-2" 595 0 basechar 0
AnchorPoint: "N-1" 500 0 basechar 0
LayerCount: 2
Fore
SplineSet
218 1625 m 1x40
 299 1546 351 1495 370 1356 c 1
 370 1354 l 2x40
 370 1234 345 1061 345 978 c 1
 349 795 602 559 694 523 c 1
 746 620 787 711 787 754 c 0
 787 844 715 818 713 895 c 0
 713 896 713 897 713 898 c 0
 713 964 782 1080 836 1098 c 2
 856 1105 l 1
 924 1035 1001 938 1094 921 c 2
 1127 916 l 1
 1037 694 l 1
 952 718 l 1
 806 448 l 1
 1062 236 l 1
 1076 197 1090 154 1090 99 c 0
 1090 7 1039 -34 1004 -53 c 2
 981 -67 l 1
 967 -44 l 1
 722 323 423 336 231 681 c 1
 213 710 167 824 167 934 c 0x80
 167 1023 195 1192 195 1208 c 0
 195 1317 191 1318 146 1362 c 0
 145 1363 145 1364 144 1364 c 2
 141 1364 l 1
 130 1364 119 1364 85 1338 c 2
 67 1325 l 1
 50 1340 l 2
 35 1354 20 1386 20 1413 c 0
 20 1583 107 1625 206 1625 c 2
 218 1625 l 1x40
EndSplineSet
Validated: 1
Ligature2: "'ccmp' Extra Hebrew Substitutions Alef-Lamed" alef CGJ lamed
LCarets2: 2 0 0 
EndChar

StartChar: exclam
Encoding: 2 33 75
Width: 473
Flags: W
VStem: 37 351
LayerCount: 2
Fore
SplineSet
234 316 m 17
 258 228 318 162 388 103 c 9
 199 -24 l 17
 191 -27 182 -29 173 -29 c 0
 117 -29 37 57 37 130 c 0
 37 136 36 143 37 149 c 0
 38 154 41 159 49 171 c 9
 234 316 l 17
44 1223 m 1
 369 1450 l 1
 334 519 l 1
 128 387 l 1
 44 1223 l 1
EndSplineSet
Validated: 1
EndChar

StartChar: quotedbl
Encoding: 3 34 76
Width: 721
Flags: W
HStem: 951 510
VStem: 51 585
LayerCount: 2
Fore
SplineSet
636 1461 m 1
 536 970 l 1
 378 951 l 1
 402 1431 l 1
 636 1461 l 1
309 1461 m 1
 209 970 l 1
 51 951 l 1
 75 1431 l 1
 309 1461 l 1
EndSplineSet
Validated: 1
EndChar

StartChar: numbersign
Encoding: 4 35 77
Width: 1135
Flags: W
HStem: 376 198<9 196 440 513 754 943> 862 198<112 301 543 616 858 1045>
LayerCount: 2
Fore
SplineSet
1087 1060 m 1
 1045 862 l 1
 815 862 l 1
 754 574 l 1
 983 574 l 1
 943 376 l 1
 713 376 l 1
 627 -28 l 1
 427 -28 l 1
 513 376 l 1
 395 376 l 1
 309 -28 l 1
 110 -28 l 1
 196 376 l 1
 -34 376 l 1
 9 574 l 1
 239 574 l 1
 301 862 l 1
 71 862 l 1
 112 1060 l 1
 343 1060 l 1
 427 1462 l 1
 627 1462 l 1
 543 1060 l 1
 659 1060 l 1
 745 1462 l 1
 944 1462 l 1
 858 1060 l 1
 1087 1060 l 1
616 862 m 1
 500 862 l 1
 440 574 l 1
 554 574 l 1
 616 862 l 1
EndSplineSet
Validated: 1
EndChar

StartChar: dollar
Encoding: 5 36 78
Width: 1266
Flags: W
VStem: 71 299<889.5 1159.5> 550 151<-146 -16> 550 136<183 576 907 1288> 847 310<318 596.5>
LayerCount: 2
Fore
SplineSet
847 380 m 0xb0
 847 476 781 559 675 576 c 1
 686 148 l 1
 787 174 847 256 847 380 c 0xb0
534 1303 m 0
 455 1303 370 1213 370 1106 c 0
 370 1035 397 955 550 907 c 1
 536 1303 l 2
 534 1303 l 0
1157 549 m 0
 1157 337 868 117 701 31 c 1
 701 -146 l 1
 542 -238 l 1
 550 -16 l 1xd0
 518 -22 485 -25 450 -25 c 0
 248 -25 39 68 33 198 c 1
 35 234 39 243 56 257 c 1
 324 410 l 1
 336 379 l 2
 384 246 460 208 550 183 c 1
 550 633 l 1
 484 654 233 712 159 768 c 0
 89 821 73 854 71 925 c 1
 71 1190 334 1329 535 1418 c 1
 535 1561 l 1
 682 1650 l 1
 679 1455 l 1
 715 1460 749 1462 780 1462 c 0
 1033 1462 1084 1318 1096 1286 c 1
 1052 1249 1012 1221 938 1200 c 1
 927 1188 899 1163 853 1142 c 2
 830 1132 l 1
 815 1150 l 2
 775 1199 738 1260 684 1288 c 1
 687 867 l 1
 829 826 927 791 1044 739 c 1
 1100 693 1157 644 1157 549 c 0
EndSplineSet
Validated: 1
EndChar

StartChar: percent
Encoding: 6 37 79
Width: 1996
Flags: W
HStem: 20 133<1267.5 1575.04> 492 134<257.5 566.32> 813 158<1347.15 1642> 1258 158<334.526 522.029>
VStem: 11 210<821.59 1018.39> 682 203<822.991 1083.8> 1013 219<363.103 565.148> 1692 195<367.667 634.465>
LayerCount: 2
Fore
SplineSet
348 -9 m 1
 1368 1369 l 1
 1548 1409 l 1
 534 20 l 1
 348 -9 l 1
1241 784 m 1
 1196 847 l 1
 1224 862 l 2
 1335 920 1406 971 1539 971 c 0
 1745 971 1887 790 1887 594 c 0
 1887 300 1684 20 1373 20 c 0
 1162 20 1013 202 1013 400 c 0
 1013 402 1013 406 1013 408 c 0
 1013 561 1145 686 1195 723 c 2
 1261 773 l 1
 1245 700 l 2
 1236 660 1232 620 1232 580 c 0
 1232 345 1368 153 1527 153 c 0
 1633 153 1692 264 1692 374 c 2
 1692 428 l 2
 1692 674 1549 813 1379 813 c 1
 1337 812 1241 787 1241 784 c 1
245 1215 m 1
 233 1145 l 2
 227 1104 221 1065 221 1024 c 0
 221 806 356 626 515 626 c 0
 621 626 682 732 682 837 c 2
 682 889 l 2
 682 1125 537 1258 367 1258 c 1
 365 1258 362 1258 359 1258 c 0
 318 1258 232 1234 230 1229 c 1
 186 1292 l 1
 213 1307 l 1
 323 1365 394 1416 527 1416 c 0
 738 1416 885 1235 885 1038 c 0
 885 759 674 492 361 492 c 0
 154 492 11 667 11 857 c 2
 11 866 l 2
 11 1012 130 1120 186 1168 c 1
 245 1215 l 1
EndSplineSet
Validated: 1
EndChar

StartChar: ampersand
Encoding: 7 38 80
Width: 1598
Flags: W
HStem: -28 226<470.273 713.182> 640 198<376.569 898 1176 1344> 1208 156<460.245 809>
VStem: 22 270<194 524.5> 38 252<916.115 1048.56> 898 266<399.33 635 850 904>
LayerCount: 2
Fore
SplineSet
655 640 m 2xf4
 393 640 292 600 292 449 c 0
 292 288 520 198 656 198 c 2
 726 198 l 1
 833 211 898 237 898 330 c 2
 898 640 l 1
 655 640 l 2xf4
682 1364 m 0
 936 1364 966 1254 966 1236 c 2
 966 1221 l 1
 738 1078 l 1
 723 1099 l 2
 663 1180 594 1208 482 1208 c 0
 423 1208 290 1174 290 1037 c 0xec
 290 1004 301 898 421 863 c 0
 501 840 538 838 688 838 c 2
 910 838 l 1
 910 904 l 1
 1176 1060 l 1
 1176 850 l 1
 1576 850 l 1
 1344 640 l 1
 1164 635 l 1
 1164 581 l 2
 1164 430 1104 338 914 168 c 0
 760 31 673 -28 536 -28 c 0
 384 -28 22 73 22 315 c 0xf4
 22 435 125 533 247 621 c 1
 282 646 l 1
 238 669 l 1
 189 696 38 772 38 924 c 0xec
 38 1109 335 1264 345 1268 c 2
 470 1324 l 1
 549 1350 611 1364 682 1364 c 0
EndSplineSet
Validated: 1
EndChar

StartChar: quotesingle
Encoding: 8 39 81
Width: 394
Flags: W
HStem: 951 510
VStem: 51 258
LayerCount: 2
Fore
SplineSet
309 1461 m 1
 209 970 l 1
 51 951 l 1
 75 1431 l 1
 309 1461 l 1
EndSplineSet
Validated: 1
EndChar

StartChar: parenleft
Encoding: 9 40 82
Width: 609
Flags: W
VStem: 34 232<421.645 1024.92>
LayerCount: 2
Fore
SplineSet
266 775 m 0
 266 378 430 96 499 -27 c 2
 510 -46 l 1
 292 -232 l 1
 275 -205 l 2
 97 80 34 373 34 635 c 0
 34 957 125 1244 238 1469 c 1
 489 1590 l 1
 453 1518 l 2
 358 1328 266 1072 266 775 c 0
EndSplineSet
Validated: 1
EndChar

StartChar: parenright
Encoding: 10 41 83
Width: 506
Flags: W
VStem: 194 232<338.872 961.343>
LayerCount: 2
Fore
SplineSet
194 587 m 0
 194 984 62 1212 21 1284 c 2
 -50 1408 l 1
 168 1594 l 1
 204 1530 l 2
 382 1245 426 989 426 727 c 0
 426 482 372 193 222 -107 c 1
 -29 -228 l 1
 7 -156 l 2
 102 34 194 290 194 587 c 0
EndSplineSet
Validated: 1
EndChar

StartChar: asterisk
Encoding: 11 42 84
Width: 656
Flags: W
HStem: 242 616
VStem: -30 626
LayerCount: 2
Fore
SplineSet
124 789 m 2
 122 813 l 1
 357 858 l 1
 340 812 l 2
 319 759 309 707 309 652 c 1
 347 694 395 733 456 758 c 2
 479 768 l 1
 596 555 l 1
 545 560 l 2
 535 560 526 560 515 560 c 0
 470 560 426 554 385 541 c 1
 436 519 486 486 530 436 c 2
 546 417 l 1
 381 242 l 1
 368 290 l 2
 354 345 332 395 299 439 c 1
 293 382 276 323 243 268 c 2
 230 246 l 1
 12 349 l 1
 53 376 l 2
 101 407 142 443 174 487 c 1
 144 481 112 476 80 476 c 0
 52 476 24 480 -6 486 c 2
 -30 491 l 1
 0 731 l 1
 37 699 l 2
 81 664 127 636 178 619 c 1
 150 667 129 723 124 789 c 2
EndSplineSet
Validated: 1
EndChar

StartChar: plus
Encoding: 12 43 85
Width: 873
Flags: W
HStem: 494 172<-54 282 456 792>
VStem: 282 174<158 494 666 1002>
LayerCount: 2
Fore
SplineSet
456 494 m 1
 456 158 l 1
 282 158 l 1
 282 494 l 1
 -54 494 l 1
 -54 666 l 1
 282 666 l 1
 282 1002 l 1
 456 1002 l 1
 456 666 l 1
 792 666 l 1
 792 494 l 1
 456 494 l 1
EndSplineSet
Validated: 1
EndChar

StartChar: comma
Encoding: 13 44 86
Width: 374
Flags: W
HStem: -158 480
VStem: 52 223<23.4672 173.5>
LayerCount: 2
Fore
SplineSet
127 322 m 1
 197 280 275 227 275 120 c 1
 274 61 217 7 196 -11 c 2
 18 -158 l 1
 -41 -76 l 1
 -13 -62 l 2
 19 -45 52 -14 52 26 c 0
 52 54 36 101 -43 167 c 2
 -68 187 l 1
 -44 209 l 2
 47 290 108 314 127 322 c 1
EndSplineSet
Validated: 1
EndChar

StartChar: hyphen
Encoding: 14 45 87
Width: 904
Flags: W
HStem: 494 172<30 874>
LayerCount: 2
Fore
SplineSet
30 494 m 1
 30 666 l 1
 874 666 l 1
 874 494 l 1
 30 494 l 1
EndSplineSet
Validated: 1
EndChar

StartChar: period
Encoding: 15 46 88
Width: 351
Flags: W
HStem: -20 340
VStem: -64 351
LayerCount: 2
Fore
SplineSet
133 320 m 17
 157 232 217 166 287 107 c 9
 98 -20 l 17
 90 -23 81 -25 72 -25 c 0
 16 -25 -64 61 -64 133 c 0
 -64 140 -66 146 -64 153 c 0
 -63 158 -60 163 -52 175 c 9
 133 320 l 17
EndSplineSet
Validated: 1
EndChar

StartChar: slash
Encoding: 16 47 89
Width: 1276
Flags: W
LayerCount: 2
Fore
SplineSet
960 1480 m 1
 1195 1480 l 1
 112 -52 l 1
 -120 -52 l 1
 960 1480 l 1
EndSplineSet
Validated: 1
EndChar

StartChar: colon
Encoding: 27 58 90
Width: 437
Flags: W
VStem: 22 351
LayerCount: 2
Fore
SplineSet
219 319 m 17
 243 231 303 165 373 106 c 9
 184 -21 l 17
 176 -24 167 -26 158 -26 c 0
 102 -26 22 61 22 133 c 0
 22 139 20 146 22 152 c 0
 23 157 26 162 34 174 c 9
 219 319 l 17
219 992 m 17
 243 904 303 838 373 779 c 9
 184 652 l 17
 176 649 167 647 158 647 c 0
 102 647 22 734 22 806 c 0
 22 812 20 819 22 825 c 0
 23 830 26 835 34 847 c 9
 219 992 l 17
EndSplineSet
Validated: 1
EndChar

StartChar: semicolon
Encoding: 28 59 91
Width: 475
Flags: W
VStem: 154 222<17.2876 168>
LayerCount: 2
Fore
SplineSet
219 992 m 17
 243 904 303 838 373 779 c 9
 184 652 l 17
 176 649 167 647 158 647 c 0
 102 647 22 734 22 806 c 0
 22 812 22 819 24 825 c 0
 25 830 26 835 34 847 c 9
 219 992 l 17
229 315 m 1
 298 273 376 222 376 114 c 0
 376 61 331 11 296 -17 c 2
 120 -164 l 1
 59 -82 l 1
 89 -67 l 2
 98 -63 154 -32 154 20 c 0
 154 48 137 95 57 161 c 2
 32 181 l 1
 57 203 l 2
 123 260 174 290 229 315 c 1
EndSplineSet
Validated: 1
EndChar

StartChar: less
Encoding: 29 60 92
Width: 1079
Flags: W
HStem: 1037 20G<926.198 972>
LayerCount: 2
Fore
SplineSet
972 -20 m 1
 -70 434 l 1
 -70 602 l 1
 972 1057 l 1
 972 856 l 1
 193 518 l 1
 972 180 l 1
 972 -20 l 1
EndSplineSet
Validated: 1
EndChar

StartChar: equal
Encoding: 30 61 93
Width: 1149
Flags: W
HStem: 198 202<26 1068> 636 202<26 1068>
LayerCount: 2
Fore
SplineSet
1068 636 m 1
 26 636 l 1
 26 838 l 1
 1068 838 l 1
 1068 636 l 1
1068 198 m 1
 26 198 l 1
 26 400 l 1
 1068 400 l 1
 1068 198 l 1
EndSplineSet
Validated: 1
EndChar

StartChar: greater
Encoding: 31 62 94
Width: 1134
Flags: W
HStem: 1037 20G<10 55.8022>
LayerCount: 2
Fore
SplineSet
1052 434 m 1
 10 -20 l 1
 10 180 l 1
 790 518 l 1
 10 856 l 1
 10 1057 l 1
 1052 602 l 1
 1052 434 l 1
EndSplineSet
Validated: 1
EndChar

StartChar: question
Encoding: 32 63 95
Width: 912
Flags: W
HStem: 1266 206<148.331 350.756>
VStem: 522 302<771.5 1066.36>
LayerCount: 2
Fore
SplineSet
337 1472 m 3
 588 1472 824 1310 824 1040 c 0
 824 723 492 691 337 420 c 2
 319 390 l 1
 241 464 l 1
 251 483 l 2
 343 656 522 689 522 854 c 0
 522 1101 380 1266 215 1266 c 0
 145 1266 69 1239 -7 1171 c 2
 -23 1157 l 1
 -98 1211 l 1
 -79 1234 l 2
 25 1353 146 1472 337 1472 c 3
241 -28 m 0
 167 -28 104 62 104 123 c 0
 104 129 105 134 106 139 c 0
 113 169 136 192 154 208 c 1
 306 319 l 1
 318 284 l 2
 339 225 381 175 432 127 c 2
 457 103 l 1
 271 -20 l 1
 263 -24 253 -28 241 -28 c 0
EndSplineSet
Validated: 1
EndChar

StartChar: at
Encoding: 33 64 96
Width: 1595
Flags: W
HStem: -28 166<558.41 1083.07> 284 190<601.598 793.104 968 1184.85> 958 190<668.056 896.963> 1332 166<547.908 1056.89>
VStem: 4 190<489.342 971.513> 346 202<526.296 824.453> 942 123<512 784> 1364 166<634.995 1048.74>
LayerCount: 2
Fore
SplineSet
548 657 m 0
 548 558 604 474 706 474 c 0
 849 474 942 642 942 784 c 0
 942 885 884 958 796 958 c 0
 655 958 548 818 548 657 c 0
820 138 m 0
 1098 138 1228 254 1282 308 c 1
 1456 308 l 1
 1424 264 l 2
 1296 89 1093 -28 808 -28 c 0
 596 -28 398 34 234 190 c 0
 77 339 4 522 4 735 c 0
 4 1165 364 1498 798 1498 c 0
 1189 1498 1530 1296 1530 895 c 0
 1530 697 1470 544 1351 440 c 0
 1256 357 1136 284 992 284 c 0
 944 284 879 308 876 394 c 1
 830 347 748 284 659 284 c 0
 487 284 346 438 346 631 c 0
 346 915 539 1148 779 1148 c 0
 898 1148 966 1093 1012 1014 c 1
 1042 1120 l 1
 1208 1120 l 1
 1065 512 l 1
 1065 485 1077 462 1119 462 c 0
 1223 462 1364 588 1364 831 c 0
 1364 1153 1134 1332 796 1332 c 0
 404 1332 194 1062 194 731 c 0
 194 375 433 138 820 138 c 0
EndSplineSet
Validated: 1
EndChar

StartChar: bracketleft
Encoding: 60 91 97
Width: 628
Flags: W
HStem: -238 126<310 522> 1346 126<310 522>
VStem: 68 242<-112 1346>
LayerCount: 2
Fore
SplineSet
68 1472 m 1
 522 1472 l 1
 522 1346 l 1
 310 1346 l 1
 310 -112 l 1
 522 -112 l 1
 522 -238 l 1
 68 -238 l 1
 68 1472 l 1
EndSplineSet
Validated: 1
EndChar

StartChar: asciitilde
Encoding: 95 126 98
Width: 938
Flags: W
HStem: 358 182<467.052 715.418> 496 182<74.9626 323.827>
LayerCount: 2
Fore
SplineSet
-70 509 m 1x80
 0 637 72 678 178 678 c 0x40
 353 678 488 540 615 540 c 0
 663 540 705 559 766 640 c 2
 795 679 l 1
 859 526 l 1
 791 399 718 358 612 358 c 0x80
 440 358 301 496 176 496 c 0x40
 128 496 85 477 25 396 c 2
 -3 358 l 1
 -70 509 l 1x80
EndSplineSet
Validated: 1
EndChar

StartChar: meteg
Encoding: 144 1469 99
Width: 0
VWidth: 2273
GlyphClass: 4
Flags: W
HStem: -534 399<-74 74>
VStem: -74 148<-534 -135>
AnchorPoint: "M2r-3" -330 0 mark 0
AnchorPoint: "M2r-2" -280 0 mark 0
AnchorPoint: "M2r-1" -190 0 mark 0
AnchorPoint: "TM-1" 57 0 mark 0
AnchorPoint: "M-1" 0 0 mark 0
AnchorPoint: "MT-1" -133 0 basemark 0
LayerCount: 2
Fore
SplineSet
74 -534 m 1
 -74 -534 l 1
 -74 -135 l 1
 74 -135 l 1
 74 -534 l 1
EndSplineSet
Validated: 1
LCarets2: 1 0 
Ligature2: "'ccmp' remove Taam after Meteg subtable" meteg dehi
Ligature2: "'ccmp' remove Taam after Meteg subtable" meteg yetiv
Ligature2: "'ccmp' remove Taam after Meteg subtable" meteg yerahbenyomo
Ligature2: "'ccmp' remove Taam after Meteg subtable" meteg darga
Ligature2: "'ccmp' remove Taam after Meteg subtable" meteg merkhakefula
Ligature2: "'ccmp' remove Taam after Meteg subtable" meteg merkha
Ligature2: "'ccmp' remove Taam after Meteg subtable" meteg mahapakh
Ligature2: "'ccmp' remove Taam after Meteg subtable" meteg munah
Ligature2: "'ccmp' remove Taam after Meteg subtable" meteg tevir
Ligature2: "'ccmp' remove Taam after Meteg subtable" meteg tipeha
Ligature2: "'ccmp' remove Taam after Meteg subtable" meteg etnahtahafukh
Ligature2: "'ccmp' remove Taam after Meteg subtable" meteg etnahta
Ligature2: "'ccmp' remove Taam after Meteg subtable" meteg lowerdot
Ligature2: "'ccmp' Remove Taam before meteg subtable" tevir meteg
Ligature2: "'ccmp' Remove Taam before meteg subtable" lowerdot meteg
Ligature2: "'ccmp' Remove Taam before meteg subtable" dehi meteg
Ligature2: "'ccmp' Remove Taam before meteg subtable" yerahbenyomo meteg
Ligature2: "'ccmp' Remove Taam before meteg subtable" darga meteg
Ligature2: "'ccmp' Remove Taam before meteg subtable" merkhakefula meteg
Ligature2: "'ccmp' Remove Taam before meteg subtable" merkha meteg
Ligature2: "'ccmp' Remove Taam before meteg subtable" mahapakh meteg
Ligature2: "'ccmp' Remove Taam before meteg subtable" munah meteg
Ligature2: "'ccmp' Remove Taam before meteg subtable" etnahtahafukh
Ligature2: "'ccmp' Remove Taam before meteg subtable" yetiv meteg
Ligature2: "'ccmp' Remove Taam before meteg subtable" tipeha meteg
Ligature2: "'ccmp' Remove Taam before meteg subtable" etnahta meteg
EndChar

StartChar: qamatskatan
Encoding: 154 1479 100
Width: 0
VWidth: 2273
GlyphClass: 4
Flags: W
HStem: -246 107<-150 -39 37 150>
VStem: -74 147<-610.031 -415.089> -39 76<-611.953 -246>
AnchorPoint: "N2r-2" -140 0 mark 0
AnchorPoint: "TM-1" -282.3 0 basemark 0
AnchorPoint: "MT-1" 220.7 0 mark 0
AnchorPoint: "N-2" -80 0 mark 0
LayerCount: 2
Fore
SplineSet
37 -246 m 1xa0
 37 -298 l 2xa0
 37 -306 41 -358 46 -371 c 1
 73 -465 l 1
 73 -512 l 1
 73 -545 56 -581 29 -609 c 2
 26 -612 l 1
 22 -614 l 2
 14 -617 8 -618 0 -618 c 0
 -7 -618 -15 -617 -23 -614 c 2
 -27 -612 l 1
 -30 -609 l 2
 -58 -581 -74 -545 -74 -512 c 1
 -74 -465 l 1xc0
 -47 -371 l 1
 -42 -358 -39 -306 -39 -298 c 2
 -39 -246 l 1
 -150 -246 l 1
 -150 -139 l 1
 150 -139 l 1
 150 -246 l 1
 37 -246 l 1xa0
EndSplineSet
Validated: 1
EndChar

StartChar: hatafsegolmidmeteg
Encoding: 216 -1 102
Width: 447
VWidth: 2273
GlyphClass: 4
Flags: W
HStem: -588 218<182.742 340.51 672.557 829.443> -334 218<65.4895 222.376 300.742 458.51 672.557 829.443>
VStem: 47 194<-316.779 -132.725> 165 194<-571.275 -387.221> 283 194<-317.275 -133.221> 508 115<-575 -130> 654 194<-571.57 -387.02 -317.57 -133.02>
AnchorPoint: "N-4" 377 0 mark 0
LayerCount: 2
Fore
SplineSet
623 -575 m 1xc6
 508 -575 l 1
 508 -130 l 1
 622 -130 l 1
 623 -575 l 1xc6
751 -588 m 0
 692 -588 654 -539 654 -480 c 0
 654 -418 695 -370 751 -370 c 0
 809 -370 848 -420 848 -480 c 0
 848 -542 807 -588 751 -588 c 0
751 -334 m 0
 692 -334 654 -285 654 -226 c 0
 654 -164 695 -116 751 -116 c 0
 809 -116 848 -166 848 -226 c 0
 848 -288 807 -334 751 -334 c 0
381 -116 m 0
 438 -116 477 -165 477 -225 c 0
 477 -287 436 -334 381 -334 c 0
 321 -334 283 -284 283 -225 c 0xce
 283 -162 325 -116 381 -116 c 0
263 -370 m 0
 320 -370 359 -419 359 -479 c 0
 359 -541 318 -588 263 -588 c 0
 203 -588 165 -538 165 -479 c 0xd6
 165 -416 207 -370 263 -370 c 0
143 -116 m 0
 203 -116 241 -166 241 -225 c 0
 241 -287 200 -334 143 -334 c 0
 86 -334 47 -285 47 -225 c 0xe6
 47 -163 88 -116 143 -116 c 0
EndSplineSet
Validated: 1
Ligature2: "'ccmp' Hebrew HatafMeteg subtable" hatafsegol zerojoin meteg
Ligature2: "'ccmp' Hebrew HatafMeteg subtable" hatafsegol .null meteg
Ligature2: "'ccmp' Hebrew HatafMeteg subtable" hatafsegol CGJ meteg
LCarets2: 2 0 0 
EndChar

StartChar: hatafpatahmidmeteg
Encoding: 217 -1 103
Width: 451
VWidth: 2273
GlyphClass: 4
Flags: W
HStem: -586 220<665.013 822.082> -332 220<665.013 822.082> -284 149<61 415>
VStem: 479 114<-575 -130> 646 195<-569.229 -382.771 -315.229 -128.771>
AnchorPoint: "N-4" 381 0 mark 0
LayerCount: 2
Fore
SplineSet
415 -284 m 1xb8
 61 -284 l 1
 61 -135 l 1
 415 -135 l 1
 415 -284 l 1xb8
593 -575 m 1
 479 -575 l 1
 479 -130 l 1
 593 -130 l 1
 593 -575 l 1
743 -586 m 0
 684 -586 646 -535 646 -476 c 0
 646 -413 688 -366 743 -366 c 0
 803 -366 841 -417 841 -476 c 0
 841 -539 799 -586 743 -586 c 0
743 -332 m 0xd8
 684 -332 646 -281 646 -222 c 0
 646 -159 688 -112 743 -112 c 0
 803 -112 841 -163 841 -222 c 0
 841 -285 799 -332 743 -332 c 0xd8
EndSplineSet
Validated: 1
Ligature2: "'ccmp' Hebrew HatafMeteg subtable" hatafpatah zerojoin meteg
Ligature2: "'ccmp' Hebrew HatafMeteg subtable" hatafpatah .null meteg
Ligature2: "'ccmp' Hebrew HatafMeteg subtable" hatafqamats CGJ meteg
LCarets2: 2 0 0 
EndChar

StartChar: quoteleft
Encoding: 190 8216 105
Width: 422
Flags: W
HStem: 911 597<150.369 274.724>
VStem: 90 244<1283.96 1487.49>
LayerCount: 2
Fore
SplineSet
275 938 m 1
 269 931 271 916 241 911 c 0
 236 910 227 908 213 908 c 0
 205 909 196 909 185 911 c 0
 154 916 150 937 150 944 c 0
 150 971 145 1000 142 1028 c 1
 90 1364 l 1
 90 1395 l 2
 90 1464 130 1508 213 1508 c 0
 295 1508 334 1465 334 1397 c 2
 334 1395 l 1
 275 938 l 1
EndSplineSet
Validated: 1
EndChar

StartChar: quoteright
Encoding: 191 8217 106
Width: 422
Flags: W
HStem: 911 597<150.369 274.724>
VStem: 90 244<1283.96 1487.49>
LayerCount: 2
Fore
SplineSet
275 938 m 1
 269 931 271 916 241 911 c 0
 236 910 227 908 213 908 c 0
 205 909 196 909 185 911 c 0
 154 916 150 937 150 944 c 0
 150 971 145 1000 142 1028 c 1
 90 1364 l 1
 90 1395 l 2
 90 1464 130 1508 213 1508 c 0
 295 1508 334 1465 334 1397 c 2
 334 1395 l 1
 275 938 l 1
EndSplineSet
Validated: 1
EndChar

StartChar: invertednun
Encoding: 153 1478 143
Width: 706
GlyphClass: 2
Flags: W
HStem: -56 279<433.69 655.157> 812 253<439.646 591.594>
VStem: 155 254<255.635 377.802> 262 147<442.06 765.031>
LayerCount: 2
Fore
SplineSet
645 -56 m 1xe0
 509 -28 345 -10 206 75 c 1
 206 82 l 1
 186 110 164 173 155 214 c 1
 155 224 l 1xe0
 186 371 262 524 262 685 c 0
 262 707 283 750 295 781 c 1
 291 781 286 781 282 781 c 0
 230 781 182 796 182 806 c 0
 182 855 l 1
 189 902 176 980 204 1048 c 1
 224 1084 l 1
 234 1088 244 1089 254 1089 c 0
 292 1089 336 1070 378 1067 c 1
 385 1066 405 1065 431 1065 c 0
 486 1065 565 1072 590 1107 c 2
 641 1179 l 1
 641 1093 l 2
 641 946 625 859 602 812 c 1
 549 812 l 2
 515 812 494 808 437 769 c 1
 418 684 416 620 416 557 c 2
 416 515 l 2
 416 474 415 430 409 381 c 1xd0
 409 278 l 1
 480 239 536 223 607 223 c 2
 628 223 l 1
 659 188 677 129 677 70 c 0
 677 25 667 -21 645 -56 c 1xe0
EndSplineSet
Validated: 1
EndChar

StartChar: paseq
Encoding: 147 1472 147
Width: 644
Flags: W
VStem: 207 178<-163 1230>
LayerCount: 2
Fore
SplineSet
385 -163 m 1
 207 -163 l 1
 207 1230 l 1
 385 1230 l 1
 385 -163 l 1
EndSplineSet
Validated: 1
EndChar

StartChar: newsheqel
Encoding: 194 8362 150
Width: 1389
VWidth: 2008
Flags: W
HStem: 800 252<347.216 406 443 661.349>
VStem: 151 185<334.203 797.668> 206 190<137.791 456.029> 657 177<521.026 806.014> 1032 110<362 739.753>
LayerCount: 2
Fore
SplineSet
720 251 m 1x98
 716 435 657 559 657 720 c 0
 657 748 659 776 663 807 c 1
 628 803 579 800 512 800 c 2
 443 800 l 1
 443 790 l 1
 461 758 476 734 616 684 c 1
 638 684 l 1
 612 513 l 1
 597 504 584 502 584 501 c 0
 583 494 583 486 583 479 c 0
 583 362 677 251 720 251 c 1x98
336 656 m 0xd8
 337 485 396 305 396 214 c 0
 396 212 396 210 396 208 c 1
 356 135 303 67 255 5 c 2
 206 -58 l 1
 206 22 l 1
 206 24 206 27 206 29 c 0xb8
 206 214 151 432 151 621 c 0
 151 685 157 745 174 800 c 1
 88 800 l 1
 88 818 l 1
 79 842 75 871 75 902 c 0
 75 994 111 1096 155 1110 c 1
 155 1116 l 1
 183 1116 l 1
 208 1091 249 1052 292 1052 c 0
 298 1052 305 1052 311 1052 c 0
 398 1052 487 1049 573 1049 c 0
 673 1049 769 1053 857 1069 c 1
 886 1069 l 1
 886 955 l 1
 893 1016 925 1092 970 1119 c 1
 994 1119 l 1
 994 1109 l 1
 1005 1090 1047 1069 1105 1041 c 2
 1214 988 l 1
 1214 773 l 1
 1189 753 1175 756 1167 742 c 1
 1147 694 1142 650 1142 605 c 0
 1142 535 1156 461 1156 362 c 1
 1124 274 l 1
 1124 272 l 1
 1050 143 987 59 892 -35 c 0
 865 -62 822 -90 783 -90 c 0
 759 -90 736 -80 718 -52 c 0
 617 104 541 127 493 285 c 0
 462 384 481 439 443 514 c 1
 417 523 410 518 364 538 c 1
 364 555 l 1
 358 576 341 599 342 610 c 0
 346 707 365 775 406 800 c 1
 367 800 l 1
 337 756 336 684 336 656 c 0xd8
834 702 m 0
 834 571 889 530 905 437 c 1
 790 246 l 1
 854 246 l 1
 867 250 874 257 888 261 c 1
 997 336 1007 358 1032 394 c 1
 1032 779 l 1
 901 831 l 1
 860 810 834 775 834 702 c 0
EndSplineSet
Validated: 1
EndChar

StartChar: A
Encoding: 34 65 151
Width: 1608
Flags: W
HStem: 0 21G<1177 1288.5> 342 170<400.226 838.629>
LayerCount: 2
Fore
SplineSet
1208 0 m 1
 1146 5 1080 81 920 342 c 1
 333 342 l 1
 308 271 286 199 286 147 c 2
 286 131 l 1
 -61 -20 l 1
 -24 49 l 2
 188 445 364 863 517 1296 c 1
 770 1423 l 1
 846 1356 l 1
 950 921 1367 214 1463 204 c 1
 1465 205 1468 209 1470 212 c 2
 1496 261 l 1
 1539 166 l 1
 1465 88 1369 0 1208 0 c 1
582 512 m 2
 641 512 l 2
 704 512 770 512 842 522 c 1
 614 1064 l 1
 397 519 l 1
 466 512 523 512 582 512 c 2
EndSplineSet
Validated: 1
EndChar

StartChar: B
Encoding: 35 66 152
Width: 1339
Flags: W
HStem: 0 223<552.729 851> 736 54<563.382 673.802> 1254 166<489 728.507>
VStem: 234 255<274.76 1175.83> 887 278<948.47 1134.74> 1003 272<340 532.734>
LayerCount: 2
Fore
SplineSet
887 1014 m 1xf8
 890 1020 894 1026 894 1040 c 0
 894 1104 798 1245 489 1254 c 1
 489 291 l 1
 606 242 689 223 824 223 c 0
 878 223 1003 302 1003 378 c 0xf4
 1003 593 804 687 582 736 c 0
 550 743 553 787 586 790 c 0
 651 796 887 883 887 1008 c 2
 887 1014 l 1xf8
1275 515 m 0
 1275 290 816 0 621 0 c 0
 476 0 340 27 206 71 c 1
 185 78 l 1
 188 99 l 2
 217 307 234 516 234 727 c 0
 234 878 226 1030 206 1183 c 1
 155 1180 106 1169 50 1159 c 2
 -28 1145 l 1
 187 1383 l 1
 212 1392 352 1420 450 1420 c 3
 742 1420 1165 1384 1165 1081 c 3xf8
 1165 955 1060 875 977 815 c 1
 1161 777 1275 712 1275 515 c 0
EndSplineSet
Validated: 1
EndChar

StartChar: C
Encoding: 36 67 153
Width: 1238
Flags: W
HStem: 0 253<603.89 878.059> 1225 195<593.924 762.96>
VStem: 32 278<630.868 999.5>
LayerCount: 2
Fore
SplineSet
1094 1338 m 1
 1100 1329 1103 1320 1103 1311 c 0
 1103 1257 993 1201 886 1124 c 1
 867 1112 l 1
 849 1125 l 2
 778 1176 712 1225 565 1225 c 0
 410 1225 310 1057 310 942 c 0
 310 537 498 253 789 253 c 0
 882 253 980 283 1089 351 c 2
 1121 371 l 1
 1143 280 l 1
 1032 111 865 0 679 0 c 0
 276 0 32 336 32 677 c 0
 32 1060 421 1420 845 1420 c 2
 896 1420 l 2
 970 1420 1052 1405 1098 1333 c 1
 1094 1338 l 1
EndSplineSet
Validated: 1
EndChar

StartChar: D
Encoding: 37 68 154
Width: 1464
Flags: W
HStem: 0 243<571.019 950> 1240 180<505 774.833>
VStem: 224 281<298.508 1193> 1157 256<564.06 869.884>
LayerCount: 2
Fore
SplineSet
1157 580 m 3
 1157 930 1022 1229 505 1240 c 1
 505 322 l 1
 615 252 730 243 858 243 c 0
 1042 243 1157 406 1157 580 c 3
-47 1193 m 1
 213 1413 l 1
 224 1413 l 2
 340 1413 405 1420 525 1420 c 3
 978 1420 1413 1217 1413 741 c 3
 1413 406 889 0 633 0 c 3
 471 0 395 44 248 69 c 2
 224 73 l 1
 224 1193 l 1
 -47 1193 l 1
EndSplineSet
Validated: 1
EndChar

StartChar: E
Encoding: 38 69 155
Width: 1320
Flags: W
HStem: 0 237<548.897 1076> 626 240<554 912.322> 1171 233<554.608 1023.29> 1179 241<632.983 768.487 774.111 1039.24>
VStem: 282 263<224 626 866 1184>
LayerCount: 2
Fore
SplineSet
302 1423 m 1xe8
 398 1413 495 1404 624 1404 c 0xe8
 816 1404 984 1420 1160 1420 c 2
 1218 1420 l 1
 1182 1375 l 2
 1117 1295 1036 1180 912 1179 c 1xd8
 864 1173 817 1171 772 1171 c 0
 697 1171 625 1177 554 1184 c 1
 554 866 l 1
 1089 866 l 1
 1059 822 l 1
 948 682 966 628 545 626 c 1
 545 224 l 1
 666 234 793 237 913 237 c 1
 970 224 1025 217 1079 217 c 0
 1134 217 1187 224 1240 237 c 1
 1305 237 l 1
 1076 0 l 1
 1064 0 l 2
 896 0 734 12 572 12 c 0
 491 12 397 9 315 0 c 2
 282 -4 l 1
 282 626 l 1
 34 626 l 1
 101 673 l 2
 172 724 240 776 290 842 c 1
 290 1213 l 1
 44 1213 l 1
 302 1423 l 1xe8
EndSplineSet
Validated: 1
EndChar

StartChar: F
Encoding: 39 70 156
Width: 1284
Flags: W
HStem: 606 247<554 874.563> 1174 239<553.424 984.861> 1195 228<649.392 1027.84>
VStem: 275 274<140 606 853 1171.29>
LayerCount: 2
Fore
SplineSet
286 1423 m 1xb0
 386 1415 462 1413 537 1413 c 0
 752 1413 966 1428 1167 1432 c 2
 1216 1433 l 1
 1167 1365 l 2
 1135 1315 1008 1187 846 1183 c 2
 558 1174 l 1xd0
 551 1116 549 1069 549 1025 c 0
 549 965 553 912 554 853 c 1
 603 852 651 851 700 851 c 1
 1031 875 l 1
 1084 880 l 1
 1057 834 l 2
 1028 787 888 606 744 606 c 2
 551 606 l 1
 563 140 l 1
 275 -42 l 1
 280 631 l 1
 42 633 l 1
 275 829 l 1
 275 1195 l 1
 22 1195 l 1
 286 1423 l 1xb0
EndSplineSet
Validated: 1
EndChar

StartChar: G
Encoding: 40 71 157
Width: 1496
Flags: W
HStem: 0 187<714.604 909.594 921.406 931.043> 644 200<979.155 1076.49> 1267 153<593.737 927>
VStem: 29 295<492.5 991> 1138 249<399.094 571.854>
LayerCount: 2
Fore
SplineSet
670 1267 m 0
 394 1267 336 1077 324 905 c 1
 333 514 605 187 905 187 c 1
 912 160 919 160 926 187 c 1
 1095 187 1131 294 1138 377 c 1
 1137 552 1053 644 1020 644 c 0
 970 643 925 610 892 576 c 2
 874 557 l 1
 783 613 l 1
 810 635 l 2
 873 687 915 754 979 799 c 1
 1013 831 1076 844 1126 844 c 2
 1132 844 l 2
 1264 844 1332 726 1387 601 c 1
 1387 587 l 2
 1387 359 1179 0 645 0 c 2
 641 0 l 2
 351 0 29 329 29 656 c 1
 35 962 289 1420 893 1420 c 0
 961 1420 1159 1411 1159 1314 c 1
 1151 1241 961 1131 913 1131 c 2
 898 1131 l 1
 833 1215 781 1267 670 1267 c 0
EndSplineSet
Validated: 1
EndChar

StartChar: H
Encoding: 41 72 158
Width: 1554
Flags: W
HStem: 0 21G<136 189 1063.64 1111> 592 204<367 990.048> 792 20G<1290 1480.7>
VStem: 87 277<275.665 583 800 1284> 104 259<230.348 583> 1007 283<492.226 583 809 1284>
LayerCount: 2
Fore
SplineSet
1080 0 m 2xb4
 1080 0 1026 4 1026 66 c 1
 1007 583 l 1
 897 589 789 592 679 592 c 0
 574 592 469 589 364 583 c 1xd4
 363 541 363 465 363 425 c 0
 363 334 368 257 389 229 c 1
 419 273 l 1
 467 173 l 1
 442 162 l 2
 290 96 219 0 159 0 c 1
 113 13 114 21 104 176 c 1xcc
 87 812 l 1xb4
 87 969 89 1080 90 1284 c 1
 362 1453 l 1
 367 800 l 1
 451 797 535 796 621 796 c 0xd4
 743 796 869 799 996 809 c 1
 1007 1284 l 1
 1279 1476 l 1
 1290 809 l 1
 1503 812 l 1
 1290 621 l 1
 1290 604 1291 587 1291 567 c 0
 1291 564 1290 531 1290 487 c 0
 1290 405 1293 284 1313 244 c 1
 1326 252 1347 268 1354 274 c 2
 1379 295 l 1
 1428 218 l 1
 1410 203 l 2
 1340 147 1137 8 1085 0 c 1
 1080 0 l 2xb4
EndSplineSet
Validated: 1
EndChar

StartChar: I
Encoding: 42 73 159
Width: 567
Flags: W
VStem: 168 279<479.044 1161> 179 280<152 1093.89>
LayerCount: 2
Fore
SplineSet
372 1423 m 1x80
 441 1414 447 1344 447 1320 c 2x80
 459 152 l 1
 179 -29 l 1
 179 0 l 2x40
 179 166 188 292 188 473 c 0
 188 600 182 852 168 1066 c 1
 152 1161 143 1161 121 1161 c 0
 107 1161 82 1156 50 1137 c 2
 30 1126 l 1
 -30 1195 l 1
 307 1394 l 1
 324 1407 346 1423 372 1423 c 1x80
EndSplineSet
Validated: 1
EndChar

StartChar: J
Encoding: 43 74 160
Width: 577
Flags: W
VStem: 196 247<-101.402 1060.55>
LayerCount: 2
Fore
SplineSet
62 -338 m 1
 202 -172 189 76 196 482 c 1
 196 610 184 864 170 1081 c 1
 163 1124 156 1142 146 1153 c 1
 140 1153 134 1153 128 1153 c 0
 126 1153 l 2
 126 1153 125 1153 123 1153 c 0
 109 1153 84 1149 52 1133 c 1
 32 1121 l 1
 -28 1191 l 1
 309 1394 l 1
 330 1410 359 1423 385 1423 c 0
 394 1423 402 1421 410 1418 c 1
 424 1410 447 1389 447 1344 c 0
 447 1111 443 670 443 435 c 0
 443 258 446 77 460 -130 c 1
 61 -478 l 1
 62 -338 l 1
EndSplineSet
Validated: 1
EndChar

StartChar: K
Encoding: 44 75 161
Width: 1349
Flags: W
VStem: 181 263<154 719 754 1096.77>
LayerCount: 2
Fore
SplineSet
1092 1252 m 1
 1083 1176 843 1054 664 845 c 1
 816 635 953 412 1147 212 c 1
 1165 196 1177 188 1193 188 c 0
 1200 188 1208 190 1217 193 c 2
 1330 235 l 1
 1247 151 l 2
 1174 76 1108 49 1030 -6 c 0
 1013 -18 997 -23 982 -23 c 0
 934 -23 896 26 876 55 c 2
 444 719 l 1
 449 154 l 1
 164 -14 l 1
 167 37 l 2
 176 182 181 332 181 493 c 0
 181 665 175 848 159 1052 c 1
 153 1112 123 1161 94 1161 c 0
 87 1161 73 1157 57 1146 c 2
 38 1133 l 1
 -24 1193 l 1
 0 1211 l 2
 172 1347 328 1413 356 1413 c 1
 364 1411 376 1413 391 1399 c 0
 421 1373 435 1303 438 1272 c 1
 443 754 l 1
 739 1032 l 2
 773 1064 778 1088 778 1102 c 0
 778 1160 696 1217 652 1249 c 2
 620 1273 l 1
 859 1418 l 1
 930 1403 1092 1369 1092 1252 c 1
EndSplineSet
Validated: 1
EndChar

StartChar: L
Encoding: 45 76 162
Width: 1219
Flags: W
HStem: 5 217<475.826 952>
VStem: 191 278<660.418 1147.4> 228 247<222.001 419.582>
LayerCount: 2
Fore
SplineSet
191 1075 m 1xc0
 178 1141 129 1163 102 1163 c 0
 88 1163 63 1158 31 1140 c 2
 11 1128 l 1
 -49 1196 l 1
 246 1365 l 1
 275 1386 346 1420 366 1420 c 0
 377 1420 387 1417 397 1413 c 0
 428 1400 469 1364 469 1313 c 2xc0
 475 229 l 1
 493 224 486 222 508 222 c 0
 654 222 884 235 1022 235 c 0
 1048 235 1074 234 1100 232 c 2
 1155 227 l 1
 952 -0 l 1
 228 5 l 1xa0
 191 1075 l 1xc0
EndSplineSet
Validated: 1
EndChar

StartChar: M
Encoding: 46 77 163
Width: 2130
Flags: W
HStem: 153 291<997.036 1136.78>
LayerCount: 2
Fore
SplineSet
1777 1126 m 1
 1798 744 1909 443 2033 182 c 1
 2004 139 l 1
 1765 -18 l 1
 1751 0 l 1
 1643 211 1601 487 1546 746 c 1
 1391 481 1216 153 1001 153 c 0
 833 153 591 462 435 660 c 1
 401 474 376 305 375 165 c 1
 52 -32 l 1
 59 7 l 1
 94 280 170 619 241 914 c 1
 105 1176 l 1
 93 1193 86 1211 86 1230 c 0
 86 1260 104 1290 145 1316 c 1
 348 1419 l 1
 366 1347 l 1
 453 1140 847 446 1125 444 c 1
 1383 452 1512 956 1512 1198 c 0
 1512 1203 1511 1213 1511 1220 c 2
 1511 1236 l 1
 1915 1471 l 1
 1777 1126 l 1
EndSplineSet
Validated: 1
EndChar

StartChar: N
Encoding: 47 78 164
Width: 1615
Flags: W
HStem: 1209 211<83 261>
VStem: 261 229<747.538 878.238> 1237 224<532 661.875>
LayerCount: 2
Fore
SplineSet
490 530 m 0
 490 384 499 275 511 167 c 1
 492 158 l 2
 411 124 336 70 264 7 c 2
 212 -37 l 1
 261 1072 l 1
 211 1109 112 1201 83 1209 c 1
 52 1209 41 1205 20 1189 c 2
 0 1175 l 1
 -61 1232 l 1
 -36 1252 l 2
 -24 1262 183 1420 261 1420 c 0
 430 1420 970 832 1233 532 c 1
 1234 613 1237 695 1237 776 c 0
 1237 1052 1203 1170 1185 1236 c 1
 1497 1449 l 1
 1461 141 l 1
 1240 -13 l 1
 1224 15 l 2
 1022 374 774 645 509 884 c 1
 496 761 490 643 490 530 c 0
EndSplineSet
Validated: 1
EndChar

StartChar: O
Encoding: 48 79 165
Width: 1450
Flags: W
HStem: -4 254<578.962 742.438> 1215 201<530.457 748.745>
VStem: 22 280<567.163 784.353> 1042 311<568.25 857.674>
LayerCount: 2
Fore
SplineSet
616 1215 m 0
 595 1215 584 1212 580 1211 c 2
 577 1211 l 2
 540 1211 436 1164 395 1124 c 2
 382 1112 l 1
 315 1190 l 1
 330 1208 l 2
 437 1330 544 1416 728 1416 c 0
 1010 1416 1353 1286 1353 760 c 0
 1353 400 847 -4 565 -4 c 0
 126 -4 42 410 22 536 c 1
 22 562 l 2
 22 852 208 998 328 1082 c 1
 353 1091 376 1096 398 1098 c 1
 373 1043 l 2
 320 941 305 803 302 774 c 1
 302 760 l 1
 302 518 521 250 718 250 c 2
 733 250 l 2
 847 250 956 334 1008 456 c 1
 1033 534 1042 595 1042 667 c 0
 1042 897 817 1215 616 1215 c 0
EndSplineSet
Validated: 1
EndChar

StartChar: P
Encoding: 49 80 166
Width: 1232
Flags: W
HStem: 570 86<539.933 701.006> 1183 237<506.59 725.605>
VStem: 249 255<160 1176.58> 873 306<891.825 1041.11>
LayerCount: 2
Fore
SplineSet
203 1386 m 1
 318 1420 440 1420 558 1420 c 0
 882 1420 1179 1300 1179 1027 c 0
 1179 786 757 570 580 570 c 1
 564 589 551 577 542 610 c 1
 526 627 538 656 565 656 c 0
 661 656 873 759 873 895 c 0
 873 1050 743 1183 571 1183 c 0
 550 1183 529 1179 504 1177 c 1
 504 160 l 1
 192 -30 l 1
 200 29 l 1
 233 261 249 491 249 744 c 0
 249 889 243 1037 225 1191 c 1
 171 1190 119 1185 68 1170 c 2
 -27 1142 l 1
 203 1386 l 1
EndSplineSet
Validated: 1
EndChar

StartChar: Q
Encoding: 50 81 167
Width: 1660
Flags: W
HStem: -282 233<1302.36 1447.46> 1215 201<518.607 724.13>
VStem: 11 280<538.402 760.43> 1021 321<570.471 855.215> 1459 68<-39.581 -8.80384>
LayerCount: 2
Fore
SplineSet
599 375 m 1
 586 373 551 344 516 324 c 1
 467 338 l 1
 528 278 599 235 668 225 c 1
 600 360 609 367 599 375 c 1
550 -4 m 0
 115 -4 31 393 11 513 c 1
 11 539 l 2
 11 826 203 977 323 1060 c 1
 415 1123 l 1
 366 1026 l 2
 315 923 293 775 291 747 c 1
 291 747 291 744 291 738 c 0
 291 698 300 528 447 370 c 1
 605 574 l 2
 614 585 656 620 705 620 c 0
 812 620 805 501 920 323 c 1
 955 368 1021 458 1021 661 c 0
 1021 893 799 1215 601 1215 c 0
 580 1215 569 1212 565 1211 c 2
 562 1211 l 2
 526 1211 422 1164 382 1124 c 2
 359 1102 l 1
 293 1180 l 1
 308 1197 l 2
 413 1319 530 1416 711 1416 c 0
 990 1416 1342 1286 1342 759 c 0
 1342 564 1188 362 1016 218 c 1
 1136 96 1340 -49 1416 -49 c 0
 1426 -49 1434 -46 1439 -40 c 0
 1447 -31 1447 -26 1459 -4 c 2
 1477 29 l 1
 1527 -24 l 1
 1517 -123 1496 -282 1346 -282 c 0
 1235 -282 954 -136 788 62 c 1
 707 22 620 -4 550 -4 c 0
EndSplineSet
Validated: 1
EndChar

StartChar: R
Encoding: 51 82 168
Width: 1387
Flags: W
HStem: 189 20G<1285 1321.94> 1189 231<518 849.512>
VStem: 230 295<171 624.934 689.572 764.722> 251 259<173.812 1184> 929 279<952.198 1127>
LayerCount: 2
Fore
SplineSet
929 992 m 1xd8
 929 1149 854 1196 518 1202 c 1
 517 1033 510 931 510 774 c 0xd8
 510 576 525 382 525 186 c 2
 525 171 l 1
 230 -31 l 1
 230 0 l 2xe8
 230 236 251 431 251 683 c 0
 251 824 244 913 244 1100 c 1
 237 1184 l 1
 228 1187 213 1189 192 1189 c 0
 120 1189 -7 1171 -42 1161 c 1
 192 1402 l 1
 288 1414 367 1420 464 1420 c 2
 586 1420 l 2
 1097 1420 1200 1237 1208 1094 c 1
 1208 896 980 789 855 717 c 1
 995 496 1216 180 1263 180 c 0
 1267 180 1274 182 1285 189 c 2
 1314 209 l 1
 1341 141 l 1
 1107 -3 l 1
 1076 -28 1046 -28 1040 -28 c 0
 1000 -28 965 -3 940 33 c 0
 800 233 655 433 569 669 c 2
 560 691 l 1
 760 786 l 1
 842 840 929 935 929 992 c 1xd8
EndSplineSet
Validated: 1
EndChar

StartChar: S
Encoding: 52 83 169
Width: 1257
Flags: W
HStem: 0 178<272.5 679.5> 1271 149<543.296 818>
VStem: 857 291<305 646.5>
LayerCount: 2
Fore
SplineSet
391 0 m 0
 154 0 34 127 34 179 c 0
 34 219 66 257 282 380 c 1
 308 394 l 1
 323 370 l 2
 428 204 536 178 634 178 c 1
 725 182 857 256 857 354 c 1
 857 531 650 595 650 595 c 1
 289 696 l 1
 263 704 56 747 56 922 c 1
 56 1190 506 1420 773 1420 c 0
 863 1420 951 1398 1019 1336 c 1
 1038 1317 1056 1301 1056 1278 c 1
 1051 1260 1053 1249 1021 1234 c 1
 806 1114 l 1
 790 1135 l 2
 729 1214 648 1271 553 1271 c 1
 448 1264 346 1212 346 1098 c 0
 346 1096 347 1089 347 1083 c 0
 347 956 553 883 561 882 c 2
 888 792 l 2
 893 791 1148 739 1148 554 c 0
 1148 366 780 0 391 0 c 0
EndSplineSet
Validated: 1
EndChar

StartChar: T
Encoding: 53 84 170
Width: 1411
Flags: W
HStem: 1170 250<762.273 1121.95>
VStem: 457 327<172.662 839.135> 465 290<222.878 1164.89>
LayerCount: 2
Fore
SplineSet
222 1433 m 1xa0
 294 1428 404 1421 586 1420 c 1
 605 1447 624 1448 644 1420 c 1
 1351 1420 l 1
 1317 1377 l 2
 1138 1152 986 1175 765 1170 c 1
 757 1061 755 954 755 850 c 0xa0
 755 618 769 400 784 182 c 1
 457 -31 l 1xc0
 465 1181 l 1
 -67 1211 l 1
 222 1433 l 1xa0
EndSplineSet
Validated: 1
EndChar

StartChar: U
Encoding: 54 85 171
Width: 1633
Flags: W
HStem: -6 238<363.827 920.981>
LayerCount: 2
Fore
SplineSet
309 1378 m 2
 372 857 405 232 788 232 c 0
 1102 232 1146 526 1185 848 c 1
 1185 1215 l 1
 1520 1466 l 1
 1488 1338 l 2
 1291 636 1369 -6 638 -6 c 0
 95 -6 101 626 52 1048 c 1
 44 1093 40 1139 40 1170 c 0
 40 1259 73 1268 142 1316 c 1
 304 1423 l 1
 309 1378 l 2
EndSplineSet
Validated: 1
EndChar

StartChar: V
Encoding: 55 86 172
Width: 1647
Flags: W
VStem: 1111 0<1255 1262>
LayerCount: 2
Fore
SplineSet
937 170 m 0
 937 164 939 129 953 119 c 1
 635 -57 l 1
 645 -19 l 2
 645 -17 645 -15 645 -8 c 0
 645 31 635 74 618 116 c 1
 436 488 309 914 71 1215 c 1
 64 1217 56 1219 41 1219 c 0
 30 1219 13 1216 -8 1207 c 1
 -30 1196 l 1
 -67 1253 l 1
 229 1443 l 1
 240 1446 251 1448 261 1448 c 0
 274 1448 287 1445 301 1439 c 1
 327 1422 350 1388 363 1369 c 1
 841 400 l 1
 915 559 1086 966 1111 1262 c 1
 1111 1255 l 1
 1558 1478 l 1
 1521 1416 l 1
 1329 1037 1081 642 968 301 c 1
 944 234 937 196 937 170 c 0
EndSplineSet
Validated: 1
EndChar

StartChar: W
Encoding: 56 87 173
Width: 2625
Flags: W
HStem: -29 21G<603.333 649.675>
LayerCount: 2
Fore
SplineSet
1917 193 m 0
 1917 171 1923 154 1927 137 c 1
 1662 -19 l 1
 1652 0 l 1
 1542 364 1383 667 1221 969 c 1
 895 309 l 1
 861 227 854 172 854 120 c 2
 854 94 l 1
 610 -29 l 1
 599 4 l 1
 461 382 279 865 28 1185 c 1
 22 1188 15 1190 7 1190 c 0
 2 1190 -6 1189 -17 1184 c 2
 -45 1172 l 1
 -67 1236 l 1
 236 1431 l 1
 251 1408 l 2
 457 1112 610 745 779 370 c 1
 894 637 1061 934 1061 1182 c 0
 1061 1203 1059 1230 1058 1244 c 1
 1353 1419 l 1
 1824 401 l 1
 1906 559 2003 792 2132 1244 c 1
 2531 1433 l 1
 2493 1362 l 2
 2293 987 2082 658 1942 275 c 1
 1924 244 1917 219 1917 193 c 0
EndSplineSet
Validated: 1
EndChar

StartChar: X
Encoding: 57 88 174
Width: 1449
Flags: W
HStem: 17 21G<1078.5 1183.5>
LayerCount: 2
Fore
SplineSet
192 1160 m 0
 174 1160 156 1144 143 1134 c 1
 77 1169 l 1
 103 1194 l 2
 253 1338 381 1396 405 1396 c 0
 407 1396 l 0
 454 1387 442 1378 466 1350 c 1
 747 887 l 1
 885 1088 869 1108 878 1237 c 1
 1385 1462 l 1
 852 793 l 1
 974 611 1081 429 1242 266 c 1
 1252 258 1267 248 1283 248 c 0
 1301 248 1315 255 1348 269 c 2
 1371 279 l 1
 1416 201 l 1
 1393 188 l 2
 1306 137 1262 94 1105 17 c 0
 1103 17 1096 17 1090 17 c 0
 1067 18 1016 15 996 83 c 1
 874 230 752 381 662 577 c 1
 598 496 489 362 489 178 c 0
 489 159 489 159 492 130 c 1
 -53 -101 l 1
 19 -13 l 1
 210 213 415 420 579 679 c 1
 463 834 375 1003 223 1146 c 0
 218 1151 205 1160 192 1160 c 0
EndSplineSet
Validated: 1
EndChar

StartChar: Y
Encoding: 58 89 175
Width: 1615
Flags: W
VStem: 610 285<80 472.139>
LayerCount: 2
Fore
SplineSet
-11 1187 m 1
 -67 1242 l 1
 200 1419 l 1
 219 1427 224 1429 244 1429 c 1
 295 1424 293 1417 323 1384 c 0
 519 1170 696 938 835 672 c 1
 945 837 1080 987 1080 1177 c 0
 1080 1197 1078 1218 1074 1239 c 1
 1071 1239 l 1
 1549 1492 l 1
 971 615 l 1
 911 534 895 431 895 317 c 0
 895 239 902 162 904 80 c 1
 610 -129 l 1
 610 55 l 2
 610 258 595 487 482 685 c 1
 375 889 219 1039 72 1187 c 0
 69 1189 58 1195 48 1198 c 0
 45 1197 43 1197 42 1197 c 0
 33 1196 -11 1187 -11 1187 c 1
EndSplineSet
Validated: 1
EndChar

StartChar: Z
Encoding: 59 90 176
Width: 1284
Flags: W
HStem: -13 301<462.215 906.476> 1117 283<360.205 751.888>
LayerCount: 2
Fore
SplineSet
231 1103 m 1
 144 1108 50 1121 50 1193 c 0
 50 1223 70 1255 95 1284 c 1
 291 1497 l 1
 344 1551 l 1
 344 1478 l 2
 344 1446 377 1400 600 1400 c 0
 772 1400 983 1427 1121 1434 c 2
 1178 1437 l 1
 508 594 l 1
 448 498 427 436 427 396 c 0
 427 331 492 288 710 288 c 0
 837 288 969 306 1094 319 c 2
 1159 326 l 1
 898 0 l 1
 771 -10 675 -13 579 -13 c 0
 484 -13 387 -9 291 0 c 1
 240 3 40 42 40 123 c 3
 40 286 84 313 165 422 c 1
 755 1117 l 1
 231 1103 l 1
EndSplineSet
Validated: 1
EndChar

StartChar: a
Encoding: 66 97 177
Width: 1201
Flags: W
HStem: 0 243<245.611 469.893>
VStem: -12 213<120.5 418.5>
LayerCount: 2
Fore
SplineSet
348 732 m 0
 309 732 261 704 246 697 c 1
 185 741 l 1
 439 923 l 1
 456 933 480 943 507 943 c 0
 562 943 611 908 646 867 c 0
 829 655 950 447 1090 181 c 2
 1101 162 l 1
 871 5 l 1
 857 36 l 1
 812 131 771 209 725 272 c 1
 707 245 l 2
 664 181 494 0 293 0 c 0
 159 0 -12 49 -12 192 c 0
 -12 430 329 570 520 591 c 1
 495 633 454 670 380 724 c 1
 366 732 354 732 348 732 c 0
667 279 m 2
 703 294 l 1
 613 392 503 440 317 440 c 0
 279 440 201 407 201 361 c 0
 201 267 340 243 445 243 c 0
 536 243 619 258 667 279 c 2
EndSplineSet
Validated: 1
EndChar

StartChar: b
Encoding: 67 98 178
Width: 1211
Flags: W
HStem: 0 21G<370.5 621.5> 747 195<598.5 913>
VStem: 166 262<312.688 699 715 1153.97> 884 232<357 673.891>
LayerCount: 2
Fore
SplineSet
363 1431 m 1
 377 1429 428 1420 428 1318 c 2
 428 715 l 1
 480 770 l 2
 554 850 660 942 814 942 c 0
 1012 942 1116 757 1116 587 c 0
 1116 295 740 0 503 0 c 0
 238 0 166 288 166 477 c 2
 166 1060 l 2
 166 1151 135 1154 119 1154 c 0
 105 1154 80 1149 48 1130 c 2
 29 1118 l 1
 -31 1188 l 1
 195 1335 l 1
 213 1348 334 1431 363 1431 c 1
514 729 m 2
 428 699 l 1
 428 559 l 2
 428 311 483 205 706 205 c 0
 790 205 884 311 884 403 c 0
 884 551 795 747 614 747 c 0
 583 747 550 741 514 729 c 2
EndSplineSet
Validated: 1
EndChar

StartChar: c
Encoding: 68 99 179
Width: 896
Flags: W
HStem: 0 21G<285.5 473.5> 775 163<340.5 623.5>
VStem: 10 209<338 656>
LayerCount: 2
Fore
SplineSet
839 271 m 1
 769 193 l 2
 705 123 567 0 380 0 c 0
 191 0 12 253 10 423 c 1
 11 655 310 936 556 938 c 1
 691 935 802 855 802 784 c 3
 802 701 649 614 608 595 c 1
 583 585 l 1
 568 607 l 2
 519 683 474 775 373 775 c 3
 308 775 219 696 219 616 c 3
 219 419 463 204 604 203 c 0
 605 203 605 203 606 203 c 0
 702 203 839 271 839 271 c 1
EndSplineSet
Validated: 1
EndChar

StartChar: d
Encoding: 69 100 180
Width: 1317
Flags: W
HStem: 0 176<377.635 459.887> 802 136<268.817 452.267>
VStem: 19 199<394.925 683.465> 687 325<350.682 604> 687 270<1170.85 1362>
LayerCount: 2
Fore
SplineSet
487 176 m 0xf0
 555 180 687 379 687 495 c 0
 687 499 687 504 687 508 c 1
 687 604 l 1
 659 543 624 493 595 482 c 1
 565 467 l 1
 553 504 l 1
 539 625 540 802 270 802 c 0
 268 802 l 0
 238 802 218 763 218 618 c 0
 218 409 348 176 480 176 c 0
 483 176 485 176 487 176 c 0xf0
436 938 m 0
 553 938 642 863 687 791 c 1
 687 1362 l 1
 957 1462 l 1xe8
 1012 345 l 1
 1012 272 1046 255 1074 255 c 0
 1088 255 1113 260 1144 278 c 2
 1164 289 l 1
 1224 222 l 1
 882 28 l 2
 858 15 827 0 790 0 c 2
 776 0 l 2
 711 0 694 38 694 72 c 2
 694 202 l 1
 561 89 429 0 275 0 c 0
 85 0 19 371 19 496 c 0
 19 730 216 938 436 938 c 0
EndSplineSet
Validated: 1
EndChar

StartChar: e
Encoding: 70 101 181
Width: 914
Flags: W
HStem: 0 21G<320 517> 755 183<318.5 631.5>
VStem: 11 211<437.124 557.3> 469 330<639.515 823.5>
LayerCount: 2
Fore
SplineSet
222 587 m 1
 222 583 l 2
 222 444 377 220 595 217 c 1
 727 238 767 280 793 280 c 0
 799 280 804 278 810 272 c 0
 820 262 820 248 810 238 c 0
 757 180 622 0 412 0 c 3
 228 0 11 176 11 375 c 3
 11 571 220 938 571 938 c 3
 692 938 799 877 799 770 c 3
 799 561 443 387 372 358 c 0
 336 343 305 384 337 404 c 0
 437 467 469 559 469 644 c 0
 469 693 445 755 351 755 c 0
 286 755 224 676 222 587 c 1
EndSplineSet
Validated: 1
EndChar

StartChar: f
Encoding: 71 102 182
Width: 1088
Flags: W
HStem: 506 186<32.5978 167.936 498.901 765.641> 1257 171<545.717 799.659>
VStem: 235 254<155.37 502.75 693.937 1036.46> 256 263<-219 270.472>
LayerCount: 2
Fore
SplineSet
33 705 m 1xd0
 235 690 l 1
 235 744 l 1
 239 1191 485 1428 720 1428 c 0
 803 1428 931 1361 950 1350 c 1
 953 1306 l 1
 789 1164 l 1
 749 1147 l 1
 750 1167 l 1
 743 1177 667 1257 595 1257 c 0
 529 1257 489 1146 489 964 c 0xe0
 489 949 495 762 497 696 c 1
 530 694 564 692 597 692 c 0
 682 692 762 700 840 700 c 2
 908 700 l 1
 859 652 l 2
 824 618 788 559 773 506 c 2
 766 484 l 1
 743 487 l 2
 685 494 634 506 566 506 c 0
 551 506 517 500 498 498 c 1
 519 -219 l 1
 256 -406 l 1
 249 513 l 1
 -23 506 l 1
 33 705 l 1xd0
EndSplineSet
Validated: 1
EndChar

StartChar: g
Encoding: 72 103 183
Width: 1099
Flags: W
HStem: -429 175<368.205 655.427> 280 110<413.727 666.25> 824 126<290.352 598.739>
VStem: 26 213<-136.93 28.9902 529.212 728.164> 739 204<472.475 699.366> 804 160<-148.453 -24.1436>
LayerCount: 2
Fore
SplineSet
394 824 m 0xf8
 349 824 309 802 282 783 c 1
 238 721 236 699 236 677 c 0
 236 676 236 674 236 672 c 0
 236 524 372 390 555 390 c 0
 659 390 739 478 739 533 c 2
 739 570 l 2
 739 729 584 824 394 824 c 0xf8
184 132 m 1
 187 133 211 142 223 142 c 0
 225 142 258 113 258 112 c 0
 258 87 239 80 239 0 c 0
 239 -156 371 -254 558 -254 c 0
 681 -254 804 -191 804 -146 c 2
 804 -108 l 2xf4
 804 46 369 181 208 181 c 2
 163 181 l 1
 228 302 l 1
 114 331 23 471 23 568 c 0
 23 746 172 838 226 878 c 1
 304 923 464 950 534 950 c 0
 561 950 687 927 822 927 c 0
 876 927 931 931 981 943 c 2
 1040 958 l 1
 946 789 l 1
 927 771 l 1
 937 747 943 719 943 688 c 0xf8
 943 429 823 291 407 280 c 1
 783 266 964 123 964 28 c 0xf4
 964 -221 726 -429 434 -429 c 0
 191 -429 26 -231 26 -112 c 0
 26 46 170 126 184 132 c 1
EndSplineSet
Validated: 1
EndChar

StartChar: h
Encoding: 73 104 184
Width: 1282
Flags: W
VStem: 156 260<768.064 1154.97>
LayerCount: 2
Fore
SplineSet
416 1320 m 1
 438 473 l 1
 644 677 822 943 969 944 c 0
 1106 944 1153 615 1189 133 c 1
 950 -26 l 1
 944 0 l 1
 904 288 908 574 750 574 c 0
 749 574 747 575 745 574 c 0
 665 554 439 292 244 -0 c 1
 193 -83 l 1
 156 1061 l 1
 156 1151 125 1155 109 1155 c 0
 95 1155 70 1150 38 1131 c 2
 18 1119 l 1
 -41 1188 l 1
 241 1368 l 1
 258 1380 320 1423 363 1423 c 0
 396 1423 413 1396 416 1320 c 1
EndSplineSet
Validated: 1
EndChar

StartChar: i
Encoding: 74 105 185
Width: 613
Flags: W
VStem: 209 247<120 698.997>
LayerCount: 2
Fore
SplineSet
293 1062 m 0
 220 1062 157 1151 157 1213 c 0
 157 1218 158 1224 159 1229 c 0
 165 1258 188 1282 206 1297 c 1
 358 1409 l 1
 370 1374 l 2
 391 1314 433 1264 484 1217 c 2
 509 1193 l 1
 323 1069 l 1
 315 1066 305 1062 293 1062 c 0
212 610 m 2
 212 696 181 699 165 699 c 0
 151 699 126 694 94 676 c 2
 75 665 l 1
 15 731 l 1
 328 922 l 1
 354 943 377 952 396 952 c 0
 435 952 456 912 456 856 c 2
 456 120 l 1
 209 -26 l 1
 212 610 l 2
EndSplineSet
Validated: 1
EndChar

StartChar: j
Encoding: 75 106 186
Width: 581
Flags: W
VStem: 213 250<-239 677.998>
LayerCount: 2
Fore
SplineSet
259 1062 m 0
 179 1062 123 1183 123 1236 c 0
 123 1241 124 1246 125 1250 c 0
 131 1273 154 1291 172 1302 c 1
 324 1413 l 1
 354 1353 l 1
 375 1289 399 1275 450 1224 c 1
 475 1197 l 1
 289 1071 l 2
 284 1068 271 1062 259 1062 c 0
170 678 m 0
 156 678 131 674 99 658 c 1
 80 646 l 1
 20 716 l 1
 333 917 l 1
 347 927 371 944 401 944 c 0
 413 944 425 941 438 934 c 1
 449 926 461 909 461 870 c 2
 463 -239 l 1
 213 -402 l 1
 217 612 l 2
 217 676 186 678 170 678 c 0
EndSplineSet
Validated: 1
EndChar

StartChar: k
Encoding: 76 107 187
Width: 1184
Flags: W
HStem: 6 21G<830.5 859> 184 20G<1068.5 1073.5>
VStem: 177 258<143 464 485 1160.69> 629 304<657 868.482>
LayerCount: 2
Fore
SplineSet
172 1067 m 2
 172 1158 141 1161 126 1161 c 0
 98 1161 69 1144 57 1137 c 2
 37 1126 l 1
 -26 1194 l 1
 296 1396 l 2
 309 1404 339 1426 369 1426 c 0
 383 1426 397 1422 410 1409 c 0
 422 1397 435 1375 435 1326 c 2
 435 485 l 1
 496 529 629 620 629 694 c 0
 629 730 594 757 547 757 c 2
 471 757 l 1
 698 950 l 1
 710 950 l 2
 904 950 933 875 933 826 c 0
 933 743 781 636 671 561 c 1
 769 434 873 349 965 247 c 1
 1010 208 1035 201 1050 201 c 0
 1060 201 1066 204 1071 204 c 0
 1076 204 1081 201 1087 191 c 0
 1094 179 1092 166 1081 158 c 2
 907 27 l 1
 886 12 867 6 851 6 c 0
 810 6 780 44 746 76 c 1
 435 464 l 1
 435 143 l 1
 177 -25 l 1
 172 1067 l 2
EndSplineSet
Validated: 1
EndChar

StartChar: l
Encoding: 77 108 188
Width: 538
Flags: W
VStem: 168 250<131 1155>
LayerCount: 2
Fore
SplineSet
173 1062 m 2
 173 1152 142 1155 127 1155 c 0
 112 1155 87 1150 55 1131 c 2
 35 1119 l 1
 -23 1189 l 1
 288 1383 l 1
 315 1398 336 1413 355 1413 c 0
 394 1413 415 1371 415 1313 c 2
 418 131 l 1
 168 -28 l 1
 173 1062 l 2
EndSplineSet
Validated: 1
EndChar

StartChar: m
Encoding: 78 109 189
Width: 2039
Flags: W
HStem: 583 358<773.5 1059.5> 605 333<1463 1772.5>
LayerCount: 2
Fore
SplineSet
206 590 m 0x80
 194 673 167 683 141 683 c 0
 127 683 102 678 70 659 c 2
 51 648 l 1
 -9 715 l 1
 307 911 l 1
 327 926 348 941 375 941 c 1x80
 408 938 431 928 453 843 c 1
 495 454 l 1
 736 744 904 944 1019 944 c 3
 1171 944 1170 653 1188 419 c 1
 1383 674 1536 938 1734 938 c 1
 1886 930 1899 535 1944 129 c 1
 1700 -25 l 1
 1695 0 l 1
 1679 146 1659 605 1518 605 c 3x40
 1390 605 1197 256 1065 45 c 2
 1026 -16 l 1
 1012 52 l 2
 966 261 948 583 803 583 c 3
 643 583 433 216 280 -0 c 1
 228 -80 l 1
 228 0 l 2
 228 67 229 134 229 202 c 0
 229 328 226 455 206 590 c 0x80
EndSplineSet
Validated: 1
EndChar

StartChar: n
Encoding: 79 110 190
Width: 1333
Flags: W
HStem: 924 20G<366.5 397 1017 1073.5>
LayerCount: 2
Fore
SplineSet
1044 944 m 1
 1046 944 l 0
 1101 944 1140 890 1168 812 c 0
 1225 652 1237 388 1251 260 c 1
 1049 -5 l 1
 1037 53 l 2
 999 238 973 581 867 581 c 3
 718 581 513 315 282 -0 c 1
 228 -80 l 1
 228 0 l 2
 228 67 229 134 229 202 c 0
 229 328 226 455 206 590 c 0
 194 673 167 683 141 683 c 0
 127 683 102 678 70 659 c 2
 51 648 l 1
 -9 715 l 1
 310 911 l 1
 330 926 353 941 380 941 c 1
 414 938 438 929 461 843 c 1
 505 454 l 1
 637 608 749 738 842 825 c 0
 923 900 990 944 1044 944 c 1
EndSplineSet
Validated: 1
EndChar

StartChar: o
Encoding: 80 111 191
Width: 1025
Flags: W
HStem: 0 177<227.5 539.167> 735 203<373.111 532.596>
VStem: 6 193<317.055 502.744> 174 50<659.271 690.888> 689 227<278.5 534.415>
LayerCount: 2
Fore
SplineSet
174 691 m 0xd8
 211 827 411 938 523 938 c 3
 728 938 916 713 916 504 c 3
 916 279 632 0 325 0 c 0
 130 0 6 205 6 356 c 0xe8
 6 490 95 567 174 614 c 1xd8
 238 648 l 1
 226 624 217 608 208 570 c 1
 199 530 199 504 199 462 c 3xe8
 199 278 368 177 537 177 c 3
 630 177 689 243 689 314 c 0
 689 475 618 646 502 714 c 0
 483 725 444 735 414 735 c 0
 413 735 411 735 410 735 c 0
 340 733 246 704 224 669 c 0
 207 642 166 660 174 691 c 0xd8
EndSplineSet
Validated: 1
EndChar

StartChar: p
Encoding: 81 112 192
Width: 1209
Flags: W
HStem: 0 88<500.168 660.347> 722 216<642 934>
VStem: 204 271<-302 589.652> 847 267<269.451 532.343>
LayerCount: 2
Fore
SplineSet
544 0 m 1
 526 -2 500 28 500 46 c 1
 500 52 554 76 574 88 c 1
 706 156 847 207 847 332 c 3
 847 493 728 722 654 722 c 3
 630 722 494 603 477 492 c 1
 475 -302 l 1
 204 -390 l 1
 191 592 l 1
 191 679 160 682 144 682 c 0
 130 682 105 677 73 659 c 2
 54 647 l 1
 -6 714 l 1
 314 908 l 1
 332 921 357 938 385 938 c 1
 399 936 480 946 480 844 c 2
 480 716 l 1
 602 826 724 938 857 938 c 3
 1011 938 1114 650 1114 480 c 1
 1114 246 782 40 544 0 c 1
EndSplineSet
Validated: 1
EndChar

StartChar: q
Encoding: 82 113 193
Width: 1172
Flags: W
HStem: 0 21G<341.5 406> 728 210<347.5 585.572>
VStem: 10 243<387.547 522.618> 686 282<-254.171 79.161>
LayerCount: 2
Fore
SplineSet
480 32 m 2
 453 12 424 0 388 0 c 2
 371 0 l 1
 312 0 264 14 235 28 c 1
 110 115 10 212 10 376 c 0
 10 570 324 938 555 938 c 0
 693 938 759 901 890 875 c 2
 913 871 l 1
 968 -200 l 1
 968 -252 1017 -263 1100 -263 c 2
 1249 -263 l 1
 1135 -315 l 2
 1006 -375 880 -416 720 -446 c 2
 686 -453 l 1
 686 -425 686 -397 686 -368 c 0
 686 -310 686 -251 686 -190 c 0
 686 122 675 456 632 642 c 1
 568 700 555 728 366 728 c 0
 329 728 268 691 253 577 c 1
 253 560 l 1
 258 382 379 259 486 151 c 1
 494 147 502 146 507 146 c 1
 550 148 589 170 626 188 c 9
 628 164 l 25
 480 32 l 2
EndSplineSet
Validated: 1
EndChar

StartChar: r
Encoding: 83 114 194
Width: 1004
Flags: W
HStem: 686 252<609.5 823.021>
VStem: 193 282<121 599.094>
LayerCount: 2
Fore
SplineSet
465 842 m 2
 465 690 l 1
 646 848 l 1
 673 865 727 938 787 938 c 0
 833 938 882 896 923 748 c 2
 928 730 l 1
 709 556 l 1
 694 588 l 2
 684 610 647 686 615 686 c 3
 604 686 533 631 475 535 c 1
 475 121 l 1
 193 -26 l 1
 193 601 l 2
 193 687 162 690 146 690 c 0
 132 690 107 685 75 667 c 2
 56 656 l 1
 -4 722 l 1
 319 913 l 1
 346 932 373 942 397 942 c 0
 436 942 465 912 465 842 c 2
EndSplineSet
Validated: 1
EndChar

StartChar: s
Encoding: 84 115 195
Width: 882
Flags: W
HStem: 0 159<183 468> 761 177<321 603.34>
VStem: 44 223<471 712.5> 541 232<203 490.5>
LayerCount: 2
Fore
SplineSet
530 938 m 1
 635 935 731 877 731 812 c 1
 723 746 636 722 554 653 c 2
 529 632 l 1
 509 661 l 1
 449 742 370 761 328 761 c 0
 314 761 304 758 300 756 c 0
 278 742 267 719 267 706 c 3
 267 498 773 599 773 382 c 3
 773 205 453 0 246 0 c 3
 120 0 28 53 28 144 c 3
 28 245 191 334 249 376 c 2
 271 391 l 1
 334 326 l 1
 262 285 l 1
 258 279 259 280 259 280 c 0
 259 275 297 159 439 159 c 3
 497 159 541 186 541 220 c 3
 541 447 44 381 44 561 c 3
 44 742 379 938 530 938 c 1
EndSplineSet
Validated: 1
EndChar

StartChar: t
Encoding: 85 116 196
Width: 847
Flags: W
HStem: 0 21G<409.5 513> 882 213<555 721.09>
VStem: 266 289<202.025 866 1095 1274>
LayerCount: 2
Fore
SplineSet
467 0 m 2
 462 0 l 1
 357 13 266 -12 266 207 c 2
 266 866 l 1
 -17 866 l 1
 24 912 l 2
 81 976 108 1037 117 1072 c 2
 122 1092 l 1
 266 1092 l 1
 266 1274 l 1
 555 1449 l 1
 555 1095 l 1
 846 1095 l 1
 819 1052 l 1
 766 975 738 931 661 878 c 1
 555 882 l 1
 555 267 l 2
 555 218 592 203 613 198 c 1
 647 199 668 218 689 241 c 2
 724 276 l 1
 750 175 l 1
 681 83 559 0 467 0 c 2
EndSplineSet
Validated: 1
EndChar

StartChar: u
Encoding: 86 117 197
Width: 1243
Flags: W
HStem: 0 301<339 636>
VStem: 877 270<107.336 453.95> 877 248<121.096 455 590.891 795>
LayerCount: 2
Fore
SplineSet
364 0 m 0xa0
 314 0 285 43 268 110 c 0
 235 233 237 436 200 603 c 1
 190 686 167 689 139 689 c 0
 124 689 99 684 68 667 c 2
 48 656 l 1
 -11 720 l 1
 282 912 l 2
 306 928 332 938 355 938 c 0
 392 938 421 913 422 848 c 1
 441 685 443 301 562 301 c 0
 710 301 890 647 890 783 c 2
 890 795 l 1
 1127 981 l 1
 1127 922 l 2
 1127 801 1125 678 1125 559 c 0xa0
 1125 315 1136 204 1147 117 c 1xc0
 877 -65 l 1
 877 455 l 1
 814 333 711 166 576 73 c 0
 512 28 441 -0 364 0 c 0xa0
EndSplineSet
Validated: 1
EndChar

StartChar: v
Encoding: 87 118 198
Width: 1238
Flags: W
HStem: 0 21G<535 661>
VStem: 886 271<621 858>
LayerCount: 2
Fore
SplineSet
1157 816 m 0
 1157 719 690 83 632 0 c 1
 542 0 l 1
 535 19 l 1
 419 304 290 570 79 747 c 0
 78 747 76 747 74 747 c 0
 68 747 57 746 44 738 c 2
 22 725 l 1
 -25 788 l 1
 243 919 l 2
 262 928 274 938 298 938 c 1
 427 930 539 568 724 293 c 1
 856 538 l 1
 876 571 886 606 886 636 c 0
 886 675 871 719 813 719 c 2
 807 719 l 1
 792 718 784 713 734 665 c 2
 711 644 l 1
 645 715 l 1
 666 733 l 2
 801 847 899 944 973 944 c 0
 1051 944 1157 900 1157 816 c 0
EndSplineSet
Validated: 1
EndChar

StartChar: w
Encoding: 88 119 199
Width: 1981
Flags: W
HStem: 3 21G<450 677.5>
VStem: 1630 270<615 852>
LayerCount: 2
Fore
SplineSet
1046 879 m 1
 1047 879 1048 879 1049 879 c 0
 1091 879 1132 843 1175 784 c 0
 1254 674 1338 482 1444 287 c 1
 1602 532 l 1
 1620 565 1630 600 1630 630 c 0
 1630 669 1616 713 1560 713 c 2
 1555 713 l 1
 1540 712 1532 707 1485 659 c 2
 1463 638 l 1
 1400 709 l 1
 1420 727 l 2
 1549 841 1642 938 1716 938 c 0
 1794 938 1900 894 1900 810 c 0
 1900 731 1580 352 1364 -6 c 1
 1271 -6 l 1
 1141 385 981 592 917 597 c 1
 878 574 787 368 568 3 c 1
 496 3 l 1
 404 280 274 690 81 743 c 1
 77 747 l 2
 76 747 74 748 72 748 c 0
 66 748 55 746 42 738 c 2
 20 725 l 1
 -27 788 l 1
 240 919 l 2
 253 926 270 938 292 938 c 0
 304 938 318 935 333 925 c 0
 430 864 534 557 643 338 c 1
 802 584 l 1
 853 661 893 734 931 788 c 0
 969 842 1005 878 1046 879 c 1
EndSplineSet
Validated: 1
EndChar

StartChar: x
Encoding: 89 120 200
Width: 1197
Flags: W
HStem: 10 21G<323 364.08>
LayerCount: 2
Fore
SplineSet
84 118 m 0
 84 127 84 152 122 183 c 1
 458 436 l 1
 253 704 l 1
 242 721 220 734 186 734 c 0
 145 734 101 715 82 706 c 2
 63 697 l 1
 13 754 l 1
 329 924 l 1
 349 934 366 938 381 938 c 0
 413 938 435 916 460 879 c 1
 650 582 l 1
 738 644 797 682 797 718 c 0
 797 734 785 759 725 803 c 2
 697 824 l 1
 877 963 l 1
 1002 910 l 1
 1048 883 1063 861 1063 839 c 1
 1061 824 1061 806 1018 778 c 1
 700 528 l 1
 900 255 l 1
 941 202 990 174 1019 174 c 0
 1020 174 1021 174 1022 174 c 2
 1083 227 l 1
 1109 145 l 1
 927 17 888 -6 844 -6 c 0
 806 -6 771 10 748 41 c 1
 510 390 l 1
 454 343 387 298 387 254 c 0
 387 238 396 216 434 186 c 1
 543 135 l 1
 330 10 l 1
 316 11 84 17 84 118 c 0
EndSplineSet
Validated: 1
EndChar

StartChar: y
Encoding: 90 121 201
Width: 1196
Flags: W
HStem: -5 301<344.5 609.5>
VStem: 826 247<-279.113 418 577.996 790>
LayerCount: 2
Fore
SplineSet
361 -5 m 1
 328 -5 304 12 287 42 c 0
 226 146 240 401 196 598 c 1
 186 681 163 684 135 684 c 0
 120 684 95 679 64 662 c 2
 44 650 l 1
 -15 715 l 1
 278 907 l 2
 290 914 320 935 351 935 c 0
 366 935 381 930 394 918 c 1
 417 898 419 866 419 843 c 1
 439 680 441 296 560 296 c 1
 659 303 839 643 839 778 c 2
 839 790 l 1
 1075 976 l 1
 1075 916 l 2
 1075 795 1073 671 1073 551 c 2
 1073 302 l 2
 1073 37 1081 -33 1085 -247 c 0
 1085 -248 1085 -249 1085 -250 c 0
 1085 -416 832 -406 680 -427 c 2
 646 -431 l 1
 646 -323 l 1
 670 -319 l 1
 754 -302 826 -268 826 -234 c 2
 826 418 l 1
 757 259 637 62 456 9 c 0
 426 -0 394 -5 361 -5 c 1
EndSplineSet
Validated: 1
EndChar

StartChar: z
Encoding: 91 122 202
Width: 902
Flags: W
HStem: 0 245<366.032 574> 698 229<314.016 460>
LayerCount: 2
Fore
SplineSet
130 698 m 2
 128 698 126 698 124 698 c 0
 97 698 35 701 35 764 c 3
 35 872 180 977 260 1033 c 1
 308 1064 l 1
 308 1010 l 2
 308 949 338 927 423 927 c 0
 552 927 668 938 775 959 c 2
 847 974 l 1
 802 916 l 1
 662 747 498 587 396 402 c 1
 368 364 353 336 353 317 c 0
 353 273 437 245 542 245 c 0
 661 245 726 256 796 256 c 2
 858 256 l 1
 574 0 l 1
 422 0 l 2
 174 0 47 17 47 109 c 0
 47 185 96 209 123 258 c 1
 460 698 l 1
 130 698 l 2
EndSplineSet
Validated: 1
EndChar

StartChar: dottedcircle
Encoding: 196 9676 203
Width: 1150
Flags: W
HStem: -40 198<499.346 651.228> 20 199<299.988 454.703 697.988 852.703> 194 199<151.988 306.703 845.988 1000.7> 428 199<100.834 252.887 896.834 1048.89> 662 199<151.988 306.703 845.988 1000.7> 836 199<299.988 454.703 697.988 852.703> 896 199<498.834 650.887>
VStem: 90 176<436.54 614.787> 141 176<205.519 383.321 673.519 851.321> 289 176<31.5186 209.321 847.224 1025.32> 488 176<-31.3299 147.097 904.54 1082.79> 687 176<31.5186 209.321 847.224 1025.32> 835 176<205.519 383.321 673.519 851.321> 886 176<436.54 614.787>
LayerCount: 2
Fore
SplineSet
90 527 m 0x1120
 90 577 109 619 163 626 c 0
 168 627 172 627 176 627 c 0
 230 627 266 587 266 527 c 0
 266 471 241 428 181 428 c 0
 175 428 169 427 163 428 c 0
 102 435 90 477 90 527 c 0x1120
1062 527 m 0x1024
 1062 471 1037 428 977 428 c 0
 971 428 965 427 959 428 c 0
 898 435 886 477 886 527 c 0
 886 577 905 619 959 626 c 0
 964 627 968 627 972 627 c 0
 1026 627 1062 587 1062 527 c 0x1024
664 995 m 0
 664 939 639 896 579 896 c 0
 573 896 567 895 561 896 c 0
 500 903 488 945 488 995 c 0
 488 1045 507 1087 561 1094 c 0
 566 1095 570 1095 574 1095 c 0x1220
 628 1095 664 1055 664 995 c 0
664 59 m 0
 664 3 639 -40 579 -40 c 0
 573 -40 567 -41 561 -40 c 0
 507 -33 488 4 488 49 c 0
 488 67 491 86 496 105 c 0
 503 133 530 158 576 158 c 0x9020
 629 158 664 119 664 59 c 0
840 723 m 0
 837 737 835 751 835 765 c 0
 835 819 863 861 922 861 c 0
 927 861 932 861 938 860 c 0
 990 854 1011 813 1011 764 c 0
 1011 751 1010 737 1007 723 c 0
 1002 697 970 662 922 662 c 0
 918 662 913 661 908 662 c 0x1828
 864 669 845 701 840 723 c 0
840 255 m 0
 837 269 835 283 835 297 c 0
 835 351 863 393 922 393 c 0
 927 393 932 393 938 392 c 0
 990 386 1011 345 1011 296 c 0
 1011 283 1010 269 1007 255 c 0
 1002 229 970 194 922 194 c 0
 918 194 913 193 908 194 c 0x3028
 864 201 845 233 840 255 c 0
146 723 m 0
 143 737 141 751 141 765 c 0
 141 819 169 861 228 861 c 0
 233 861 238 861 244 860 c 0
 296 854 317 813 317 764 c 0
 317 751 316 737 313 723 c 0
 308 697 276 662 228 662 c 0
 224 662 219 661 214 662 c 0x18a0
 170 669 151 701 146 723 c 0
146 255 m 0
 143 269 141 283 141 297 c 0
 141 351 169 393 228 393 c 0
 233 393 238 393 244 392 c 0
 296 386 317 345 317 296 c 0
 317 283 316 269 313 255 c 0
 308 229 276 194 228 194 c 0
 224 194 219 193 214 194 c 0x30a0
 170 201 151 233 146 255 c 0
294 896 m 0x1260
 291 910 289 924 289 938 c 0
 289 992 317 1035 376 1035 c 0x1460
 381 1035 386 1035 392 1034 c 0
 444 1028 465 987 465 938 c 0
 465 925 464 910 461 896 c 0x1260
 456 870 424 836 376 836 c 0
 372 836 367 835 362 836 c 0x1460
 318 843 299 874 294 896 c 0x1260
692 896 m 0x1230
 689 910 687 924 687 938 c 0
 687 992 715 1035 774 1035 c 0x1430
 779 1035 784 1035 790 1034 c 0
 842 1028 863 987 863 938 c 0
 863 925 862 910 859 896 c 0x1230
 854 870 822 836 774 836 c 0
 770 836 765 835 760 836 c 0x1430
 716 843 697 874 692 896 c 0x1230
294 81 m 0
 291 95 289 109 289 123 c 0
 289 177 317 219 376 219 c 0
 381 219 386 219 392 218 c 0
 444 212 465 171 465 122 c 0
 465 109 464 95 461 81 c 0
 456 55 424 20 376 20 c 0
 372 20 367 19 362 20 c 0x5060
 318 27 299 59 294 81 c 0
692 81 m 0
 689 95 687 109 687 123 c 0
 687 177 715 219 774 219 c 0
 779 219 784 219 790 218 c 0
 842 212 863 171 863 122 c 0x5030
 863 109 862 95 859 81 c 0
 854 55 822 20 774 20 c 0
 770 20 765 19 760 20 c 0
 716 27 697 59 692 81 c 0
EndSplineSet
Validated: 1
EndChar

StartChar: hatafqamatsmidmeteg
Encoding: 218 -1 204
Width: 474
VWidth: 2273
Flags: W
HStem: -590 218<687.742 845.51> -336 218<687.742 845.51> -290 149<84 210 308 435>
VStem: 210 98<-460.078 -290> 494 128<-576 -131> 670 194<-573.275 -389.221 -319.275 -135.221>
AnchorPoint: "N-4" 404 0 mark 0
LayerCount: 2
Fore
SplineSet
308 -290 m 1xbc
 308 -300 l 2
 308 -337 314 -361 319 -375 c 2
 358 -474 l 1
 334 -539 319 -558 293 -585 c 1
 283 -587 273 -590 259 -590 c 0
 244 -590 235 -586 224 -583 c 1
 190 -554 177 -527 162 -473 c 1
 200 -374 l 2
 206 -362 210 -309 210 -300 c 2
 210 -290 l 1
 84 -290 l 1
 84 -141 l 1
 435 -141 l 1
 435 -290 l 1
 308 -290 l 1xbc
622 -576 m 1
 494 -576 l 1
 494 -131 l 1
 622 -131 l 1
 622 -576 l 1
768 -590 m 0
 708 -590 670 -540 670 -481 c 0
 670 -418 712 -372 768 -372 c 0
 825 -372 864 -421 864 -481 c 0
 864 -543 823 -590 768 -590 c 0
768 -336 m 0xdc
 708 -336 670 -286 670 -227 c 0
 670 -164 712 -118 768 -118 c 0
 825 -118 864 -167 864 -227 c 0
 864 -289 823 -336 768 -336 c 0xdc
EndSplineSet
Validated: 1
Ligature2: "'ccmp' Hebrew HatafMeteg subtable" hatafqamats zerojoin meteg
Ligature2: "'ccmp' Hebrew HatafMeteg subtable" hatafqamats .null meteg
LCarets2: 2 0 0 
Ligature2: "'ccmp' Hebrew HatafMeteg subtable" hatafqamats CGJ meteg
EndChar

StartChar: alefwide
Encoding: 201 64289 205
Width: 1722
VWidth: 2273
Flags: W
HStem: 22 269<412.564 560>
VStem: 189 168<344.027 587.455>
AnchorPoint: "N2r-1" 850 0 basechar 0
AnchorPoint: "N2r-2" 900 0 basechar 0
AnchorPoint: "N2r-3" 900 0 basechar 0
AnchorPoint: "M2r-3" 900 0 basechar 0
AnchorPoint: "M2r-2" 900 0 basechar 0
AnchorPoint: "M2r-1" 850 0 basechar 0
AnchorPoint: "M-1" 943 0 basechar 0
AnchorPoint: "H-1" 185 0 basechar 0
AnchorPoint: "D-1" 900 -445 basechar 0
AnchorPoint: "N-1" 850 0 basechar 0
AnchorPoint: "N-2" 836 0 basechar 0
AnchorPoint: "N-3" 860 0 basechar 0
AnchorPoint: "N-4" 850 0 basechar 0
LayerCount: 2
Fore
SplineSet
1618 281 m 2
 1632 270 l 1
 1629 253 l 1
 1606 136 1538 -4 1525 -25 c 0
 1522 -30 1514 -42 1497 -42 c 2
 1477 -42 l 1
 1469 -24 l 2
 1378 197 1177 274 876 408 c 2
 868 411 l 1
 866 414 l 1
 825 439 514 632 464 648 c 1
 459 648 462 647 462 647 c 1
 460 647 l 0
 422 637 357 542 357 448 c 0
 357 346 460 291 517 291 c 0
 524 291 549 291 584 313 c 2
 639 348 l 1
 630 284 l 2
 606 123 589 46 589 46 c 2
 560 22 l 1
 465 22 381 -24 291 -74 c 2
 262 -90 l 1
 224 -7 l 1
 227 3 l 2
 241 62 271 103 298 139 c 1
 240 202 189 299 189 384 c 0
 189 564 258 707 333 825 c 1
 247 922 l 1
 437 1213 l 1
 457 1153 l 2
 577 772 993 630 1185 567 c 1
 1264 630 1305 713 1305 757 c 0
 1305 785 1297 834 1236 875 c 2
 1216 889 l 1
 1225 911 l 2
 1254 983 1282 1056 1332 1136 c 2
 1355 1173 l 1
 1381 1138 l 2
 1438 1063 1509 1009 1588 964 c 2
 1610 952 l 1
 1601 928 l 2
 1576 855 1543 787 1488 741 c 2
 1478 732 l 1
 1450 737 l 1
 1445 652 1423 539 1361 462 c 1
 1475 397 1519 361 1618 281 c 2
EndSplineSet
Validated: 1
EndChar

StartChar: daletwide
Encoding: 202 64290 206
Width: 1748
VWidth: 2273
Flags: W
HStem: 783 261<491.185 1360.13>
VStem: 1352 189<459 758.337> 1416 190<51.4356 431.904>
AnchorPoint: "N2r-1" 1374 0 basechar 0
AnchorPoint: "N2r-2" 1420 0 basechar 0
AnchorPoint: "N2r-3" 1300 0 basechar 0
AnchorPoint: "M2r-3" 1350 0 basechar 0
AnchorPoint: "M2r-2" 1420 0 basechar 0
AnchorPoint: "M2r-1" 1374 0 basechar 0
AnchorPoint: "M-1" 1470 0 basechar 0
AnchorPoint: "H-1" 246 0 basechar 0
AnchorPoint: "D-1" 830 0 basechar 0
AnchorPoint: "R-1" 952 0 basechar 0
AnchorPoint: "N-4" 1230 0 basechar 0
AnchorPoint: "N-3" 1263 0 basechar 0
AnchorPoint: "N-2" 1363 0 basechar 0
AnchorPoint: "N-1" 1374 0 basechar 0
LayerCount: 2
Fore
SplineSet
599 783 m 0xc0
 433 784 391 798 378 803 c 0
 375 804 373 805 371 806 c 2
 360 811 l 1
 327 914 l 1
 292 949 l 1
 296 965 l 2
 316 1043 350 1097 400 1147 c 2
 422 1169 l 1
 443 1146 l 2
 477 1109 480 1074 546 1061 c 1
 620 1054 910 1044 991 1044 c 0
 1088 1044 1511 1057 1608 1070 c 2
 1629 1073 l 1
 1639 1055 l 2
 1673 991 1690 916 1690 837 c 2
 1690 813 l 1
 1667 807 l 2
 1591 789 1541 715 1541 670 c 0xc0
 1541 559 1606 372 1606 229 c 0
 1606 203 1604 177 1599 152 c 0
 1581 64 1515 -27 1495 -55 c 2
 1475 -82 l 1
 1416 -29 l 1
 1416 -15 l 2xa0
 1416 153 1412 278 1365 459 c 2
 1364 463 l 1
 1364 467 l 2
 1364 492 1352 568 1352 594 c 2
 1352 664 l 2
 1352 704 1355 745 1368 792 c 1
 1212 784 787 783 645 783 c 0
 617 783 600 783 599 783 c 0xc0
EndSplineSet
Validated: 1
EndChar

StartChar: hewide
Encoding: 203 64291 207
Width: 1691
VWidth: 2273
Flags: W
HStem: 801 248<387 1397.09>
VStem: 217 182<254.004 517.375> 1374 188<409.945 799.361>
AnchorPoint: "N2r-1" 850 0 basechar 0
AnchorPoint: "N2r-2" 970 0 basechar 0
AnchorPoint: "N2r-3" 970 0 basechar 0
AnchorPoint: "M2r-3" 970 0 basechar 0
AnchorPoint: "M2r-2" 970 0 basechar 0
AnchorPoint: "M2r-1" 892 0 basechar 0
AnchorPoint: "M-1" 928 0 basechar 0
AnchorPoint: "H-1" 170 0 basechar 0
AnchorPoint: "D-1" 870 0 basechar 0
AnchorPoint: "N-4" 800 0 basechar 0
AnchorPoint: "N-3" 790 0 basechar 0
AnchorPoint: "N-2" 800 0 basechar 0
AnchorPoint: "N-1" 892 0 basechar 0
LayerCount: 2
Fore
SplineSet
259 801 m 1
 221 917 l 1
 188 953 l 1
 192 968 l 2
 212 1047 246 1100 296 1150 c 2
 318 1172 l 1
 339 1149 l 2
 375 1109 391 1072 459 1058 c 0
 496 1051 593 1049 651 1049 c 0
 761 1049 881 1053 929 1053 c 0
 1058 1053 1464 1060 1560 1073 c 2
 1580 1076 l 1
 1590 1057 l 2
 1623 997 1647 932 1647 849 c 2
 1647 833 l 1
 1634 824 l 2
 1578 786 1562 739 1562 686 c 0
 1562 572 1627 379 1627 231 c 0
 1627 205 1624 180 1619 154 c 0
 1602 67 1536 -25 1515 -53 c 2
 1496 -79 l 1
 1439 -29 l 1
 1437 -17 l 2
 1418 151 1411 360 1374 537 c 2
 1374 540 l 1
 1374 610 l 2
 1374 681 1377 740 1399 809 c 1
 1268 801 979 801 903 801 c 2
 259 801 l 1
436 710 m 1
 409 598 404 576 399 462 c 1
 399 454 399 414 400 406 c 0
 406 326 400 304 452 243 c 2
 463 231 l 1
 457 215 l 2
 422 105 382 -4 353 -52 c 2
 338 -75 l 1
 252 -32 l 1
 249 -17 l 2
 219 152 217 240 217 268 c 1
 217 446 279 599 384 736 c 1
 436 710 l 1
EndSplineSet
Validated: 1
EndChar

StartChar: kafwide
Encoding: 204 64292 208
Width: 1578
VWidth: 2273
Flags: W
HStem: -51 279<217 780.729> 802 243<437.503 1211.5>
VStem: 1310 181<331.28 593.351>
AnchorPoint: "N2r-1" 689 0 basechar 0
AnchorPoint: "N2r-2" 740 0 basechar 0
AnchorPoint: "N2r-3" 740 0 basechar 0
AnchorPoint: "M2r-3" 740 0 basechar 0
AnchorPoint: "M2r-2" 740 0 basechar 0
AnchorPoint: "M2r-1" 689 0 basechar 0
AnchorPoint: "M-1" 736 0 basechar 0
AnchorPoint: "H-1" 170 0 basechar 0
AnchorPoint: "D-1" 703 0 basechar 0
AnchorPoint: "R-1" 772 0 basechar 0
AnchorPoint: "N-1" 689 0 basechar 0
AnchorPoint: "N-2" 694 0 basechar 0
AnchorPoint: "N-3" 739 0 basechar 0
AnchorPoint: "N-4" 700 0 basechar 0
LayerCount: 2
Fore
SplineSet
1491 411 m 0
 1491 308 1470 211 1409 132 c 2
 1405 127 l 1
 1400 124 l 2
 1201 13 475 -51 183 -51 c 2
 147 -51 l 1
 153 -16 l 2
 167 65 176 132 209 210 c 2
 217 228 l 1
 274 228 l 2
 685 228 1219 251 1297 341 c 0
 1305 349 1310 383 1310 405 c 0
 1310 453 1286 523 1272 576 c 1
 1236 681 1238 791 1141 802 c 1
 236 802 l 1
 200 918 l 1
 165 953 l 1
 169 969 l 2
 189 1048 223 1101 273 1151 c 2
 295 1173 l 1
 316 1150 l 2
 344 1120 359 1087 435 1061 c 1
 484 1054 817 1045 860 1045 c 0
 911 1045 1175 1056 1222 1056 c 0
 1284 1056 1374 1045 1405 925 c 1
 1441 753 1491 572 1491 411 c 0
EndSplineSet
Validated: 1
EndChar

StartChar: lamedwide
Encoding: 205 64293 209
Width: 1586
VWidth: 2273
Flags: W
HStem: 774 276<440.327 1019.51> 794 270<660.49 1264.72>
VStem: 218 260<1419.52 1540.56> 328 150<1240.55 1413> 1079 218<5.60938 211> 1079 171<119.88 321.776>
AnchorPoint: "N2r-1" 1040 0 basechar 0
AnchorPoint: "N2r-2" 1080 0 basechar 0
AnchorPoint: "N2r-3" 1080 0 basechar 0
AnchorPoint: "M2r-3" 1080 0 basechar 0
AnchorPoint: "M2r-2" 1080 0 basechar 0
AnchorPoint: "M2r-1" 1040 0 basechar 0
AnchorPoint: "M-1" 1159 0 basechar 0
AnchorPoint: "D-1" 892 0 basechar 0
AnchorPoint: "H-1" 102 -34 basechar 0
AnchorPoint: "N-1" 1040 0 basechar 0
AnchorPoint: "N-2" 980 0 basechar 0
AnchorPoint: "N-3" 1028 0 basechar 0
AnchorPoint: "N-4" 900 0 basechar 0
LayerCount: 2
Fore
SplineSet
1455 1021 m 1x50
 1498 971 1528 899 1528 812 c 2
 1528 808 l 1
 1527 804 l 2
 1481 640 1288 352 1251 245 c 0
 1250 241 1250 239 1250 238 c 0x54
 1250 234 1252 228 1265 221 c 0
 1268 219 1271 218 1275 217 c 2
 1297 211 l 1
 1297 188 l 2
 1297 91 1263 18 1230 -42 c 2
 1217 -67 l 1
 1191 -55 l 1
 1119 -14 1088 62 1085 70 c 0
 1085 70 1083 80 1083 81 c 0
 1083 97 1079 127 1079 158 c 0
 1079 189 1082 226 1096 270 c 0
 1097 277 1098 280 1101 286 c 0
 1124 337 1230 444 1295 712 c 0
 1295 715 1295 719 1295 722 c 0
 1293 763 1272 783 1265 789 c 0
 1259 793 1255 794 1254 794 c 2x48
 426 774 l 1
 363 774 267 801 267 980 c 0
 267 1050 270 1125 280 1201 c 1
 288 1251 328 1352 328 1402 c 0
 328 1405 329 1409 328 1413 c 1x98
 321 1413 310 1411 293 1406 c 2
 289 1405 l 1
 285 1405 l 1
 276 1406 259 1406 242 1419 c 0
 227 1430 218 1447 218 1465 c 0xa0
 218 1481 223 1494 230 1504 c 2
 231 1506 l 1
 372 1664 l 1
 376 1666 l 2
 380 1667 390 1672 392 1673 c 0
 397 1674 401 1674 407 1674 c 0
 444 1674 462 1648 468 1638 c 2
 469 1634 l 1
 470 1631 l 2
 476 1606 478 1580 478 1552 c 0
 478 1421 424 1247 424 1148 c 0
 424 1139 424 1091 440 1063 c 0
 447 1051 452 1050 456 1050 c 0x90
 557 1050 1262 1064 1371 1064 c 2
 1374 1064 l 1
 1377 1063 l 2
 1409 1057 1428 1048 1455 1021 c 1x50
EndSplineSet
Validated: 1
EndChar

StartChar: finalmemwide
Encoding: 206 64294 210
Width: 1716
VWidth: 2273
Flags: W
HStem: 811 253<383.015 1251.46>
VStem: 216 150<333.511 789.899> 1407 171<324.094 712.728>
AnchorPoint: "N2r-1" 834 0 basechar 0
AnchorPoint: "N2r-2" 870 0 basechar 0
AnchorPoint: "N2r-3" 870 0 basechar 0
AnchorPoint: "M2r-3" 870 0 basechar 0
AnchorPoint: "M2r-2" 870 0 basechar 0
AnchorPoint: "M2r-1" 834 0 basechar 0
AnchorPoint: "M-1" 933 0 basechar 0
AnchorPoint: "H-1" 146 0 basechar 0
AnchorPoint: "N-1" 834 0 basechar 0
AnchorPoint: "N-2" 834 0 basechar 0
AnchorPoint: "N-3" 840 0 basechar 0
AnchorPoint: "N-4" 800 0 basechar 0
AnchorPoint: "D-1" 902 4 basechar 0
LayerCount: 2
Fore
SplineSet
137 954 m 1
 103 988 l 1
 107 1004 l 2
 127 1083 161 1136 211 1186 c 2
 233 1208 l 1
 254 1185 l 2
 288 1148 306 1097 373 1084 c 1
 428 1070 767 1064 910 1064 c 0
 1009 1064 1307 1040 1398 1040 c 0
 1527 1040 1525 951 1536 893 c 1
 1568 683 1578 541 1578 359 c 1
 1582 345 1586 339 1598 330 c 2
 1606 324 l 1
 1609 314 l 2
 1615 291 1619 269 1619 248 c 0
 1619 193 1600 149 1591 109 c 2
 1587 89 l 1
 380 -93 l 1
 378 -93 l 2
 362 -93 346 -92 328 -85 c 0
 312 -79 301 -69 293 -60 c 0
 265 -27 256 30 256 106 c 1
 227 274 216 408 216 513 c 0
 216 517 216 522 216 526 c 0
 217 649 229 743 251 801 c 1
 213 801 198 815 192 815 c 2
 168 815 l 1
 137 954 l 1
1407 299 m 1
 1407 422 l 2
 1407 526 1399 605 1375 718 c 2
 1345 757 1096 809 948 811 c 1
 842 811 481 801 378 792 c 1
 367 747 366 714 366 659 c 0
 366 500 409 325 431 262 c 1
 432 257 l 1
 435 233 448 210 472 210 c 0
 481 210 489 213 495 215 c 0
 643 270 1263 294 1407 299 c 1
EndSplineSet
Validated: 1
EndChar

StartChar: reshwide
Encoding: 207 64295 211
Width: 1662
VWidth: 2273
Flags: W
HStem: 802 248<436.981 1356.36>
VStem: 1423 164<87.1428 654.65>
AnchorPoint: "N2r-1" 1407 0 basechar 0
AnchorPoint: "N2r-2" 1400 0 basechar 0
AnchorPoint: "N2r-3" 1400 0 basechar 0
AnchorPoint: "M2r-3" 1270 0 basechar 0
AnchorPoint: "M2r-2" 1400 0 basechar 0
AnchorPoint: "M2r-1" 1407 0 basechar 0
AnchorPoint: "M-1" 1504 0 basechar 0
AnchorPoint: "H-1" 205 0 basechar 0
AnchorPoint: "D-1" 807 0 basechar 0
AnchorPoint: "N-4" 1290 0 basechar 0
AnchorPoint: "N-3" 1307 0 basechar 0
AnchorPoint: "N-2" 1396 0 basechar 0
AnchorPoint: "N-1" 1407 -1 basechar 0
LayerCount: 2
Fore
SplineSet
1326 802 m 1
 311 807 l 1
 275 921 l 1
 240 956 l 1
 244 972 l 2
 256 1020 296 1075 357 1135 c 2
 379 1157 l 1
 400 1134 l 2
 428 1103 452 1069 521 1055 c 1
 1398 1050 l 2
 1574 1050 1587 779 1587 576 c 2
 1587 379 l 2
 1587 262 1573 61 1474 -13 c 2
 1461 -23 l 1
 1372 10 l 1
 1386 40 l 2
 1412 95 1423 163 1423 239 c 0
 1423 375 1408 517 1373 689 c 0
 1363 735 1356 785 1326 802 c 1
EndSplineSet
Validated: 1
EndChar

StartChar: tavwide
Encoding: 208 64296 212
Width: 1823
VWidth: 2273
Flags: W
HStem: 775 285<556.14 1431.53>
VStem: 289 169<287.706 683.304> 1540 171<8.23438 312.62>
AnchorPoint: "N2r-1" 906 0 basechar 0
AnchorPoint: "N2r-2" 960 0 basechar 0
AnchorPoint: "N2r-3" 960 0 basechar 0
AnchorPoint: "M2r-3" 960 0 basechar 0
AnchorPoint: "M2r-2" 960 0 basechar 0
AnchorPoint: "M2r-1" 906 0 basechar 0
AnchorPoint: "M-1" 994 0 basechar 0
AnchorPoint: "H-1" 193 0 basechar 0
AnchorPoint: "D-1" 930 0 basechar 0
AnchorPoint: "R-1" 900 0 basechar 0
AnchorPoint: "N-4" 939 0 basechar 0
AnchorPoint: "N-3" 900 0 basechar 0
AnchorPoint: "N-2" 912 0 basechar 0
AnchorPoint: "N-1" 906 0 basechar 0
LayerCount: 2
Fore
SplineSet
1455 1061 m 2
 1595 1061 1603 887 1622 795 c 1
 1711 220 l 1
 1711 218 l 2
 1711 113 1679 30 1648 -44 c 2
 1631 -83 l 1
 1533 8 l 1
 1535 23 l 2
 1538 50 1540 76 1540 104 c 0
 1540 287 1482 508 1432 740 c 1
 1422 760 1407 775 1381 775 c 2
 564 775 l 2
 561 775 559 776 556 775 c 0
 547 771 531 759 520 738 c 0
 484 675 458 603 458 511 c 0
 458 446 471 370 506 279 c 1
 564 279 l 1
 564 39 l 1
 548 31 l 2
 442 -26 335 -82 205 -114 c 2
 173 -122 l 1
 168 -90 l 2
 158 -34 139 8 139 71 c 0
 139 91 141 112 146 134 c 2
 150 149 l 1
 164 155 l 2
 228 180 282 193 341 231 c 1
 305 327 289 410 289 484 c 0
 289 611 336 706 397 785 c 1
 230 815 l 1
 226 836 l 2
 222 859 220 882 220 904 c 0
 220 979 243 1071 297 1125 c 2
 325 1153 l 1
 344 1119 l 2
 376 1065 402 1060 461 1060 c 2
 1455 1061 l 2
EndSplineSet
Validated: 1
EndChar

StartChar: Euro
Encoding: 195 8364 218
Width: 1127
VWidth: 3029
Flags: W
HStem: -86 250<587.41 854.824> 326 190<501.234 925> 396 142<104.52 154 418 612.833> 541 224<688.042 1042> 556 185<417 916.431> 817 21G<820.903 875.619 1049.5 1102> 1022 172<554 846.168>
VStem: 865 237<856.719 1000.4>
LayerCount: 2
Fore
SplineSet
1054 148 m 1xcf
 964 -2 821 -86 675 -86 c 0
 465 -86 256 74 172 396 c 1
 100 396 l 1
 100 449 l 2
 100 481 104 512 127 538 c 1
 154 538 l 1
 154 564 l 1
 124 564 l 1
 114 580 104 628 104 663 c 0
 104 682 107 697 114 703 c 1
 134 718 161 728 203 738 c 1
 278 960 462 1194 751 1194 c 0
 827 1194 908 1179 995 1143 c 1
 995 1139 l 1
 1080 1063 1102 1013 1102 921 c 2
 1102 817 l 1
 1063 817 l 1
 1036 830 1006 856 976 856 c 0
 946 856 915 849 879 838 c 2
 808 817 l 1
 848 879 l 2
 860 898 865 916 865 932 c 0
 865 984 812 1022 736 1022 c 2
 704 1022 l 2
 494 1022 435 845 417 741 c 1
 436 741 455 741 473 741 c 0xaf
 546 741 615 740 682 740 c 0
 811 740 933 744 1062 765 c 1
 1103 765 l 1
 1042 541 l 1x97
 810 541 632 556 392 556 c 1
 392 544 l 1
 517 517 632 516 758 516 c 0
 778 516 797 516 817 516 c 0
 862 516 909 515 959 514 c 1
 1000 514 l 1
 925 326 l 1
 732 326 595 354 418 385 c 1
 475 282 589 164 745 164 c 0
 832 164 907 203 963 238 c 1
 976 239 990 241 1003 241 c 0
 1034 241 1061 232 1062 188 c 0
 1062 172 1058 159 1054 148 c 1xcf
EndSplineSet
Validated: 1
EndChar
